<svg xmlns="http://www.w3.org/2000/svg" xmlns:xlink="http://www.w3.org/1999/xlink" width="600" height="400" viewBox="0 0 2400 1600">
<defs>
  <clipPath id="clip650">
    <rect x="0" y="0" width="2400" height="1600"></rect>
  </clipPath>
</defs>
<path clip-path="url(#clip650)" d="M0 1600 L2400 1600 L2400 0 L0 0  Z" fill="#ffffff" fill-rule="evenodd" fill-opacity="1"></path>
<defs>
  <clipPath id="clip651">
    <rect x="480" y="0" width="1681" height="1600"></rect>
  </clipPath>
</defs>
<path clip-path="url(#clip650)" d="M156.598 1486.45 L2352.76 1486.45 L2352.76 123.472 L156.598 123.472  Z" fill="#ffffff" fill-rule="evenodd" fill-opacity="1"></path>
<defs>
  <clipPath id="clip652">
    <rect x="156" y="123" width="2197" height="1364"></rect>
  </clipPath>
</defs>
<polyline clip-path="url(#clip652)" style="stroke:#000000; stroke-linecap:round; stroke-linejoin:round; stroke-width:2; stroke-opacity:0.1; fill:none" points="211.824,1486.45 211.824,123.472 "></polyline>
<polyline clip-path="url(#clip652)" style="stroke:#000000; stroke-linecap:round; stroke-linejoin:round; stroke-width:2; stroke-opacity:0.1; fill:none" points="904.75,1486.45 904.75,123.472 "></polyline>
<polyline clip-path="url(#clip652)" style="stroke:#000000; stroke-linecap:round; stroke-linejoin:round; stroke-width:2; stroke-opacity:0.1; fill:none" points="1597.68,1486.45 1597.68,123.472 "></polyline>
<polyline clip-path="url(#clip652)" style="stroke:#000000; stroke-linecap:round; stroke-linejoin:round; stroke-width:2; stroke-opacity:0.1; fill:none" points="2290.6,1486.45 2290.6,123.472 "></polyline>
<polyline clip-path="url(#clip650)" style="stroke:#000000; stroke-linecap:round; stroke-linejoin:round; stroke-width:4; stroke-opacity:1; fill:none" points="156.598,1486.45 2352.76,1486.45 "></polyline>
<polyline clip-path="url(#clip650)" style="stroke:#000000; stroke-linecap:round; stroke-linejoin:round; stroke-width:4; stroke-opacity:1; fill:none" points="211.824,1486.45 211.824,1467.55 "></polyline>
<polyline clip-path="url(#clip650)" style="stroke:#000000; stroke-linecap:round; stroke-linejoin:round; stroke-width:4; stroke-opacity:1; fill:none" points="904.75,1486.45 904.75,1467.55 "></polyline>
<polyline clip-path="url(#clip650)" style="stroke:#000000; stroke-linecap:round; stroke-linejoin:round; stroke-width:4; stroke-opacity:1; fill:none" points="1597.68,1486.45 1597.68,1467.55 "></polyline>
<polyline clip-path="url(#clip650)" style="stroke:#000000; stroke-linecap:round; stroke-linejoin:round; stroke-width:4; stroke-opacity:1; fill:none" points="2290.6,1486.45 2290.6,1467.55 "></polyline>
<path clip-path="url(#clip650)" d="M211.824 1517.37 Q208.213 1517.37 206.385 1520.93 Q204.579 1524.47 204.579 1531.6 Q204.579 1538.71 206.385 1542.27 Q208.213 1545.82 211.824 1545.82 Q215.459 1545.82 217.264 1542.27 Q219.093 1538.71 219.093 1531.6 Q219.093 1524.47 217.264 1520.93 Q215.459 1517.37 211.824 1517.37 M211.824 1513.66 Q217.635 1513.66 220.69 1518.27 Q223.769 1522.85 223.769 1531.6 Q223.769 1540.33 220.69 1544.94 Q217.635 1549.52 211.824 1549.52 Q206.014 1549.52 202.936 1544.94 Q199.88 1540.33 199.88 1531.6 Q199.88 1522.85 202.936 1518.27 Q206.014 1513.66 211.824 1513.66 Z" fill="#000000" fill-rule="nonzero" fill-opacity="1"></path><path clip-path="url(#clip650)" d="M864.356 1544.91 L871.995 1544.91 L871.995 1518.55 L863.685 1520.21 L863.685 1515.95 L871.949 1514.29 L876.625 1514.29 L876.625 1544.91 L884.264 1544.91 L884.264 1548.85 L864.356 1548.85 L864.356 1544.91 Z" fill="#000000" fill-rule="nonzero" fill-opacity="1"></path><path clip-path="url(#clip650)" d="M903.708 1517.37 Q900.097 1517.37 898.268 1520.93 Q896.463 1524.47 896.463 1531.6 Q896.463 1538.71 898.268 1542.27 Q900.097 1545.82 903.708 1545.82 Q907.342 1545.82 909.148 1542.27 Q910.977 1538.71 910.977 1531.6 Q910.977 1524.47 909.148 1520.93 Q907.342 1517.37 903.708 1517.37 M903.708 1513.66 Q909.518 1513.66 912.574 1518.27 Q915.652 1522.85 915.652 1531.6 Q915.652 1540.33 912.574 1544.94 Q909.518 1549.52 903.708 1549.52 Q897.898 1549.52 894.819 1544.94 Q891.764 1540.33 891.764 1531.6 Q891.764 1522.85 894.819 1518.27 Q897.898 1513.66 903.708 1513.66 Z" fill="#000000" fill-rule="nonzero" fill-opacity="1"></path><path clip-path="url(#clip650)" d="M933.87 1517.37 Q930.259 1517.37 928.43 1520.93 Q926.625 1524.47 926.625 1531.6 Q926.625 1538.71 928.43 1542.27 Q930.259 1545.82 933.87 1545.82 Q937.504 1545.82 939.31 1542.27 Q941.138 1538.71 941.138 1531.6 Q941.138 1524.47 939.31 1520.93 Q937.504 1517.37 933.87 1517.37 M933.87 1513.66 Q939.68 1513.66 942.736 1518.27 Q945.814 1522.85 945.814 1531.6 Q945.814 1540.33 942.736 1544.94 Q939.68 1549.52 933.87 1549.52 Q928.06 1549.52 924.981 1544.94 Q921.926 1540.33 921.926 1531.6 Q921.926 1522.85 924.981 1518.27 Q928.06 1513.66 933.87 1513.66 Z" fill="#000000" fill-rule="nonzero" fill-opacity="1"></path><path clip-path="url(#clip650)" d="M1561.37 1544.91 L1577.69 1544.91 L1577.69 1548.85 L1555.74 1548.85 L1555.74 1544.91 Q1558.4 1542.16 1562.99 1537.53 Q1567.59 1532.88 1568.77 1531.53 Q1571.02 1529.01 1571.9 1527.27 Q1572.8 1525.51 1572.8 1523.82 Q1572.8 1521.07 1570.86 1519.33 Q1568.94 1517.6 1565.84 1517.6 Q1563.64 1517.6 1561.18 1518.36 Q1558.75 1519.13 1555.97 1520.68 L1555.97 1515.95 Q1558.8 1514.82 1561.25 1514.24 Q1563.71 1513.66 1565.74 1513.66 Q1571.11 1513.66 1574.31 1516.35 Q1577.5 1519.03 1577.5 1523.52 Q1577.5 1525.65 1576.69 1527.57 Q1575.9 1529.47 1573.8 1532.07 Q1573.22 1532.74 1570.12 1535.95 Q1567.02 1539.15 1561.37 1544.91 Z" fill="#000000" fill-rule="nonzero" fill-opacity="1"></path><path clip-path="url(#clip650)" d="M1597.5 1517.37 Q1593.89 1517.37 1592.06 1520.93 Q1590.26 1524.47 1590.26 1531.6 Q1590.26 1538.71 1592.06 1542.27 Q1593.89 1545.82 1597.5 1545.82 Q1601.14 1545.82 1602.94 1542.27 Q1604.77 1538.71 1604.77 1531.6 Q1604.77 1524.47 1602.94 1520.93 Q1601.14 1517.37 1597.5 1517.37 M1597.5 1513.66 Q1603.31 1513.66 1606.37 1518.27 Q1609.45 1522.85 1609.45 1531.6 Q1609.45 1540.33 1606.37 1544.94 Q1603.31 1549.52 1597.5 1549.52 Q1591.69 1549.52 1588.61 1544.94 Q1585.56 1540.33 1585.56 1531.6 Q1585.56 1522.85 1588.61 1518.27 Q1591.69 1513.66 1597.5 1513.66 Z" fill="#000000" fill-rule="nonzero" fill-opacity="1"></path><path clip-path="url(#clip650)" d="M1627.66 1517.37 Q1624.05 1517.37 1622.22 1520.93 Q1620.42 1524.47 1620.42 1531.6 Q1620.42 1538.71 1622.22 1542.27 Q1624.05 1545.82 1627.66 1545.82 Q1631.3 1545.82 1633.1 1542.27 Q1634.93 1538.71 1634.93 1531.6 Q1634.93 1524.47 1633.1 1520.93 Q1631.3 1517.37 1627.66 1517.37 M1627.66 1513.66 Q1633.47 1513.66 1636.53 1518.27 Q1639.61 1522.85 1639.61 1531.6 Q1639.61 1540.33 1636.53 1544.94 Q1633.47 1549.52 1627.66 1549.52 Q1621.85 1549.52 1618.77 1544.94 Q1615.72 1540.33 1615.72 1531.6 Q1615.72 1522.85 1618.77 1518.27 Q1621.85 1513.66 1627.66 1513.66 Z" fill="#000000" fill-rule="nonzero" fill-opacity="1"></path><path clip-path="url(#clip650)" d="M2264.36 1530.21 Q2267.72 1530.93 2269.59 1533.2 Q2271.49 1535.47 2271.49 1538.8 Q2271.49 1543.92 2267.97 1546.72 Q2264.45 1549.52 2257.97 1549.52 Q2255.8 1549.52 2253.48 1549.08 Q2251.19 1548.66 2248.74 1547.81 L2248.74 1543.29 Q2250.68 1544.43 2253 1545.01 Q2255.31 1545.58 2257.83 1545.58 Q2262.23 1545.58 2264.52 1543.85 Q2266.84 1542.11 2266.84 1538.8 Q2266.84 1535.75 2264.69 1534.03 Q2262.56 1532.3 2258.74 1532.3 L2254.71 1532.3 L2254.71 1528.45 L2258.92 1528.45 Q2262.37 1528.45 2264.2 1527.09 Q2266.03 1525.7 2266.03 1523.11 Q2266.03 1520.45 2264.13 1519.03 Q2262.26 1517.6 2258.74 1517.6 Q2256.82 1517.6 2254.62 1518.01 Q2252.42 1518.43 2249.78 1519.31 L2249.78 1515.14 Q2252.44 1514.4 2254.76 1514.03 Q2257.09 1513.66 2259.15 1513.66 Q2264.48 1513.66 2267.58 1516.09 Q2270.68 1518.5 2270.68 1522.62 Q2270.68 1525.49 2269.04 1527.48 Q2267.39 1529.45 2264.36 1530.21 Z" fill="#000000" fill-rule="nonzero" fill-opacity="1"></path><path clip-path="url(#clip650)" d="M2290.36 1517.37 Q2286.75 1517.37 2284.92 1520.93 Q2283.11 1524.47 2283.11 1531.6 Q2283.11 1538.71 2284.92 1542.27 Q2286.75 1545.82 2290.36 1545.82 Q2293.99 1545.82 2295.8 1542.27 Q2297.63 1538.71 2297.63 1531.6 Q2297.63 1524.47 2295.8 1520.93 Q2293.99 1517.37 2290.36 1517.37 M2290.36 1513.66 Q2296.17 1513.66 2299.22 1518.27 Q2302.3 1522.85 2302.3 1531.6 Q2302.3 1540.33 2299.22 1544.94 Q2296.17 1549.52 2290.36 1549.52 Q2284.55 1549.52 2281.47 1544.94 Q2278.41 1540.33 2278.41 1531.6 Q2278.41 1522.85 2281.47 1518.27 Q2284.55 1513.66 2290.36 1513.66 Z" fill="#000000" fill-rule="nonzero" fill-opacity="1"></path><path clip-path="url(#clip650)" d="M2320.52 1517.37 Q2316.91 1517.37 2315.08 1520.93 Q2313.27 1524.47 2313.27 1531.6 Q2313.27 1538.71 2315.08 1542.27 Q2316.91 1545.82 2320.52 1545.82 Q2324.15 1545.82 2325.96 1542.27 Q2327.79 1538.71 2327.79 1531.6 Q2327.79 1524.47 2325.96 1520.93 Q2324.15 1517.37 2320.52 1517.37 M2320.52 1513.66 Q2326.33 1513.66 2329.39 1518.27 Q2332.46 1522.85 2332.46 1531.6 Q2332.46 1540.33 2329.39 1544.94 Q2326.33 1549.52 2320.52 1549.52 Q2314.71 1549.52 2311.63 1544.94 Q2308.57 1540.33 2308.57 1531.6 Q2308.57 1522.85 2311.63 1518.27 Q2314.71 1513.66 2320.52 1513.66 Z" fill="#000000" fill-rule="nonzero" fill-opacity="1"></path><polyline clip-path="url(#clip652)" style="stroke:#000000; stroke-linecap:round; stroke-linejoin:round; stroke-width:2; stroke-opacity:0.1; fill:none" points="156.598,1447.88 2352.76,1447.88 "></polyline>
<polyline clip-path="url(#clip652)" style="stroke:#000000; stroke-linecap:round; stroke-linejoin:round; stroke-width:2; stroke-opacity:0.1; fill:none" points="156.598,1120.37 2352.76,1120.37 "></polyline>
<polyline clip-path="url(#clip652)" style="stroke:#000000; stroke-linecap:round; stroke-linejoin:round; stroke-width:2; stroke-opacity:0.1; fill:none" points="156.598,792.862 2352.76,792.862 "></polyline>
<polyline clip-path="url(#clip652)" style="stroke:#000000; stroke-linecap:round; stroke-linejoin:round; stroke-width:2; stroke-opacity:0.1; fill:none" points="156.598,465.355 2352.76,465.355 "></polyline>
<polyline clip-path="url(#clip652)" style="stroke:#000000; stroke-linecap:round; stroke-linejoin:round; stroke-width:2; stroke-opacity:0.1; fill:none" points="156.598,137.848 2352.76,137.848 "></polyline>
<polyline clip-path="url(#clip650)" style="stroke:#000000; stroke-linecap:round; stroke-linejoin:round; stroke-width:4; stroke-opacity:1; fill:none" points="156.598,1486.45 156.598,123.472 "></polyline>
<polyline clip-path="url(#clip650)" style="stroke:#000000; stroke-linecap:round; stroke-linejoin:round; stroke-width:4; stroke-opacity:1; fill:none" points="156.598,1447.88 175.496,1447.88 "></polyline>
<polyline clip-path="url(#clip650)" style="stroke:#000000; stroke-linecap:round; stroke-linejoin:round; stroke-width:4; stroke-opacity:1; fill:none" points="156.598,1120.37 175.496,1120.37 "></polyline>
<polyline clip-path="url(#clip650)" style="stroke:#000000; stroke-linecap:round; stroke-linejoin:round; stroke-width:4; stroke-opacity:1; fill:none" points="156.598,792.862 175.496,792.862 "></polyline>
<polyline clip-path="url(#clip650)" style="stroke:#000000; stroke-linecap:round; stroke-linejoin:round; stroke-width:4; stroke-opacity:1; fill:none" points="156.598,465.355 175.496,465.355 "></polyline>
<polyline clip-path="url(#clip650)" style="stroke:#000000; stroke-linecap:round; stroke-linejoin:round; stroke-width:4; stroke-opacity:1; fill:none" points="156.598,137.848 175.496,137.848 "></polyline>
<path clip-path="url(#clip650)" d="M63.4226 1433.67 Q59.8115 1433.67 57.9828 1437.24 Q56.1773 1440.78 56.1773 1447.91 Q56.1773 1455.02 57.9828 1458.58 Q59.8115 1462.12 63.4226 1462.12 Q67.0569 1462.12 68.8624 1458.58 Q70.6911 1455.02 70.6911 1447.91 Q70.6911 1440.78 68.8624 1437.24 Q67.0569 1433.67 63.4226 1433.67 M63.4226 1429.97 Q69.2328 1429.97 72.2883 1434.58 Q75.367 1439.16 75.367 1447.91 Q75.367 1456.64 72.2883 1461.24 Q69.2328 1465.83 63.4226 1465.83 Q57.6125 1465.83 54.5338 1461.24 Q51.4782 1456.64 51.4782 1447.91 Q51.4782 1439.16 54.5338 1434.58 Q57.6125 1429.97 63.4226 1429.97 Z" fill="#000000" fill-rule="nonzero" fill-opacity="1"></path><path clip-path="url(#clip650)" d="M83.5845 1459.28 L88.4688 1459.28 L88.4688 1465.16 L83.5845 1465.16 L83.5845 1459.28 Z" fill="#000000" fill-rule="nonzero" fill-opacity="1"></path><path clip-path="url(#clip650)" d="M108.654 1433.67 Q105.043 1433.67 103.214 1437.24 Q101.409 1440.78 101.409 1447.91 Q101.409 1455.02 103.214 1458.58 Q105.043 1462.12 108.654 1462.12 Q112.288 1462.12 114.094 1458.58 Q115.922 1455.02 115.922 1447.91 Q115.922 1440.78 114.094 1437.24 Q112.288 1433.67 108.654 1433.67 M108.654 1429.97 Q114.464 1429.97 117.52 1434.58 Q120.598 1439.16 120.598 1447.91 Q120.598 1456.64 117.52 1461.24 Q114.464 1465.83 108.654 1465.83 Q102.844 1465.83 99.765 1461.24 Q96.7095 1456.64 96.7095 1447.91 Q96.7095 1439.16 99.765 1434.58 Q102.844 1429.97 108.654 1429.97 Z" fill="#000000" fill-rule="nonzero" fill-opacity="1"></path><path clip-path="url(#clip650)" d="M65.0198 1106.17 Q61.4087 1106.17 59.58 1109.73 Q57.7745 1113.27 57.7745 1120.4 Q57.7745 1127.51 59.58 1131.07 Q61.4087 1134.62 65.0198 1134.62 Q68.6541 1134.62 70.4596 1131.07 Q72.2883 1127.51 72.2883 1120.4 Q72.2883 1113.27 70.4596 1109.73 Q68.6541 1106.17 65.0198 1106.17 M65.0198 1102.46 Q70.83 1102.46 73.8855 1107.07 Q76.9642 1111.65 76.9642 1120.4 Q76.9642 1129.13 73.8855 1133.74 Q70.83 1138.32 65.0198 1138.32 Q59.2097 1138.32 56.131 1133.74 Q53.0754 1129.13 53.0754 1120.4 Q53.0754 1111.65 56.131 1107.07 Q59.2097 1102.46 65.0198 1102.46 Z" fill="#000000" fill-rule="nonzero" fill-opacity="1"></path><path clip-path="url(#clip650)" d="M85.1818 1131.77 L90.066 1131.77 L90.066 1137.65 L85.1818 1137.65 L85.1818 1131.77 Z" fill="#000000" fill-rule="nonzero" fill-opacity="1"></path><path clip-path="url(#clip650)" d="M104.279 1133.71 L120.598 1133.71 L120.598 1137.65 L98.6539 1137.65 L98.6539 1133.71 Q101.316 1130.96 105.899 1126.33 Q110.506 1121.68 111.686 1120.33 Q113.932 1117.81 114.811 1116.07 Q115.714 1114.32 115.714 1112.63 Q115.714 1109.87 113.77 1108.13 Q111.848 1106.4 108.746 1106.4 Q106.547 1106.4 104.094 1107.16 Q101.663 1107.93 98.8854 1109.48 L98.8854 1104.76 Q101.709 1103.62 104.163 1103.04 Q106.617 1102.46 108.654 1102.46 Q114.024 1102.46 117.219 1105.15 Q120.413 1107.83 120.413 1112.32 Q120.413 1114.45 119.603 1116.38 Q118.816 1118.27 116.709 1120.87 Q116.131 1121.54 113.029 1124.76 Q109.927 1127.95 104.279 1133.71 Z" fill="#000000" fill-rule="nonzero" fill-opacity="1"></path><path clip-path="url(#clip650)" d="M62.9365 778.66 Q59.3254 778.66 57.4967 782.225 Q55.6912 785.767 55.6912 792.897 Q55.6912 800.003 57.4967 803.568 Q59.3254 807.109 62.9365 807.109 Q66.5707 807.109 68.3763 803.568 Q70.205 800.003 70.205 792.897 Q70.205 785.767 68.3763 782.225 Q66.5707 778.66 62.9365 778.66 M62.9365 774.957 Q68.7467 774.957 71.8022 779.563 Q74.8809 784.147 74.8809 792.897 Q74.8809 801.623 71.8022 806.23 Q68.7467 810.813 62.9365 810.813 Q57.1264 810.813 54.0477 806.23 Q50.9921 801.623 50.9921 792.897 Q50.9921 784.147 54.0477 779.563 Q57.1264 774.957 62.9365 774.957 Z" fill="#000000" fill-rule="nonzero" fill-opacity="1"></path><path clip-path="url(#clip650)" d="M83.0984 804.262 L87.9827 804.262 L87.9827 810.142 L83.0984 810.142 L83.0984 804.262 Z" fill="#000000" fill-rule="nonzero" fill-opacity="1"></path><path clip-path="url(#clip650)" d="M111.015 779.656 L99.2095 798.105 L111.015 798.105 L111.015 779.656 M109.788 775.582 L115.668 775.582 L115.668 798.105 L120.598 798.105 L120.598 801.994 L115.668 801.994 L115.668 810.142 L111.015 810.142 L111.015 801.994 L95.4132 801.994 L95.4132 797.48 L109.788 775.582 Z" fill="#000000" fill-rule="nonzero" fill-opacity="1"></path><path clip-path="url(#clip650)" d="M63.2606 451.154 Q59.6495 451.154 57.8208 454.719 Q56.0152 458.26 56.0152 465.39 Q56.0152 472.496 57.8208 476.061 Q59.6495 479.603 63.2606 479.603 Q66.8948 479.603 68.7004 476.061 Q70.5291 472.496 70.5291 465.39 Q70.5291 458.26 68.7004 454.719 Q66.8948 451.154 63.2606 451.154 M63.2606 447.45 Q69.0707 447.45 72.1263 452.057 Q75.205 456.64 75.205 465.39 Q75.205 474.117 72.1263 478.723 Q69.0707 483.306 63.2606 483.306 Q57.4504 483.306 54.3717 478.723 Q51.3162 474.117 51.3162 465.39 Q51.3162 456.64 54.3717 452.057 Q57.4504 447.45 63.2606 447.45 Z" fill="#000000" fill-rule="nonzero" fill-opacity="1"></path><path clip-path="url(#clip650)" d="M83.4225 476.756 L88.3067 476.756 L88.3067 482.635 L83.4225 482.635 L83.4225 476.756 Z" fill="#000000" fill-rule="nonzero" fill-opacity="1"></path><path clip-path="url(#clip650)" d="M109.071 463.492 Q105.922 463.492 104.071 465.644 Q102.242 467.797 102.242 471.547 Q102.242 475.274 104.071 477.45 Q105.922 479.603 109.071 479.603 Q112.219 479.603 114.047 477.45 Q115.899 475.274 115.899 471.547 Q115.899 467.797 114.047 465.644 Q112.219 463.492 109.071 463.492 M118.353 448.839 L118.353 453.098 Q116.594 452.265 114.788 451.825 Q113.006 451.385 111.246 451.385 Q106.617 451.385 104.163 454.51 Q101.733 457.635 101.385 463.955 Q102.751 461.941 104.811 460.876 Q106.871 459.788 109.348 459.788 Q114.557 459.788 117.566 462.959 Q120.598 466.107 120.598 471.547 Q120.598 476.871 117.45 480.089 Q114.302 483.306 109.071 483.306 Q103.075 483.306 99.9039 478.723 Q96.7326 474.117 96.7326 465.39 Q96.7326 457.195 100.621 452.334 Q104.51 447.45 111.061 447.45 Q112.82 447.45 114.603 447.797 Q116.408 448.145 118.353 448.839 Z" fill="#000000" fill-rule="nonzero" fill-opacity="1"></path><path clip-path="url(#clip650)" d="M63.5152 123.647 Q59.9041 123.647 58.0754 127.212 Q56.2699 130.754 56.2699 137.883 Q56.2699 144.99 58.0754 148.554 Q59.9041 152.096 63.5152 152.096 Q67.1494 152.096 68.955 148.554 Q70.7837 144.99 70.7837 137.883 Q70.7837 130.754 68.955 127.212 Q67.1494 123.647 63.5152 123.647 M63.5152 119.943 Q69.3254 119.943 72.3809 124.55 Q75.4596 129.133 75.4596 137.883 Q75.4596 146.61 72.3809 151.216 Q69.3254 155.8 63.5152 155.8 Q57.7051 155.8 54.6264 151.216 Q51.5708 146.61 51.5708 137.883 Q51.5708 129.133 54.6264 124.55 Q57.7051 119.943 63.5152 119.943 Z" fill="#000000" fill-rule="nonzero" fill-opacity="1"></path><path clip-path="url(#clip650)" d="M83.6771 149.249 L88.5614 149.249 L88.5614 155.128 L83.6771 155.128 L83.6771 149.249 Z" fill="#000000" fill-rule="nonzero" fill-opacity="1"></path><path clip-path="url(#clip650)" d="M108.746 138.716 Q105.413 138.716 103.492 140.499 Q101.594 142.281 101.594 145.406 Q101.594 148.531 103.492 150.314 Q105.413 152.096 108.746 152.096 Q112.08 152.096 114.001 150.314 Q115.922 148.508 115.922 145.406 Q115.922 142.281 114.001 140.499 Q112.103 138.716 108.746 138.716 M104.071 136.726 Q101.061 135.985 99.3715 133.925 Q97.7048 131.865 97.7048 128.902 Q97.7048 124.758 100.645 122.351 Q103.608 119.943 108.746 119.943 Q113.908 119.943 116.848 122.351 Q119.788 124.758 119.788 128.902 Q119.788 131.865 118.098 133.925 Q116.432 135.985 113.445 136.726 Q116.825 137.513 118.7 139.804 Q120.598 142.096 120.598 145.406 Q120.598 150.429 117.52 153.115 Q114.464 155.8 108.746 155.8 Q103.029 155.8 99.9502 153.115 Q96.8947 150.429 96.8947 145.406 Q96.8947 142.096 98.7928 139.804 Q100.691 137.513 104.071 136.726 M102.358 129.342 Q102.358 132.027 104.024 133.531 Q105.714 135.036 108.746 135.036 Q111.756 135.036 113.445 133.531 Q115.158 132.027 115.158 129.342 Q115.158 126.656 113.445 125.152 Q111.756 123.647 108.746 123.647 Q105.714 123.647 104.024 125.152 Q102.358 126.656 102.358 129.342 Z" fill="#000000" fill-rule="nonzero" fill-opacity="1"></path><path clip-path="url(#clip650)" d="M897.509 12.096 L932.266 12.096 L932.266 18.9825 L905.692 18.9825 L905.692 36.8065 L929.673 36.8065 L929.673 43.6931 L905.692 43.6931 L905.692 72.576 L897.509 72.576 L897.509 12.096 Z" fill="#000000" fill-rule="nonzero" fill-opacity="1"></path><path clip-path="url(#clip650)" d="M957.908 49.7694 Q948.874 49.7694 945.391 51.8354 Q941.907 53.9013 941.907 58.8839 Q941.907 62.8538 944.499 65.2034 Q947.132 67.5124 951.629 67.5124 Q957.827 67.5124 961.554 63.1374 Q965.321 58.7219 965.321 51.4303 L965.321 49.7694 L957.908 49.7694 M972.775 46.6907 L972.775 72.576 L965.321 72.576 L965.321 65.6895 Q962.769 69.8214 958.961 71.8063 Q955.153 73.7508 949.644 73.7508 Q942.676 73.7508 938.545 69.8619 Q934.453 65.9325 934.453 59.3701 Q934.453 51.7138 939.557 47.825 Q944.702 43.9361 954.87 43.9361 L965.321 43.9361 L965.321 43.2069 Q965.321 38.0623 961.918 35.2672 Q958.556 32.4315 952.439 32.4315 Q948.55 32.4315 944.864 33.3632 Q941.178 34.295 937.775 36.1584 L937.775 29.2718 Q941.866 27.692 945.715 26.9223 Q949.563 26.1121 953.209 26.1121 Q963.052 26.1121 967.914 31.2163 Q972.775 36.3204 972.775 46.6907 Z" fill="#000000" fill-rule="nonzero" fill-opacity="1"></path><path clip-path="url(#clip650)" d="M987.844 9.54393 L995.338 9.54393 L995.338 46.7717 L1017.58 27.2059 L1027.1 27.2059 L1003.03 48.4326 L1028.11 72.576 L1018.39 72.576 L995.338 50.4176 L995.338 72.576 L987.844 72.576 L987.844 9.54393 Z" fill="#000000" fill-rule="nonzero" fill-opacity="1"></path><path clip-path="url(#clip650)" d="M1072.02 48.0275 L1072.02 51.6733 L1037.75 51.6733 Q1038.24 59.3701 1042.37 63.421 Q1046.54 67.4314 1053.95 67.4314 Q1058.25 67.4314 1062.26 66.3781 Q1066.31 65.3249 1070.28 63.2184 L1070.28 70.267 Q1066.27 71.9684 1062.06 72.8596 Q1057.84 73.7508 1053.51 73.7508 Q1042.65 73.7508 1036.29 67.4314 Q1029.97 61.1119 1029.97 50.3365 Q1029.97 39.1965 1035.97 32.6746 Q1042 26.1121 1052.21 26.1121 Q1061.37 26.1121 1066.67 32.0264 Q1072.02 37.9003 1072.02 48.0275 M1064.57 45.84 Q1064.49 39.7232 1061.12 36.0774 Q1057.8 32.4315 1052.29 32.4315 Q1046.06 32.4315 1042.29 35.9558 Q1038.56 39.4801 1037.99 45.8805 L1064.57 45.84 Z" fill="#000000" fill-rule="nonzero" fill-opacity="1"></path><path clip-path="url(#clip650)" d="M1110.95 12.096 L1121.97 12.096 L1148.79 62.6918 L1148.79 12.096 L1156.73 12.096 L1156.73 72.576 L1145.71 72.576 L1118.89 21.9802 L1118.89 72.576 L1110.95 72.576 L1110.95 12.096 Z" fill="#000000" fill-rule="nonzero" fill-opacity="1"></path><path clip-path="url(#clip650)" d="M1211.49 48.0275 L1211.49 51.6733 L1177.22 51.6733 Q1177.71 59.3701 1181.84 63.421 Q1186.01 67.4314 1193.43 67.4314 Q1197.72 67.4314 1201.73 66.3781 Q1205.78 65.3249 1209.75 63.2184 L1209.75 70.267 Q1205.74 71.9684 1201.53 72.8596 Q1197.32 73.7508 1192.98 73.7508 Q1182.13 73.7508 1175.77 67.4314 Q1169.45 61.1119 1169.45 50.3365 Q1169.45 39.1965 1175.44 32.6746 Q1181.48 26.1121 1191.69 26.1121 Q1200.84 26.1121 1206.15 32.0264 Q1211.49 37.9003 1211.49 48.0275 M1204.04 45.84 Q1203.96 39.7232 1200.6 36.0774 Q1197.28 32.4315 1191.77 32.4315 Q1185.53 32.4315 1181.76 35.9558 Q1178.03 39.4801 1177.47 45.8805 L1204.04 45.84 Z" fill="#000000" fill-rule="nonzero" fill-opacity="1"></path><path clip-path="url(#clip650)" d="M1219.39 27.2059 L1226.85 27.2059 L1236.16 62.6108 L1245.44 27.2059 L1254.23 27.2059 L1263.55 62.6108 L1272.83 27.2059 L1280.28 27.2059 L1268.41 72.576 L1259.62 72.576 L1249.86 35.3887 L1240.05 72.576 L1231.26 72.576 L1219.39 27.2059 Z" fill="#000000" fill-rule="nonzero" fill-opacity="1"></path><path clip-path="url(#clip650)" d="M1320.5 28.5427 L1320.5 35.5912 Q1317.34 33.9709 1313.94 33.1607 Q1310.54 32.3505 1306.89 32.3505 Q1301.34 32.3505 1298.55 34.0519 Q1295.79 35.7533 1295.79 39.156 Q1295.79 41.7486 1297.78 43.2475 Q1299.76 44.7058 1305.76 46.0426 L1308.31 46.6097 Q1316.25 48.3111 1319.57 51.4303 Q1322.93 54.509 1322.93 60.0587 Q1322.93 66.3781 1317.91 70.0644 Q1312.93 73.7508 1304.18 73.7508 Q1300.53 73.7508 1296.56 73.0216 Q1292.63 72.3329 1288.26 70.9151 L1288.26 63.2184 Q1292.39 65.3654 1296.4 66.4591 Q1300.41 67.5124 1304.34 67.5124 Q1309.61 67.5124 1312.44 65.73 Q1315.28 63.9071 1315.28 60.6258 Q1315.28 57.5877 1313.21 55.9673 Q1311.19 54.3469 1304.26 52.8481 L1301.67 52.2405 Q1294.74 50.7821 1291.66 47.7845 Q1288.58 44.7463 1288.58 39.4801 Q1288.58 33.0797 1293.12 29.5959 Q1297.66 26.1121 1306 26.1121 Q1310.13 26.1121 1313.78 26.7198 Q1317.43 27.3274 1320.5 28.5427 Z" fill="#000000" fill-rule="nonzero" fill-opacity="1"></path><path clip-path="url(#clip650)" d="M1361.5 12.096 L1373.69 12.096 L1389.13 53.2532 L1404.64 12.096 L1416.83 12.096 L1416.83 72.576 L1408.85 72.576 L1408.85 19.4686 L1393.26 60.9499 L1385.04 60.9499 L1369.44 19.4686 L1369.44 72.576 L1361.5 72.576 L1361.5 12.096 Z" fill="#000000" fill-rule="nonzero" fill-opacity="1"></path><path clip-path="url(#clip650)" d="M1453.37 49.7694 Q1444.34 49.7694 1440.86 51.8354 Q1437.37 53.9013 1437.37 58.8839 Q1437.37 62.8538 1439.97 65.2034 Q1442.6 67.5124 1447.1 67.5124 Q1453.29 67.5124 1457.02 63.1374 Q1460.79 58.7219 1460.79 51.4303 L1460.79 49.7694 L1453.37 49.7694 M1468.24 46.6907 L1468.24 72.576 L1460.79 72.576 L1460.79 65.6895 Q1458.24 69.8214 1454.43 71.8063 Q1450.62 73.7508 1445.11 73.7508 Q1438.14 73.7508 1434.01 69.8619 Q1429.92 65.9325 1429.92 59.3701 Q1429.92 51.7138 1435.02 47.825 Q1440.17 43.9361 1450.34 43.9361 L1460.79 43.9361 L1460.79 43.2069 Q1460.79 38.0623 1457.38 35.2672 Q1454.02 32.4315 1447.91 32.4315 Q1444.02 32.4315 1440.33 33.3632 Q1436.64 34.295 1433.24 36.1584 L1433.24 29.2718 Q1437.33 27.692 1441.18 26.9223 Q1445.03 26.1121 1448.67 26.1121 Q1458.52 26.1121 1463.38 31.2163 Q1468.24 36.3204 1468.24 46.6907 Z" fill="#000000" fill-rule="nonzero" fill-opacity="1"></path><path clip-path="url(#clip650)" d="M1490.97 14.324 L1490.97 27.2059 L1506.32 27.2059 L1506.32 32.9987 L1490.97 32.9987 L1490.97 57.6282 Q1490.97 63.1779 1492.47 64.7578 Q1494 66.3376 1498.66 66.3376 L1506.32 66.3376 L1506.32 72.576 L1498.66 72.576 Q1490.03 72.576 1486.75 69.3758 Q1483.47 66.1351 1483.47 57.6282 L1483.47 32.9987 L1478 32.9987 L1478 27.2059 L1483.47 27.2059 L1483.47 14.324 L1490.97 14.324 Z" fill="#000000" fill-rule="nonzero" fill-opacity="1"></path><path clip-path="url(#clip650)" d="M1542.41 34.1734 Q1541.16 33.4443 1539.66 33.1202 Q1538.2 32.7556 1536.42 32.7556 Q1530.1 32.7556 1526.7 36.8875 Q1523.33 40.9789 1523.33 48.6757 L1523.33 72.576 L1515.84 72.576 L1515.84 27.2059 L1523.33 27.2059 L1523.33 34.2544 Q1525.68 30.1225 1529.45 28.1376 Q1533.22 26.1121 1538.6 26.1121 Q1539.37 26.1121 1540.31 26.2337 Q1541.24 26.3147 1542.37 26.5172 L1542.41 34.1734 Z" fill="#000000" fill-rule="nonzero" fill-opacity="1"></path><path clip-path="url(#clip650)" d="M1550.23 27.2059 L1557.68 27.2059 L1557.68 72.576 L1550.23 72.576 L1550.23 27.2059 M1550.23 9.54393 L1557.68 9.54393 L1557.68 18.9825 L1550.23 18.9825 L1550.23 9.54393 Z" fill="#000000" fill-rule="nonzero" fill-opacity="1"></path><path clip-path="url(#clip650)" d="M1610.99 27.2059 L1594.59 49.2833 L1611.85 72.576 L1603.05 72.576 L1589.85 54.752 L1576.64 72.576 L1567.85 72.576 L1585.47 48.8377 L1569.35 27.2059 L1578.14 27.2059 L1590.17 43.369 L1602.2 27.2059 L1610.99 27.2059 Z" fill="#000000" fill-rule="nonzero" fill-opacity="1"></path><polyline clip-path="url(#clip652)" style="stroke:#009af9; stroke-linecap:round; stroke-linejoin:round; stroke-width:4; stroke-opacity:1; fill:none" points="218.754,162.047 225.683,198.128 232.612,233.14 239.541,267.118 246.471,300.096 253.4,332.104 260.329,363.174 267.258,393.333 274.188,422.609 281.117,451.03 288.046,478.619 294.975,505.403 301.905,531.404 308.834,556.647 315.763,581.153 322.692,604.944 329.622,628.043 336.551,650.468 343.48,672.242 350.409,693.382 357.339,713.909 364.268,733.841 371.197,753.196 378.126,771.991 385.056,790.245 391.985,807.973 398.914,825.191 405.843,841.916 412.773,858.163 419.702,873.946 426.631,889.28 433.561,904.178 440.49,918.655 447.419,932.724 454.348,946.396 461.278,959.684 468.207,972.601 475.136,985.157 482.065,997.364 488.995,1009.23 495.924,1020.77 502.853,1032 509.782,1042.91 516.712,1053.52 523.641,1063.85 530.57,1073.89 537.499,1083.66 544.429,1093.17 551.358,1102.42 558.287,1111.42 565.216,1120.18 572.146,1128.7 579.075,1137 586.004,1145.07 592.933,1152.94 599.863,1160.59 606.792,1168.04 613.721,1175.29 620.65,1182.35 627.58,1189.23 634.509,1195.92 641.438,1202.44 648.367,1208.79 655.297,1214.98 662.226,1221 669.155,1226.87 676.084,1232.58 683.014,1238.15 689.943,1243.57 696.872,1248.85 703.801,1253.99 710.731,1259.01 717.66,1263.89 724.589,1268.64 731.518,1273.28 738.448,1277.79 745.377,1282.19 752.306,1286.48 759.235,1290.65 766.165,1294.72 773.094,1298.69 780.023,1302.55 786.952,1306.31 793.882,1309.98 800.811,1313.55 807.74,1317.03 814.669,1320.43 821.599,1323.73 828.528,1326.95 835.457,1330.09 842.386,1333.15 849.316,1336.13 856.245,1339.04 863.174,1341.87 870.103,1344.62 877.033,1347.31 883.962,1349.93 890.891,1352.48 897.821,1354.96 904.75,1357.38 911.679,1359.74 918.608,1362.04 925.538,1364.28 932.467,1366.47 939.396,1368.59 946.325,1370.67 953.255,1372.68 960.184,1374.65 967.113,1376.57 974.042,1378.44 980.972,1380.25 987.901,1382.03 994.83,1383.75 1001.76,1385.44 1008.69,1387.07 1015.62,1388.67 1022.55,1390.23 1029.48,1391.74 1036.41,1393.22 1043.33,1394.66 1050.26,1396.06 1057.19,1397.42 1064.12,1398.75 1071.05,1400.04 1077.98,1401.31 1084.91,1402.53 1091.84,1403.73 1098.77,1404.9 1105.7,1406.03 1112.63,1407.14 1119.56,1408.21 1126.49,1409.26 1133.42,1410.28 1140.34,1411.28 1147.27,1412.25 1154.2,1413.19 1161.13,1414.11 1168.06,1415.01 1174.99,1415.88 1181.92,1416.73 1188.85,1417.55 1195.78,1418.36 1202.71,1419.14 1209.64,1419.91 1216.57,1420.65 1223.5,1421.37 1230.42,1422.08 1237.35,1422.77 1244.28,1423.43 1251.21,1424.08 1258.14,1424.72 1265.07,1425.34 1272,1425.94 1278.93,1426.52 1285.86,1427.09 1292.79,1427.65 1299.72,1428.19 1306.65,1428.71 1313.58,1429.22 1320.5,1429.72 1327.43,1430.21 1334.36,1430.68 1341.29,1431.14 1348.22,1431.59 1355.15,1432.02 1362.08,1432.45 1369.01,1432.86 1375.94,1433.26 1382.87,1433.65 1389.8,1434.03 1396.73,1434.4 1403.66,1434.76 1410.59,1435.12 1417.51,1435.46 1424.44,1435.79 1431.37,1436.11 1438.3,1436.43 1445.23,1436.74 1452.16,1437.04 1459.09,1437.33 1466.02,1437.61 1472.95,1437.89 1479.88,1438.15 1486.81,1438.41 1493.74,1438.67 1500.67,1438.92 1507.59,1439.16 1514.52,1439.39 1521.45,1439.62 1528.38,1439.84 1535.31,1440.06 1542.24,1440.27 1549.17,1440.47 1556.1,1440.67 1563.03,1440.87 1569.96,1441.05 1576.89,1441.24 1583.82,1441.42 1590.75,1441.59 1597.68,1441.76 1604.6,1441.92 1611.53,1442.08 1618.46,1442.24 1625.39,1442.39 1632.32,1442.54 1639.25,1442.68 1646.18,1442.82 1653.11,1442.96 1660.04,1443.09 1666.97,1443.22 1673.9,1443.35 1680.83,1443.47 1687.76,1443.59 1694.68,1443.7 1701.61,1443.82 1708.54,1443.93 1715.47,1444.03 1722.4,1444.14 1729.33,1444.24 1736.26,1444.33 1743.19,1444.43 1750.12,1444.52 1757.05,1444.61 1763.98,1444.7 1770.91,1444.79 1777.84,1444.87 1784.76,1444.95 1791.69,1445.03 1798.62,1445.11 1805.55,1445.18 1812.48,1445.25 1819.41,1445.33 1826.34,1445.39 1833.27,1445.46 1840.2,1445.53 1847.13,1445.59 1854.06,1445.65 1860.99,1445.71 1867.92,1445.77 1874.85,1445.83 1881.77,1445.88 1888.7,1445.94 1895.63,1445.99 1902.56,1446.04 1909.49,1446.09 1916.42,1446.14 1923.35,1446.18 1930.28,1446.23 1937.21,1446.27 1944.14,1446.32 1951.07,1446.36 1958,1446.4 1964.93,1446.44 1971.85,1446.48 1978.78,1446.52 1985.71,1446.55 1992.64,1446.59 1999.57,1446.62 2006.5,1446.66 2013.43,1446.69 2020.36,1446.72 2027.29,1446.75 2034.22,1446.78 2041.15,1446.81 2048.08,1446.84 2055.01,1446.87 2061.94,1446.9 2068.86,1446.92 2075.79,1446.95 2082.72,1446.97 2089.65,1447 2096.58,1447.02 2103.51,1447.05 2110.44,1447.07 2117.37,1447.09 2124.3,1447.11 2131.23,1447.13 2138.16,1447.15 2145.09,1447.17 2152.02,1447.19 2158.94,1447.21 2165.87,1447.23 2172.8,1447.24 2179.73,1447.26 2186.66,1447.28 2193.59,1447.29 2200.52,1447.31 2207.45,1447.33 2214.38,1447.34 2221.31,1447.35 2228.24,1447.37 2235.17,1447.38 2242.1,1447.4 2249.02,1447.41 2255.95,1447.42 2262.88,1447.43 2269.81,1447.45 2276.74,1447.46 2283.67,1447.47 2290.6,1447.48 "></polyline>
<polyline clip-path="url(#clip652)" style="stroke:#e26f46; stroke-linecap:round; stroke-linejoin:round; stroke-width:4; stroke-opacity:1; fill:none" points="218.754,1142.72 225.683,1149.36 232.612,1155.85 239.541,1162.21 246.471,1168.44 253.4,1174.53 260.329,1180.5 267.258,1186.35 274.188,1192.08 281.117,1197.69 288.046,1203.18 294.975,1208.56 301.905,1213.83 308.834,1218.99 315.763,1224.05 322.692,1229 329.622,1233.85 336.551,1238.6 343.48,1243.25 350.409,1247.81 357.339,1252.27 364.268,1256.63 371.197,1260.91 378.126,1265.1 385.056,1269.19 391.985,1273.21 398.914,1277.14 405.843,1280.98 412.773,1284.75 419.702,1288.44 426.631,1292.05 433.561,1295.58 440.49,1299.04 447.419,1302.43 454.348,1305.74 461.278,1308.98 468.207,1312.16 475.136,1315.27 482.065,1318.31 488.995,1321.28 495.924,1324.2 502.853,1327.05 509.782,1329.84 516.712,1332.57 523.641,1335.24 530.57,1337.85 537.499,1340.41 544.429,1342.91 551.358,1345.36 558.287,1347.76 565.216,1350.1 572.146,1352.4 579.075,1354.64 586.004,1356.83 592.933,1358.98 599.863,1361.08 606.792,1363.13 613.721,1365.14 620.65,1367.11 627.58,1369.03 634.509,1370.91 641.438,1372.74 648.367,1374.54 655.297,1376.3 662.226,1378.01 669.155,1379.69 676.084,1381.33 683.014,1382.94 689.943,1384.51 696.872,1386.04 703.801,1387.54 710.731,1389.01 717.66,1390.44 724.589,1391.84 731.518,1393.2 738.448,1394.54 745.377,1395.85 752.306,1397.12 759.235,1398.37 766.165,1399.59 773.094,1400.78 780.023,1401.94 786.952,1403.08 793.882,1404.18 800.811,1405.27 807.74,1406.33 814.669,1407.36 821.599,1408.37 828.528,1409.35 835.457,1410.32 842.386,1411.26 849.316,1412.17 856.245,1413.07 863.174,1413.94 870.103,1414.8 877.033,1415.63 883.962,1416.45 890.891,1417.24 897.821,1418.02 904.75,1418.77 911.679,1419.51 918.608,1420.23 925.538,1420.93 932.467,1421.62 939.396,1422.29 946.325,1422.94 953.255,1423.58 960.184,1424.2 967.113,1424.81 974.042,1425.4 980.972,1425.98 987.901,1426.54 994.83,1427.09 1001.76,1427.63 1008.69,1428.15 1015.62,1428.66 1022.55,1429.16 1029.48,1429.64 1036.41,1430.11 1043.33,1430.57 1050.26,1431.02 1057.19,1431.46 1064.12,1431.89 1071.05,1432.3 1077.98,1432.71 1084.91,1433.11 1091.84,1433.49 1098.77,1433.87 1105.7,1434.23 1112.63,1434.59 1119.56,1434.94 1126.49,1435.28 1133.42,1435.61 1140.34,1435.93 1147.27,1436.25 1154.2,1436.55 1161.13,1436.85 1168.06,1437.14 1174.99,1437.42 1181.92,1437.7 1188.85,1437.97 1195.78,1438.23 1202.71,1438.48 1209.64,1438.73 1216.57,1438.98 1223.5,1439.21 1230.42,1439.44 1237.35,1439.66 1244.28,1439.88 1251.21,1440.09 1258.14,1440.3 1265.07,1440.5 1272,1440.7 1278.93,1440.89 1285.86,1441.08 1292.79,1441.26 1299.72,1441.43 1306.65,1441.61 1313.58,1441.77 1320.5,1441.94 1327.43,1442.09 1334.36,1442.25 1341.29,1442.4 1348.22,1442.55 1355.15,1442.69 1362.08,1442.83 1369.01,1442.96 1375.94,1443.09 1382.87,1443.22 1389.8,1443.35 1396.73,1443.47 1403.66,1443.59 1410.59,1443.7 1417.51,1443.81 1424.44,1443.92 1431.37,1444.03 1438.3,1444.13 1445.23,1444.23 1452.16,1444.33 1459.09,1444.43 1466.02,1444.52 1472.95,1444.61 1479.88,1444.7 1486.81,1444.78 1493.74,1444.87 1500.67,1444.95 1507.59,1445.03 1514.52,1445.1 1521.45,1445.18 1528.38,1445.25 1535.31,1445.32 1542.24,1445.39 1549.17,1445.46 1556.1,1445.52 1563.03,1445.59 1569.96,1445.65 1576.89,1445.71 1583.82,1445.77 1590.75,1445.82 1597.68,1445.88 1604.6,1445.93 1611.53,1445.98 1618.46,1446.04 1625.39,1446.09 1632.32,1446.13 1639.25,1446.18 1646.18,1446.23 1653.11,1446.27 1660.04,1446.31 1666.97,1446.36 1673.9,1446.4 1680.83,1446.44 1687.76,1446.48 1694.68,1446.51 1701.61,1446.55 1708.54,1446.59 1715.47,1446.62 1722.4,1446.66 1729.33,1446.69 1736.26,1446.72 1743.19,1446.75 1750.12,1446.78 1757.05,1446.81 1763.98,1446.84 1770.91,1446.87 1777.84,1446.9 1784.76,1446.92 1791.69,1446.95 1798.62,1446.97 1805.55,1447 1812.48,1447.02 1819.41,1447.04 1826.34,1447.07 1833.27,1447.09 1840.2,1447.11 1847.13,1447.13 1854.06,1447.15 1860.99,1447.17 1867.92,1447.19 1874.85,1447.21 1881.77,1447.23 1888.7,1447.24 1895.63,1447.26 1902.56,1447.28 1909.49,1447.29 1916.42,1447.31 1923.35,1447.32 1930.28,1447.34 1937.21,1447.35 1944.14,1447.37 1951.07,1447.38 1958,1447.4 1964.93,1447.41 1971.85,1447.42 1978.78,1447.43 1985.71,1447.45 1992.64,1447.46 1999.57,1447.47 2006.5,1447.48 2013.43,1447.49 2020.36,1447.5 2027.29,1447.51 2034.22,1447.52 2041.15,1447.53 2048.08,1447.54 2055.01,1447.55 2061.94,1447.56 2068.86,1447.57 2075.79,1447.57 2082.72,1447.58 2089.65,1447.59 2096.58,1447.6 2103.51,1447.61 2110.44,1447.61 2117.37,1447.62 2124.3,1447.63 2131.23,1447.63 2138.16,1447.64 2145.09,1447.65 2152.02,1447.65 2158.94,1447.66 2165.87,1447.66 2172.8,1447.67 2179.73,1447.68 2186.66,1447.68 2193.59,1447.69 2200.52,1447.69 2207.45,1447.7 2214.38,1447.7 2221.31,1447.71 2228.24,1447.71 2235.17,1447.72 2242.1,1447.72 2249.02,1447.72 2255.95,1447.73 2262.88,1447.73 2269.81,1447.74 2276.74,1447.74 2283.67,1447.74 2290.6,1447.75 "></polyline>
<polyline clip-path="url(#clip652)" style="stroke:#3da44d; stroke-linecap:round; stroke-linejoin:round; stroke-width:4; stroke-opacity:1; fill:none" points="218.754,1378.42 225.683,1379.75 232.612,1381.05 239.541,1382.33 246.471,1383.58 253.4,1384.81 260.329,1386.02 267.258,1387.21 274.188,1388.37 281.117,1389.51 288.046,1390.63 294.975,1391.73 301.905,1392.82 308.834,1393.88 315.763,1394.92 322.692,1395.95 329.622,1396.95 336.551,1397.94 343.48,1398.91 350.409,1399.87 357.339,1400.8 364.268,1401.72 371.197,1402.63 378.126,1403.52 385.056,1404.39 391.985,1405.25 398.914,1406.1 405.843,1406.92 412.773,1407.74 419.702,1408.54 426.631,1409.33 433.561,1410.1 440.49,1410.86 447.419,1411.61 454.348,1412.34 461.278,1413.06 468.207,1413.77 475.136,1414.47 482.065,1415.15 488.995,1415.83 495.924,1416.49 502.853,1417.14 509.782,1417.78 516.712,1418.4 523.641,1419.02 530.57,1419.62 537.499,1420.22 544.429,1420.8 551.358,1421.38 558.287,1421.94 565.216,1422.49 572.146,1423.04 579.075,1423.57 586.004,1424.09 592.933,1424.61 599.863,1425.11 606.792,1425.61 613.721,1426.09 620.65,1426.57 627.58,1427.04 634.509,1427.5 641.438,1427.95 648.367,1428.39 655.297,1428.83 662.226,1429.25 669.155,1429.67 676.084,1430.08 683.014,1430.48 689.943,1430.88 696.872,1431.26 703.801,1431.64 710.731,1432.01 717.66,1432.38 724.589,1432.73 731.518,1433.08 738.448,1433.42 745.377,1433.76 752.306,1434.09 759.235,1434.41 766.165,1434.72 773.094,1435.03 780.023,1435.34 786.952,1435.63 793.882,1435.92 800.811,1436.21 807.74,1436.48 814.669,1436.76 821.599,1437.02 828.528,1437.28 835.457,1437.54 842.386,1437.79 849.316,1438.03 856.245,1438.27 863.174,1438.5 870.103,1438.73 877.033,1438.95 883.962,1439.17 890.891,1439.38 897.821,1439.59 904.75,1439.8 911.679,1440 918.608,1440.19 925.538,1440.38 932.467,1440.57 939.396,1440.75 946.325,1440.93 953.255,1441.1 960.184,1441.27 967.113,1441.44 974.042,1441.6 980.972,1441.76 987.901,1441.91 994.83,1442.06 1001.76,1442.21 1008.69,1442.35 1015.62,1442.49 1022.55,1442.63 1029.48,1442.76 1036.41,1442.89 1043.33,1443.02 1050.26,1443.15 1057.19,1443.27 1064.12,1443.39 1071.05,1443.5 1077.98,1443.61 1084.91,1443.72 1091.84,1443.83 1098.77,1443.94 1105.7,1444.04 1112.63,1444.14 1119.56,1444.24 1126.49,1444.33 1133.42,1444.42 1140.34,1444.51 1147.27,1444.6 1154.2,1444.69 1161.13,1444.77 1168.06,1444.85 1174.99,1444.93 1181.92,1445.01 1188.85,1445.08 1195.78,1445.16 1202.71,1445.23 1209.64,1445.3 1216.57,1445.37 1223.5,1445.43 1230.42,1445.5 1237.35,1445.56 1244.28,1445.62 1251.21,1445.68 1258.14,1445.74 1265.07,1445.8 1272,1445.85 1278.93,1445.9 1285.86,1445.96 1292.79,1446.01 1299.72,1446.06 1306.65,1446.11 1313.58,1446.15 1320.5,1446.2 1327.43,1446.24 1334.36,1446.29 1341.29,1446.33 1348.22,1446.37 1355.15,1446.41 1362.08,1446.45 1369.01,1446.49 1375.94,1446.53 1382.87,1446.56 1389.8,1446.6 1396.73,1446.63 1403.66,1446.66 1410.59,1446.7 1417.51,1446.73 1424.44,1446.76 1431.37,1446.79 1438.3,1446.82 1445.23,1446.85 1452.16,1446.88 1459.09,1446.9 1466.02,1446.93 1472.95,1446.95 1479.88,1446.98 1486.81,1447 1493.74,1447.03 1500.67,1447.05 1507.59,1447.07 1514.52,1447.09 1521.45,1447.11 1528.38,1447.13 1535.31,1447.15 1542.24,1447.17 1549.17,1447.19 1556.1,1447.21 1563.03,1447.23 1569.96,1447.25 1576.89,1447.26 1583.82,1447.28 1590.75,1447.3 1597.68,1447.31 1604.6,1447.33 1611.53,1447.34 1618.46,1447.36 1625.39,1447.37 1632.32,1447.38 1639.25,1447.4 1646.18,1447.41 1653.11,1447.42 1660.04,1447.44 1666.97,1447.45 1673.9,1447.46 1680.83,1447.47 1687.76,1447.48 1694.68,1447.49 1701.61,1447.5 1708.54,1447.51 1715.47,1447.52 1722.4,1447.53 1729.33,1447.54 1736.26,1447.55 1743.19,1447.56 1750.12,1447.57 1757.05,1447.58 1763.98,1447.58 1770.91,1447.59 1777.84,1447.6 1784.76,1447.61 1791.69,1447.61 1798.62,1447.62 1805.55,1447.63 1812.48,1447.64 1819.41,1447.64 1826.34,1447.65 1833.27,1447.65 1840.2,1447.66 1847.13,1447.67 1854.06,1447.67 1860.99,1447.68 1867.92,1447.68 1874.85,1447.69 1881.77,1447.69 1888.7,1447.7 1895.63,1447.7 1902.56,1447.71 1909.49,1447.71 1916.42,1447.72 1923.35,1447.72 1930.28,1447.72 1937.21,1447.73 1944.14,1447.73 1951.07,1447.74 1958,1447.74 1964.93,1447.74 1971.85,1447.75 1978.78,1447.75 1985.71,1447.75 1992.64,1447.76 1999.57,1447.76 2006.5,1447.76 2013.43,1447.77 2020.36,1447.77 2027.29,1447.77 2034.22,1447.78 2041.15,1447.78 2048.08,1447.78 2055.01,1447.78 2061.94,1447.79 2068.86,1447.79 2075.79,1447.79 2082.72,1447.79 2089.65,1447.8 2096.58,1447.8 2103.51,1447.8 2110.44,1447.8 2117.37,1447.8 2124.3,1447.81 2131.23,1447.81 2138.16,1447.81 2145.09,1447.81 2152.02,1447.81 2158.94,1447.81 2165.87,1447.82 2172.8,1447.82 2179.73,1447.82 2186.66,1447.82 2193.59,1447.82 2200.52,1447.82 2207.45,1447.83 2214.38,1447.83 2221.31,1447.83 2228.24,1447.83 2235.17,1447.83 2242.1,1447.83 2249.02,1447.83 2255.95,1447.83 2262.88,1447.83 2269.81,1447.84 2276.74,1447.84 2283.67,1447.84 2290.6,1447.84 "></polyline>
<polyline clip-path="url(#clip652)" style="stroke:#c271d2; stroke-linecap:round; stroke-linejoin:round; stroke-width:4; stroke-opacity:1; fill:none" points="218.754,1432.57 225.683,1432.85 232.612,1433.12 239.541,1433.38 246.471,1433.64 253.4,1433.9 260.329,1434.15 267.258,1434.39 274.188,1434.63 281.117,1434.87 288.046,1435.1 294.975,1435.33 301.905,1435.56 308.834,1435.78 315.763,1436 322.692,1436.21 329.622,1436.42 336.551,1436.63 343.48,1436.83 350.409,1437.03 357.339,1437.23 364.268,1437.42 371.197,1437.61 378.126,1437.8 385.056,1437.98 391.985,1438.16 398.914,1438.34 405.843,1438.52 412.773,1438.69 419.702,1438.86 426.631,1439.02 433.561,1439.19 440.49,1439.35 447.419,1439.51 454.348,1439.67 461.278,1439.82 468.207,1439.97 475.136,1440.12 482.065,1440.27 488.995,1440.41 495.924,1440.56 502.853,1440.7 509.782,1440.84 516.712,1440.97 523.641,1441.11 530.57,1441.24 537.499,1441.37 544.429,1441.49 551.358,1441.62 558.287,1441.74 565.216,1441.86 572.146,1441.98 579.075,1442.1 586.004,1442.22 592.933,1442.33 599.863,1442.44 606.792,1442.55 613.721,1442.66 620.65,1442.77 627.58,1442.87 634.509,1442.98 641.438,1443.08 648.367,1443.18 655.297,1443.28 662.226,1443.37 669.155,1443.47 676.084,1443.56 683.014,1443.65 689.943,1443.74 696.872,1443.83 703.801,1443.92 710.731,1444 717.66,1444.09 724.589,1444.17 731.518,1444.25 738.448,1444.33 745.377,1444.41 752.306,1444.48 759.235,1444.56 766.165,1444.63 773.094,1444.71 780.023,1444.78 786.952,1444.85 793.882,1444.91 800.811,1444.98 807.74,1445.05 814.669,1445.11 821.599,1445.18 828.528,1445.24 835.457,1445.3 842.386,1445.36 849.316,1445.42 856.245,1445.47 863.174,1445.53 870.103,1445.59 877.033,1445.64 883.962,1445.69 890.891,1445.74 897.821,1445.79 904.75,1445.84 911.679,1445.89 918.608,1445.94 925.538,1445.99 932.467,1446.03 939.396,1446.08 946.325,1446.12 953.255,1446.16 960.184,1446.21 967.113,1446.25 974.042,1446.29 980.972,1446.33 987.901,1446.36 994.83,1446.4 1001.76,1446.44 1008.69,1446.47 1015.62,1446.51 1022.55,1446.54 1029.48,1446.58 1036.41,1446.61 1043.33,1446.64 1050.26,1446.67 1057.19,1446.7 1064.12,1446.73 1071.05,1446.76 1077.98,1446.79 1084.91,1446.82 1091.84,1446.84 1098.77,1446.87 1105.7,1446.9 1112.63,1446.92 1119.56,1446.95 1126.49,1446.97 1133.42,1446.99 1140.34,1447.02 1147.27,1447.04 1154.2,1447.06 1161.13,1447.08 1168.06,1447.1 1174.99,1447.12 1181.92,1447.14 1188.85,1447.16 1195.78,1447.18 1202.71,1447.2 1209.64,1447.21 1216.57,1447.23 1223.5,1447.25 1230.42,1447.27 1237.35,1447.28 1244.28,1447.3 1251.21,1447.31 1258.14,1447.33 1265.07,1447.34 1272,1447.36 1278.93,1447.37 1285.86,1447.38 1292.79,1447.4 1299.72,1447.41 1306.65,1447.42 1313.58,1447.43 1320.5,1447.45 1327.43,1447.46 1334.36,1447.47 1341.29,1447.48 1348.22,1447.49 1355.15,1447.5 1362.08,1447.51 1369.01,1447.52 1375.94,1447.53 1382.87,1447.54 1389.8,1447.55 1396.73,1447.56 1403.66,1447.56 1410.59,1447.57 1417.51,1447.58 1424.44,1447.59 1431.37,1447.6 1438.3,1447.6 1445.23,1447.61 1452.16,1447.62 1459.09,1447.63 1466.02,1447.63 1472.95,1447.64 1479.88,1447.65 1486.81,1447.65 1493.74,1447.66 1500.67,1447.66 1507.59,1447.67 1514.52,1447.67 1521.45,1447.68 1528.38,1447.69 1535.31,1447.69 1542.24,1447.7 1549.17,1447.7 1556.1,1447.71 1563.03,1447.71 1569.96,1447.71 1576.89,1447.72 1583.82,1447.72 1590.75,1447.73 1597.68,1447.73 1604.6,1447.73 1611.53,1447.74 1618.46,1447.74 1625.39,1447.75 1632.32,1447.75 1639.25,1447.75 1646.18,1447.76 1653.11,1447.76 1660.04,1447.76 1666.97,1447.77 1673.9,1447.77 1680.83,1447.77 1687.76,1447.77 1694.68,1447.78 1701.61,1447.78 1708.54,1447.78 1715.47,1447.78 1722.4,1447.79 1729.33,1447.79 1736.26,1447.79 1743.19,1447.79 1750.12,1447.8 1757.05,1447.8 1763.98,1447.8 1770.91,1447.8 1777.84,1447.8 1784.76,1447.81 1791.69,1447.81 1798.62,1447.81 1805.55,1447.81 1812.48,1447.81 1819.41,1447.82 1826.34,1447.82 1833.27,1447.82 1840.2,1447.82 1847.13,1447.82 1854.06,1447.82 1860.99,1447.82 1867.92,1447.83 1874.85,1447.83 1881.77,1447.83 1888.7,1447.83 1895.63,1447.83 1902.56,1447.83 1909.49,1447.83 1916.42,1447.83 1923.35,1447.84 1930.28,1447.84 1937.21,1447.84 1944.14,1447.84 1951.07,1447.84 1958,1447.84 1964.93,1447.84 1971.85,1447.84 1978.78,1447.84 1985.71,1447.84 1992.64,1447.85 1999.57,1447.85 2006.5,1447.85 2013.43,1447.85 2020.36,1447.85 2027.29,1447.85 2034.22,1447.85 2041.15,1447.85 2048.08,1447.85 2055.01,1447.85 2061.94,1447.85 2068.86,1447.85 2075.79,1447.85 2082.72,1447.85 2089.65,1447.85 2096.58,1447.86 2103.51,1447.86 2110.44,1447.86 2117.37,1447.86 2124.3,1447.86 2131.23,1447.86 2138.16,1447.86 2145.09,1447.86 2152.02,1447.86 2158.94,1447.86 2165.87,1447.86 2172.8,1447.86 2179.73,1447.86 2186.66,1447.86 2193.59,1447.86 2200.52,1447.86 2207.45,1447.86 2214.38,1447.86 2221.31,1447.86 2228.24,1447.86 2235.17,1447.86 2242.1,1447.86 2249.02,1447.86 2255.95,1447.86 2262.88,1447.86 2269.81,1447.87 2276.74,1447.87 2283.67,1447.87 2290.6,1447.87 "></polyline>
<polyline clip-path="url(#clip652)" style="stroke:#ac8d18; stroke-linecap:round; stroke-linejoin:round; stroke-width:4; stroke-opacity:1; fill:none" points="218.754,1444.69 225.683,1444.75 232.612,1444.8 239.541,1444.86 246.471,1444.91 253.4,1444.96 260.329,1445.01 267.258,1445.06 274.188,1445.11 281.117,1445.16 288.046,1445.2 294.975,1445.25 301.905,1445.29 308.834,1445.34 315.763,1445.38 322.692,1445.43 329.622,1445.47 336.551,1445.51 343.48,1445.55 350.409,1445.59 357.339,1445.63 364.268,1445.67 371.197,1445.71 378.126,1445.75 385.056,1445.79 391.985,1445.82 398.914,1445.86 405.843,1445.89 412.773,1445.93 419.702,1445.96 426.631,1446 433.561,1446.03 440.49,1446.06 447.419,1446.1 454.348,1446.13 461.278,1446.16 468.207,1446.19 475.136,1446.22 482.065,1446.25 488.995,1446.28 495.924,1446.31 502.853,1446.34 509.782,1446.37 516.712,1446.39 523.641,1446.42 530.57,1446.45 537.499,1446.48 544.429,1446.5 551.358,1446.53 558.287,1446.55 565.216,1446.58 572.146,1446.6 579.075,1446.63 586.004,1446.65 592.933,1446.67 599.863,1446.7 606.792,1446.72 613.721,1446.74 620.65,1446.76 627.58,1446.79 634.509,1446.81 641.438,1446.83 648.367,1446.85 655.297,1446.87 662.226,1446.89 669.155,1446.91 676.084,1446.93 683.014,1446.95 689.943,1446.97 696.872,1446.99 703.801,1447 710.731,1447.02 717.66,1447.04 724.589,1447.06 731.518,1447.07 738.448,1447.09 745.377,1447.11 752.306,1447.12 759.235,1447.14 766.165,1447.16 773.094,1447.17 780.023,1447.19 786.952,1447.2 793.882,1447.22 800.811,1447.23 807.74,1447.24 814.669,1447.26 821.599,1447.27 828.528,1447.29 835.457,1447.3 842.386,1447.31 849.316,1447.32 856.245,1447.34 863.174,1447.35 870.103,1447.36 877.033,1447.37 883.962,1447.38 890.891,1447.39 897.821,1447.41 904.75,1447.42 911.679,1447.43 918.608,1447.44 925.538,1447.45 932.467,1447.46 939.396,1447.47 946.325,1447.48 953.255,1447.49 960.184,1447.5 967.113,1447.51 974.042,1447.51 980.972,1447.52 987.901,1447.53 994.83,1447.54 1001.76,1447.55 1008.69,1447.56 1015.62,1447.56 1022.55,1447.57 1029.48,1447.58 1036.41,1447.59 1043.33,1447.59 1050.26,1447.6 1057.19,1447.61 1064.12,1447.61 1071.05,1447.62 1077.98,1447.63 1084.91,1447.63 1091.84,1447.64 1098.77,1447.64 1105.7,1447.65 1112.63,1447.66 1119.56,1447.66 1126.49,1447.67 1133.42,1447.67 1140.34,1447.68 1147.27,1447.68 1154.2,1447.69 1161.13,1447.69 1168.06,1447.7 1174.99,1447.7 1181.92,1447.71 1188.85,1447.71 1195.78,1447.72 1202.71,1447.72 1209.64,1447.72 1216.57,1447.73 1223.5,1447.73 1230.42,1447.73 1237.35,1447.74 1244.28,1447.74 1251.21,1447.75 1258.14,1447.75 1265.07,1447.75 1272,1447.76 1278.93,1447.76 1285.86,1447.76 1292.79,1447.76 1299.72,1447.77 1306.65,1447.77 1313.58,1447.77 1320.5,1447.78 1327.43,1447.78 1334.36,1447.78 1341.29,1447.78 1348.22,1447.79 1355.15,1447.79 1362.08,1447.79 1369.01,1447.79 1375.94,1447.8 1382.87,1447.8 1389.8,1447.8 1396.73,1447.8 1403.66,1447.8 1410.59,1447.81 1417.51,1447.81 1424.44,1447.81 1431.37,1447.81 1438.3,1447.81 1445.23,1447.81 1452.16,1447.82 1459.09,1447.82 1466.02,1447.82 1472.95,1447.82 1479.88,1447.82 1486.81,1447.82 1493.74,1447.83 1500.67,1447.83 1507.59,1447.83 1514.52,1447.83 1521.45,1447.83 1528.38,1447.83 1535.31,1447.83 1542.24,1447.83 1549.17,1447.83 1556.1,1447.84 1563.03,1447.84 1569.96,1447.84 1576.89,1447.84 1583.82,1447.84 1590.75,1447.84 1597.68,1447.84 1604.6,1447.84 1611.53,1447.84 1618.46,1447.84 1625.39,1447.85 1632.32,1447.85 1639.25,1447.85 1646.18,1447.85 1653.11,1447.85 1660.04,1447.85 1666.97,1447.85 1673.9,1447.85 1680.83,1447.85 1687.76,1447.85 1694.68,1447.85 1701.61,1447.85 1708.54,1447.85 1715.47,1447.85 1722.4,1447.85 1729.33,1447.86 1736.26,1447.86 1743.19,1447.86 1750.12,1447.86 1757.05,1447.86 1763.98,1447.86 1770.91,1447.86 1777.84,1447.86 1784.76,1447.86 1791.69,1447.86 1798.62,1447.86 1805.55,1447.86 1812.48,1447.86 1819.41,1447.86 1826.34,1447.86 1833.27,1447.86 1840.2,1447.86 1847.13,1447.86 1854.06,1447.86 1860.99,1447.86 1867.92,1447.86 1874.85,1447.86 1881.77,1447.86 1888.7,1447.86 1895.63,1447.87 1902.56,1447.87 1909.49,1447.87 1916.42,1447.87 1923.35,1447.87 1930.28,1447.87 1937.21,1447.87 1944.14,1447.87 1951.07,1447.87 1958,1447.87 1964.93,1447.87 1971.85,1447.87 1978.78,1447.87 1985.71,1447.87 1992.64,1447.87 1999.57,1447.87 2006.5,1447.87 2013.43,1447.87 2020.36,1447.87 2027.29,1447.87 2034.22,1447.87 2041.15,1447.87 2048.08,1447.87 2055.01,1447.87 2061.94,1447.87 2068.86,1447.87 2075.79,1447.87 2082.72,1447.87 2089.65,1447.87 2096.58,1447.87 2103.51,1447.87 2110.44,1447.87 2117.37,1447.87 2124.3,1447.87 2131.23,1447.87 2138.16,1447.87 2145.09,1447.87 2152.02,1447.87 2158.94,1447.87 2165.87,1447.87 2172.8,1447.87 2179.73,1447.87 2186.66,1447.87 2193.59,1447.87 2200.52,1447.87 2207.45,1447.87 2214.38,1447.87 2221.31,1447.87 2228.24,1447.87 2235.17,1447.87 2242.1,1447.87 2249.02,1447.87 2255.95,1447.87 2262.88,1447.87 2269.81,1447.87 2276.74,1447.87 2283.67,1447.87 2290.6,1447.87 "></polyline>
<path clip-path="url(#clip650)" d="M1885.42 479.945 L2279.55 479.945 L2279.55 168.905 L1885.42 168.905  Z" fill="#ffffff" fill-rule="evenodd" fill-opacity="1"></path>
<polyline clip-path="url(#clip650)" style="stroke:#000000; stroke-linecap:round; stroke-linejoin:round; stroke-width:4; stroke-opacity:1; fill:none" points="1885.42,479.945 2279.55,479.945 2279.55,168.905 1885.42,168.905 1885.42,479.945 "></polyline>
<polyline clip-path="url(#clip650)" style="stroke:#009af9; stroke-linecap:round; stroke-linejoin:round; stroke-width:4; stroke-opacity:1; fill:none" points="1909.82,220.745 2056.23,220.745 "></polyline>
<path clip-path="url(#clip650)" d="M2088.04 204.738 L2088.04 212.099 L2096.82 212.099 L2096.82 215.409 L2088.04 215.409 L2088.04 229.483 Q2088.04 232.654 2088.9 233.557 Q2089.78 234.46 2092.44 234.46 L2096.82 234.46 L2096.82 238.025 L2092.44 238.025 Q2087.51 238.025 2085.64 236.196 Q2083.76 234.344 2083.76 229.483 L2083.76 215.409 L2080.64 215.409 L2080.64 212.099 L2083.76 212.099 L2083.76 204.738 L2088.04 204.738 Z" fill="#000000" fill-rule="nonzero" fill-opacity="1"></path><path clip-path="url(#clip650)" d="M2118.04 216.497 L2147.72 216.497 L2147.72 220.386 L2118.04 220.386 L2118.04 216.497 M2118.04 225.941 L2147.72 225.941 L2147.72 229.877 L2118.04 229.877 L2118.04 225.941 Z" fill="#000000" fill-rule="nonzero" fill-opacity="1"></path><path clip-path="url(#clip650)" d="M2173.69 234.089 L2181.33 234.089 L2181.33 207.724 L2173.02 209.391 L2173.02 205.131 L2181.28 203.465 L2185.96 203.465 L2185.96 234.089 L2193.6 234.089 L2193.6 238.025 L2173.69 238.025 L2173.69 234.089 Z" fill="#000000" fill-rule="nonzero" fill-opacity="1"></path><polyline clip-path="url(#clip650)" style="stroke:#e26f46; stroke-linecap:round; stroke-linejoin:round; stroke-width:4; stroke-opacity:1; fill:none" points="1909.82,272.585 2056.23,272.585 "></polyline>
<path clip-path="url(#clip650)" d="M2088.04 256.578 L2088.04 263.939 L2096.82 263.939 L2096.82 267.249 L2088.04 267.249 L2088.04 281.323 Q2088.04 284.494 2088.9 285.397 Q2089.78 286.3 2092.44 286.3 L2096.82 286.3 L2096.82 289.865 L2092.44 289.865 Q2087.51 289.865 2085.64 288.036 Q2083.76 286.184 2083.76 281.323 L2083.76 267.249 L2080.64 267.249 L2080.64 263.939 L2083.76 263.939 L2083.76 256.578 L2088.04 256.578 Z" fill="#000000" fill-rule="nonzero" fill-opacity="1"></path><path clip-path="url(#clip650)" d="M2118.04 268.337 L2147.72 268.337 L2147.72 272.226 L2118.04 272.226 L2118.04 268.337 M2118.04 277.781 L2147.72 277.781 L2147.72 281.717 L2118.04 281.717 L2118.04 277.781 Z" fill="#000000" fill-rule="nonzero" fill-opacity="1"></path><path clip-path="url(#clip650)" d="M2176.91 285.929 L2193.23 285.929 L2193.23 289.865 L2171.28 289.865 L2171.28 285.929 Q2173.95 283.175 2178.53 278.545 Q2183.14 273.893 2184.32 272.55 Q2186.56 270.027 2187.44 268.291 Q2188.34 266.531 2188.34 264.842 Q2188.34 262.087 2186.4 260.351 Q2184.48 258.615 2181.38 258.615 Q2179.18 258.615 2176.72 259.379 Q2174.29 260.143 2171.52 261.694 L2171.52 256.971 Q2174.34 255.837 2176.79 255.258 Q2179.25 254.68 2181.28 254.68 Q2186.65 254.68 2189.85 257.365 Q2193.04 260.05 2193.04 264.541 Q2193.04 266.67 2192.23 268.592 Q2191.45 270.49 2189.34 273.082 Q2188.76 273.754 2185.66 276.971 Q2182.56 280.166 2176.91 285.929 Z" fill="#000000" fill-rule="nonzero" fill-opacity="1"></path><path clip-path="url(#clip650)" d="M2203.09 255.305 L2221.45 255.305 L2221.45 259.24 L2207.37 259.24 L2207.37 267.712 Q2208.39 267.365 2209.41 267.203 Q2210.43 267.018 2211.45 267.018 Q2217.23 267.018 2220.61 270.189 Q2223.99 273.36 2223.99 278.777 Q2223.99 284.355 2220.52 287.457 Q2217.05 290.536 2210.73 290.536 Q2208.55 290.536 2206.28 290.166 Q2204.04 289.795 2201.63 289.054 L2201.63 284.355 Q2203.71 285.49 2205.94 286.045 Q2208.16 286.601 2210.64 286.601 Q2214.64 286.601 2216.98 284.494 Q2219.32 282.388 2219.32 278.777 Q2219.32 275.166 2216.98 273.059 Q2214.64 270.953 2210.64 270.953 Q2208.76 270.953 2206.89 271.369 Q2205.03 271.786 2203.09 272.666 L2203.09 255.305 Z" fill="#000000" fill-rule="nonzero" fill-opacity="1"></path><polyline clip-path="url(#clip650)" style="stroke:#3da44d; stroke-linecap:round; stroke-linejoin:round; stroke-width:4; stroke-opacity:1; fill:none" points="1909.82,324.425 2056.23,324.425 "></polyline>
<path clip-path="url(#clip650)" d="M2088.04 308.418 L2088.04 315.779 L2096.82 315.779 L2096.82 319.089 L2088.04 319.089 L2088.04 333.163 Q2088.04 336.334 2088.9 337.237 Q2089.78 338.14 2092.44 338.14 L2096.82 338.14 L2096.82 341.705 L2092.44 341.705 Q2087.51 341.705 2085.64 339.876 Q2083.76 338.024 2083.76 333.163 L2083.76 319.089 L2080.64 319.089 L2080.64 315.779 L2083.76 315.779 L2083.76 308.418 L2088.04 308.418 Z" fill="#000000" fill-rule="nonzero" fill-opacity="1"></path><path clip-path="url(#clip650)" d="M2118.04 320.177 L2147.72 320.177 L2147.72 324.066 L2118.04 324.066 L2118.04 320.177 M2118.04 329.621 L2147.72 329.621 L2147.72 333.557 L2118.04 333.557 L2118.04 329.621 Z" fill="#000000" fill-rule="nonzero" fill-opacity="1"></path><path clip-path="url(#clip650)" d="M2172.93 307.145 L2191.28 307.145 L2191.28 311.08 L2177.21 311.08 L2177.21 319.552 Q2178.23 319.205 2179.25 319.043 Q2180.27 318.858 2181.28 318.858 Q2187.07 318.858 2190.45 322.029 Q2193.83 325.2 2193.83 330.617 Q2193.83 336.195 2190.36 339.297 Q2186.89 342.376 2180.57 342.376 Q2178.39 342.376 2176.12 342.006 Q2173.88 341.635 2171.47 340.894 L2171.47 336.195 Q2173.55 337.33 2175.77 337.885 Q2178 338.441 2180.47 338.441 Q2184.48 338.441 2186.82 336.334 Q2189.15 334.228 2189.15 330.617 Q2189.15 327.006 2186.82 324.899 Q2184.48 322.793 2180.47 322.793 Q2178.6 322.793 2176.72 323.209 Q2174.87 323.626 2172.93 324.506 L2172.93 307.145 Z" fill="#000000" fill-rule="nonzero" fill-opacity="1"></path><path clip-path="url(#clip650)" d="M2213.04 310.223 Q2209.43 310.223 2207.6 313.788 Q2205.8 317.33 2205.8 324.459 Q2205.8 331.566 2207.6 335.131 Q2209.43 338.672 2213.04 338.672 Q2216.68 338.672 2218.48 335.131 Q2220.31 331.566 2220.31 324.459 Q2220.31 317.33 2218.48 313.788 Q2216.68 310.223 2213.04 310.223 M2213.04 306.52 Q2218.85 306.52 2221.91 311.126 Q2224.99 315.709 2224.99 324.459 Q2224.99 333.186 2221.91 337.793 Q2218.85 342.376 2213.04 342.376 Q2207.23 342.376 2204.15 337.793 Q2201.1 333.186 2201.1 324.459 Q2201.1 315.709 2204.15 311.126 Q2207.23 306.52 2213.04 306.52 Z" fill="#000000" fill-rule="nonzero" fill-opacity="1"></path><polyline clip-path="url(#clip650)" style="stroke:#c271d2; stroke-linecap:round; stroke-linejoin:round; stroke-width:4; stroke-opacity:1; fill:none" points="1909.82,376.265 2056.23,376.265 "></polyline>
<path clip-path="url(#clip650)" d="M2088.04 360.258 L2088.04 367.619 L2096.82 367.619 L2096.82 370.929 L2088.04 370.929 L2088.04 385.003 Q2088.04 388.174 2088.9 389.077 Q2089.78 389.98 2092.44 389.98 L2096.82 389.98 L2096.82 393.545 L2092.44 393.545 Q2087.51 393.545 2085.64 391.716 Q2083.76 389.864 2083.76 385.003 L2083.76 370.929 L2080.64 370.929 L2080.64 367.619 L2083.76 367.619 L2083.76 360.258 L2088.04 360.258 Z" fill="#000000" fill-rule="nonzero" fill-opacity="1"></path><path clip-path="url(#clip650)" d="M2118.04 372.017 L2147.72 372.017 L2147.72 375.906 L2118.04 375.906 L2118.04 372.017 M2118.04 381.461 L2147.72 381.461 L2147.72 385.397 L2118.04 385.397 L2118.04 381.461 Z" fill="#000000" fill-rule="nonzero" fill-opacity="1"></path><path clip-path="url(#clip650)" d="M2171.7 358.985 L2193.92 358.985 L2193.92 360.975 L2181.38 393.545 L2176.49 393.545 L2188.3 362.92 L2171.7 362.92 L2171.7 358.985 Z" fill="#000000" fill-rule="nonzero" fill-opacity="1"></path><path clip-path="url(#clip650)" d="M2203.09 358.985 L2221.45 358.985 L2221.45 362.92 L2207.37 362.92 L2207.37 371.392 Q2208.39 371.045 2209.41 370.883 Q2210.43 370.698 2211.45 370.698 Q2217.23 370.698 2220.61 373.869 Q2223.99 377.04 2223.99 382.457 Q2223.99 388.035 2220.52 391.137 Q2217.05 394.216 2210.73 394.216 Q2208.55 394.216 2206.28 393.846 Q2204.04 393.475 2201.63 392.734 L2201.63 388.035 Q2203.71 389.17 2205.94 389.725 Q2208.16 390.281 2210.64 390.281 Q2214.64 390.281 2216.98 388.174 Q2219.32 386.068 2219.32 382.457 Q2219.32 378.846 2216.98 376.739 Q2214.64 374.633 2210.64 374.633 Q2208.76 374.633 2206.89 375.049 Q2205.03 375.466 2203.09 376.346 L2203.09 358.985 Z" fill="#000000" fill-rule="nonzero" fill-opacity="1"></path><polyline clip-path="url(#clip650)" style="stroke:#ac8d18; stroke-linecap:round; stroke-linejoin:round; stroke-width:4; stroke-opacity:1; fill:none" points="1909.82,428.105 2056.23,428.105 "></polyline>
<path clip-path="url(#clip650)" d="M2088.04 412.098 L2088.04 419.459 L2096.82 419.459 L2096.82 422.769 L2088.04 422.769 L2088.04 436.843 Q2088.04 440.014 2088.9 440.917 Q2089.78 441.82 2092.44 441.82 L2096.82 441.82 L2096.82 445.385 L2092.44 445.385 Q2087.51 445.385 2085.64 443.556 Q2083.76 441.704 2083.76 436.843 L2083.76 422.769 L2080.64 422.769 L2080.64 419.459 L2083.76 419.459 L2083.76 412.098 L2088.04 412.098 Z" fill="#000000" fill-rule="nonzero" fill-opacity="1"></path><path clip-path="url(#clip650)" d="M2118.04 423.857 L2147.72 423.857 L2147.72 427.746 L2118.04 427.746 L2118.04 423.857 M2118.04 433.301 L2147.72 433.301 L2147.72 437.237 L2118.04 437.237 L2118.04 433.301 Z" fill="#000000" fill-rule="nonzero" fill-opacity="1"></path><path clip-path="url(#clip650)" d="M2173.69 441.449 L2181.33 441.449 L2181.33 415.084 L2173.02 416.751 L2173.02 412.491 L2181.28 410.825 L2185.96 410.825 L2185.96 441.449 L2193.6 441.449 L2193.6 445.385 L2173.69 445.385 L2173.69 441.449 Z" fill="#000000" fill-rule="nonzero" fill-opacity="1"></path><path clip-path="url(#clip650)" d="M2213.04 413.903 Q2209.43 413.903 2207.6 417.468 Q2205.8 421.01 2205.8 428.139 Q2205.8 435.246 2207.6 438.811 Q2209.43 442.352 2213.04 442.352 Q2216.68 442.352 2218.48 438.811 Q2220.31 435.246 2220.31 428.139 Q2220.31 421.01 2218.48 417.468 Q2216.68 413.903 2213.04 413.903 M2213.04 410.2 Q2218.85 410.2 2221.91 414.806 Q2224.99 419.389 2224.99 428.139 Q2224.99 436.866 2221.91 441.473 Q2218.85 446.056 2213.04 446.056 Q2207.23 446.056 2204.15 441.473 Q2201.1 436.866 2201.1 428.139 Q2201.1 419.389 2204.15 414.806 Q2207.23 410.2 2213.04 410.2 Z" fill="#000000" fill-rule="nonzero" fill-opacity="1"></path><path clip-path="url(#clip650)" d="M2243.2 413.903 Q2239.59 413.903 2237.76 417.468 Q2235.96 421.01 2235.96 428.139 Q2235.96 435.246 2237.76 438.811 Q2239.59 442.352 2243.2 442.352 Q2246.84 442.352 2248.64 438.811 Q2250.47 435.246 2250.47 428.139 Q2250.47 421.01 2248.64 417.468 Q2246.84 413.903 2243.2 413.903 M2243.2 410.2 Q2249.01 410.2 2252.07 414.806 Q2255.15 419.389 2255.15 428.139 Q2255.15 436.866 2252.07 441.473 Q2249.01 446.056 2243.2 446.056 Q2237.39 446.056 2234.32 441.473 Q2231.26 436.866 2231.26 428.139 Q2231.26 419.389 2234.32 414.806 Q2237.39 410.2 2243.2 410.2 Z" fill="#000000" fill-rule="nonzero" fill-opacity="1"></path></svg>