<svg xmlns="http://www.w3.org/2000/svg" xmlns:xlink="http://www.w3.org/1999/xlink" width="600" height="400" viewBox="0 0 2400 1600">
<defs>
  <clipPath id="clip730">
    <rect x="0" y="0" width="2400" height="1600"></rect>
  </clipPath>
</defs>
<path clip-path="url(#clip730)" d="M0 1600 L2400 1600 L2400 0 L0 0  Z" fill="#ffffff" fill-rule="evenodd" fill-opacity="1"></path>
<defs>
  <clipPath id="clip731">
    <rect x="480" y="0" width="1681" height="1600"></rect>
  </clipPath>
</defs>
<path clip-path="url(#clip730)" d="M280.19 1423.18 L2352.76 1423.18 L2352.76 123.472 L280.19 123.472  Z" fill="#ffffff" fill-rule="evenodd" fill-opacity="1"></path>
<defs>
  <clipPath id="clip732">
    <rect x="280" y="123" width="2074" height="1301"></rect>
  </clipPath>
</defs>
<polyline clip-path="url(#clip732)" style="stroke:#000000; stroke-linecap:round; stroke-linejoin:round; stroke-width:2; stroke-opacity:0.1; fill:none" points="298.944,1423.18 298.944,123.472 "></polyline>
<polyline clip-path="url(#clip732)" style="stroke:#000000; stroke-linecap:round; stroke-linejoin:round; stroke-width:2; stroke-opacity:0.1; fill:none" points="697.975,1423.18 697.975,123.472 "></polyline>
<polyline clip-path="url(#clip732)" style="stroke:#000000; stroke-linecap:round; stroke-linejoin:round; stroke-width:2; stroke-opacity:0.1; fill:none" points="1097.01,1423.18 1097.01,123.472 "></polyline>
<polyline clip-path="url(#clip732)" style="stroke:#000000; stroke-linecap:round; stroke-linejoin:round; stroke-width:2; stroke-opacity:0.1; fill:none" points="1496.04,1423.18 1496.04,123.472 "></polyline>
<polyline clip-path="url(#clip732)" style="stroke:#000000; stroke-linecap:round; stroke-linejoin:round; stroke-width:2; stroke-opacity:0.1; fill:none" points="1895.07,1423.18 1895.07,123.472 "></polyline>
<polyline clip-path="url(#clip732)" style="stroke:#000000; stroke-linecap:round; stroke-linejoin:round; stroke-width:2; stroke-opacity:0.1; fill:none" points="2294.1,1423.18 2294.1,123.472 "></polyline>
<polyline clip-path="url(#clip730)" style="stroke:#000000; stroke-linecap:round; stroke-linejoin:round; stroke-width:4; stroke-opacity:1; fill:none" points="280.19,1423.18 2352.76,1423.18 "></polyline>
<polyline clip-path="url(#clip730)" style="stroke:#000000; stroke-linecap:round; stroke-linejoin:round; stroke-width:4; stroke-opacity:1; fill:none" points="298.944,1423.18 298.944,1404.28 "></polyline>
<polyline clip-path="url(#clip730)" style="stroke:#000000; stroke-linecap:round; stroke-linejoin:round; stroke-width:4; stroke-opacity:1; fill:none" points="697.975,1423.18 697.975,1404.28 "></polyline>
<polyline clip-path="url(#clip730)" style="stroke:#000000; stroke-linecap:round; stroke-linejoin:round; stroke-width:4; stroke-opacity:1; fill:none" points="1097.01,1423.18 1097.01,1404.28 "></polyline>
<polyline clip-path="url(#clip730)" style="stroke:#000000; stroke-linecap:round; stroke-linejoin:round; stroke-width:4; stroke-opacity:1; fill:none" points="1496.04,1423.18 1496.04,1404.28 "></polyline>
<polyline clip-path="url(#clip730)" style="stroke:#000000; stroke-linecap:round; stroke-linejoin:round; stroke-width:4; stroke-opacity:1; fill:none" points="1895.07,1423.18 1895.07,1404.28 "></polyline>
<polyline clip-path="url(#clip730)" style="stroke:#000000; stroke-linecap:round; stroke-linejoin:round; stroke-width:4; stroke-opacity:1; fill:none" points="2294.1,1423.18 2294.1,1404.28 "></polyline>
<path clip-path="url(#clip730)" d="M298.944 1454.1 Q295.333 1454.1 293.505 1457.66 Q291.699 1461.2 291.699 1468.33 Q291.699 1475.44 293.505 1479.01 Q295.333 1482.55 298.944 1482.55 Q302.579 1482.55 304.384 1479.01 Q306.213 1475.44 306.213 1468.33 Q306.213 1461.2 304.384 1457.66 Q302.579 1454.1 298.944 1454.1 M298.944 1450.39 Q304.755 1450.39 307.81 1455 Q310.889 1459.58 310.889 1468.33 Q310.889 1477.06 307.81 1481.67 Q304.755 1486.25 298.944 1486.25 Q293.134 1486.25 290.056 1481.67 Q287 1477.06 287 1468.33 Q287 1459.58 290.056 1455 Q293.134 1450.39 298.944 1450.39 Z" fill="#000000" fill-rule="nonzero" fill-opacity="1"></path><path clip-path="url(#clip730)" d="M672.663 1481.64 L680.302 1481.64 L680.302 1455.28 L671.992 1456.95 L671.992 1452.69 L680.255 1451.02 L684.931 1451.02 L684.931 1481.64 L692.57 1481.64 L692.57 1485.58 L672.663 1485.58 L672.663 1481.64 Z" fill="#000000" fill-rule="nonzero" fill-opacity="1"></path><path clip-path="url(#clip730)" d="M712.015 1454.1 Q708.403 1454.1 706.575 1457.66 Q704.769 1461.2 704.769 1468.33 Q704.769 1475.44 706.575 1479.01 Q708.403 1482.55 712.015 1482.55 Q715.649 1482.55 717.454 1479.01 Q719.283 1475.44 719.283 1468.33 Q719.283 1461.2 717.454 1457.66 Q715.649 1454.1 712.015 1454.1 M712.015 1450.39 Q717.825 1450.39 720.88 1455 Q723.959 1459.58 723.959 1468.33 Q723.959 1477.06 720.88 1481.67 Q717.825 1486.25 712.015 1486.25 Q706.204 1486.25 703.126 1481.67 Q700.07 1477.06 700.07 1468.33 Q700.07 1459.58 703.126 1455 Q706.204 1450.39 712.015 1450.39 Z" fill="#000000" fill-rule="nonzero" fill-opacity="1"></path><path clip-path="url(#clip730)" d="M1075.78 1481.64 L1092.1 1481.64 L1092.1 1485.58 L1070.15 1485.58 L1070.15 1481.64 Q1072.82 1478.89 1077.4 1474.26 Q1082.01 1469.61 1083.19 1468.27 Q1085.43 1465.74 1086.31 1464.01 Q1087.21 1462.25 1087.21 1460.56 Q1087.21 1457.8 1085.27 1456.07 Q1083.35 1454.33 1080.25 1454.33 Q1078.05 1454.33 1075.59 1455.09 Q1073.16 1455.86 1070.39 1457.41 L1070.39 1452.69 Q1073.21 1451.55 1075.66 1450.97 Q1078.12 1450.39 1080.15 1450.39 Q1085.52 1450.39 1088.72 1453.08 Q1091.91 1455.77 1091.91 1460.26 Q1091.91 1462.39 1091.1 1464.31 Q1090.32 1466.2 1088.21 1468.8 Q1087.63 1469.47 1084.53 1472.69 Q1081.43 1475.88 1075.78 1481.64 Z" fill="#000000" fill-rule="nonzero" fill-opacity="1"></path><path clip-path="url(#clip730)" d="M1111.91 1454.1 Q1108.3 1454.1 1106.47 1457.66 Q1104.67 1461.2 1104.67 1468.33 Q1104.67 1475.44 1106.47 1479.01 Q1108.3 1482.55 1111.91 1482.55 Q1115.55 1482.55 1117.35 1479.01 Q1119.18 1475.44 1119.18 1468.33 Q1119.18 1461.2 1117.35 1457.66 Q1115.55 1454.1 1111.91 1454.1 M1111.91 1450.39 Q1117.72 1450.39 1120.78 1455 Q1123.86 1459.58 1123.86 1468.33 Q1123.86 1477.06 1120.78 1481.67 Q1117.72 1486.25 1111.91 1486.25 Q1106.1 1486.25 1103.02 1481.67 Q1099.97 1477.06 1099.97 1468.33 Q1099.97 1459.58 1103.02 1455 Q1106.1 1450.39 1111.91 1450.39 Z" fill="#000000" fill-rule="nonzero" fill-opacity="1"></path><path clip-path="url(#clip730)" d="M1484.88 1466.95 Q1488.24 1467.66 1490.11 1469.93 Q1492.01 1472.2 1492.01 1475.53 Q1492.01 1480.65 1488.49 1483.45 Q1484.97 1486.25 1478.49 1486.25 Q1476.31 1486.25 1474 1485.81 Q1471.71 1485.39 1469.25 1484.54 L1469.25 1480.02 Q1471.2 1481.16 1473.51 1481.74 Q1475.83 1482.32 1478.35 1482.32 Q1482.75 1482.32 1485.04 1480.58 Q1487.36 1478.84 1487.36 1475.53 Q1487.36 1472.48 1485.2 1470.77 Q1483.07 1469.03 1479.25 1469.03 L1475.23 1469.03 L1475.23 1465.19 L1479.44 1465.19 Q1482.89 1465.19 1484.72 1463.82 Q1486.55 1462.43 1486.55 1459.84 Q1486.55 1457.18 1484.65 1455.77 Q1482.77 1454.33 1479.25 1454.33 Q1477.33 1454.33 1475.13 1454.75 Q1472.94 1455.16 1470.3 1456.04 L1470.3 1451.88 Q1472.96 1451.14 1475.27 1450.77 Q1477.61 1450.39 1479.67 1450.39 Q1485 1450.39 1488.1 1452.83 Q1491.2 1455.23 1491.2 1459.35 Q1491.2 1462.22 1489.56 1464.21 Q1487.91 1466.18 1484.88 1466.95 Z" fill="#000000" fill-rule="nonzero" fill-opacity="1"></path><path clip-path="url(#clip730)" d="M1510.87 1454.1 Q1507.26 1454.1 1505.43 1457.66 Q1503.63 1461.2 1503.63 1468.33 Q1503.63 1475.44 1505.43 1479.01 Q1507.26 1482.55 1510.87 1482.55 Q1514.51 1482.55 1516.31 1479.01 Q1518.14 1475.44 1518.14 1468.33 Q1518.14 1461.2 1516.31 1457.66 Q1514.51 1454.1 1510.87 1454.1 M1510.87 1450.39 Q1516.68 1450.39 1519.74 1455 Q1522.82 1459.58 1522.82 1468.33 Q1522.82 1477.06 1519.74 1481.67 Q1516.68 1486.25 1510.87 1486.25 Q1505.06 1486.25 1501.99 1481.67 Q1498.93 1477.06 1498.93 1468.33 Q1498.93 1459.58 1501.99 1455 Q1505.06 1450.39 1510.87 1450.39 Z" fill="#000000" fill-rule="nonzero" fill-opacity="1"></path><path clip-path="url(#clip730)" d="M1883.24 1455.09 L1871.43 1473.54 L1883.24 1473.54 L1883.24 1455.09 M1882.01 1451.02 L1887.89 1451.02 L1887.89 1473.54 L1892.82 1473.54 L1892.82 1477.43 L1887.89 1477.43 L1887.89 1485.58 L1883.24 1485.58 L1883.24 1477.43 L1867.64 1477.43 L1867.64 1472.92 L1882.01 1451.02 Z" fill="#000000" fill-rule="nonzero" fill-opacity="1"></path><path clip-path="url(#clip730)" d="M1910.55 1454.1 Q1906.94 1454.1 1905.11 1457.66 Q1903.31 1461.2 1903.31 1468.33 Q1903.31 1475.44 1905.11 1479.01 Q1906.94 1482.55 1910.55 1482.55 Q1914.19 1482.55 1915.99 1479.01 Q1917.82 1475.44 1917.82 1468.33 Q1917.82 1461.2 1915.99 1457.66 Q1914.19 1454.1 1910.55 1454.1 M1910.55 1450.39 Q1916.36 1450.39 1919.42 1455 Q1922.5 1459.58 1922.5 1468.33 Q1922.5 1477.06 1919.42 1481.67 Q1916.36 1486.25 1910.55 1486.25 Q1904.74 1486.25 1901.66 1481.67 Q1898.61 1477.06 1898.61 1468.33 Q1898.61 1459.58 1901.66 1455 Q1904.74 1450.39 1910.55 1450.39 Z" fill="#000000" fill-rule="nonzero" fill-opacity="1"></path><path clip-path="url(#clip730)" d="M2268.8 1451.02 L2287.15 1451.02 L2287.15 1454.96 L2273.08 1454.96 L2273.08 1463.43 Q2274.1 1463.08 2275.12 1462.92 Q2276.14 1462.73 2277.15 1462.73 Q2282.94 1462.73 2286.32 1465.9 Q2289.7 1469.08 2289.7 1474.49 Q2289.7 1480.07 2286.23 1483.17 Q2282.76 1486.25 2276.44 1486.25 Q2274.26 1486.25 2271.99 1485.88 Q2269.75 1485.51 2267.34 1484.77 L2267.34 1480.07 Q2269.42 1481.2 2271.64 1481.76 Q2273.87 1482.32 2276.34 1482.32 Q2280.35 1482.32 2282.69 1480.21 Q2285.02 1478.1 2285.02 1474.49 Q2285.02 1470.88 2282.69 1468.77 Q2280.35 1466.67 2276.34 1466.67 Q2274.47 1466.67 2272.59 1467.08 Q2270.74 1467.5 2268.8 1468.38 L2268.8 1451.02 Z" fill="#000000" fill-rule="nonzero" fill-opacity="1"></path><path clip-path="url(#clip730)" d="M2308.91 1454.1 Q2305.3 1454.1 2303.47 1457.66 Q2301.67 1461.2 2301.67 1468.33 Q2301.67 1475.44 2303.47 1479.01 Q2305.3 1482.55 2308.91 1482.55 Q2312.55 1482.55 2314.35 1479.01 Q2316.18 1475.44 2316.18 1468.33 Q2316.18 1461.2 2314.35 1457.66 Q2312.55 1454.1 2308.91 1454.1 M2308.91 1450.39 Q2314.72 1450.39 2317.78 1455 Q2320.86 1459.58 2320.86 1468.33 Q2320.86 1477.06 2317.78 1481.67 Q2314.72 1486.25 2308.91 1486.25 Q2303.1 1486.25 2300.02 1481.67 Q2296.97 1477.06 2296.97 1468.33 Q2296.97 1459.58 2300.02 1455 Q2303.1 1450.39 2308.91 1450.39 Z" fill="#000000" fill-rule="nonzero" fill-opacity="1"></path><path clip-path="url(#clip730)" d="M1199.03 1524.88 Q1192.02 1524.88 1187.89 1530.1 Q1183.78 1535.32 1183.78 1544.33 Q1183.78 1553.31 1187.89 1558.53 Q1192.02 1563.75 1199.03 1563.75 Q1206.03 1563.75 1210.1 1558.53 Q1214.21 1553.31 1214.21 1544.33 Q1214.21 1535.32 1210.1 1530.1 Q1206.03 1524.88 1199.03 1524.88 M1208.03 1567.18 L1216.5 1576.45 L1208.73 1576.45 L1201.7 1568.84 Q1200.65 1568.9 1200.08 1568.94 Q1199.53 1568.97 1199.03 1568.97 Q1189 1568.97 1182.98 1562.28 Q1177 1555.57 1177 1544.33 Q1177 1533.06 1182.98 1526.38 Q1189 1519.66 1199.03 1519.66 Q1209.02 1519.66 1215 1526.38 Q1220.99 1533.06 1220.99 1544.33 Q1220.99 1552.61 1217.65 1558.5 Q1214.34 1564.38 1208.03 1567.18 Z" fill="#000000" fill-rule="nonzero" fill-opacity="1"></path><path clip-path="url(#clip730)" d="M1230.19 1553.98 L1230.19 1532.4 L1236.04 1532.4 L1236.04 1553.75 Q1236.04 1558.81 1238.02 1561.36 Q1239.99 1563.87 1243.94 1563.87 Q1248.68 1563.87 1251.42 1560.85 Q1254.18 1557.83 1254.18 1552.61 L1254.18 1532.4 L1260.04 1532.4 L1260.04 1568.04 L1254.18 1568.04 L1254.18 1562.57 Q1252.05 1565.82 1249.22 1567.41 Q1246.42 1568.97 1242.69 1568.97 Q1236.55 1568.97 1233.37 1565.15 Q1230.19 1561.33 1230.19 1553.98 M1244.92 1531.54 L1244.92 1531.54 Z" fill="#000000" fill-rule="nonzero" fill-opacity="1"></path><path clip-path="url(#clip730)" d="M1288.3 1550.12 Q1281.21 1550.12 1278.47 1551.75 Q1275.73 1553.37 1275.73 1557.29 Q1275.73 1560.4 1277.77 1562.25 Q1279.84 1564.07 1283.37 1564.07 Q1288.24 1564.07 1291.17 1560.63 Q1294.13 1557.16 1294.13 1551.43 L1294.13 1550.12 L1288.3 1550.12 M1299.99 1547.71 L1299.99 1568.04 L1294.13 1568.04 L1294.13 1562.63 Q1292.12 1565.88 1289.13 1567.44 Q1286.14 1568.97 1281.81 1568.97 Q1276.34 1568.97 1273.09 1565.91 Q1269.88 1562.82 1269.88 1557.67 Q1269.88 1551.65 1273.89 1548.6 Q1277.93 1545.54 1285.92 1545.54 L1294.13 1545.54 L1294.13 1544.97 Q1294.13 1540.93 1291.46 1538.73 Q1288.81 1536.5 1284.01 1536.5 Q1280.95 1536.5 1278.06 1537.23 Q1275.16 1537.97 1272.49 1539.43 L1272.49 1534.02 Q1275.7 1532.78 1278.72 1532.17 Q1281.75 1531.54 1284.61 1531.54 Q1292.35 1531.54 1296.17 1535.55 Q1299.99 1539.56 1299.99 1547.71 Z" fill="#000000" fill-rule="nonzero" fill-opacity="1"></path><path clip-path="url(#clip730)" d="M1332.71 1537.87 Q1331.72 1537.3 1330.54 1537.04 Q1329.4 1536.76 1327.99 1536.76 Q1323.03 1536.76 1320.36 1540 Q1317.71 1543.22 1317.71 1549.27 L1317.71 1568.04 L1311.83 1568.04 L1311.83 1532.4 L1317.71 1532.4 L1317.71 1537.93 Q1319.56 1534.69 1322.52 1533.13 Q1325.48 1531.54 1329.71 1531.54 Q1330.32 1531.54 1331.05 1531.63 Q1331.78 1531.7 1332.67 1531.85 L1332.71 1537.87 Z" fill="#000000" fill-rule="nonzero" fill-opacity="1"></path><path clip-path="url(#clip730)" d="M1344.64 1522.27 L1344.64 1532.4 L1356.7 1532.4 L1356.7 1536.95 L1344.64 1536.95 L1344.64 1556.3 Q1344.64 1560.66 1345.82 1561.9 Q1347.03 1563.14 1350.69 1563.14 L1356.7 1563.14 L1356.7 1568.04 L1350.69 1568.04 Q1343.91 1568.04 1341.33 1565.53 Q1338.75 1562.98 1338.75 1556.3 L1338.75 1536.95 L1334.46 1536.95 L1334.46 1532.4 L1338.75 1532.4 L1338.75 1522.27 L1344.64 1522.27 Z" fill="#000000" fill-rule="nonzero" fill-opacity="1"></path><path clip-path="url(#clip730)" d="M1394.9 1548.76 L1394.9 1551.62 L1367.97 1551.62 Q1368.35 1557.67 1371.6 1560.85 Q1374.88 1564 1380.7 1564 Q1384.08 1564 1387.23 1563.17 Q1390.41 1562.35 1393.53 1560.69 L1393.53 1566.23 Q1390.38 1567.57 1387.07 1568.27 Q1383.76 1568.97 1380.35 1568.97 Q1371.82 1568.97 1366.83 1564 Q1361.86 1559.04 1361.86 1550.57 Q1361.86 1541.82 1366.57 1536.69 Q1371.31 1531.54 1379.33 1531.54 Q1386.53 1531.54 1390.7 1536.18 Q1394.9 1540.8 1394.9 1548.76 M1389.04 1547.04 Q1388.98 1542.23 1386.34 1539.37 Q1383.73 1536.5 1379.4 1536.5 Q1374.5 1536.5 1371.54 1539.27 Q1368.61 1542.04 1368.16 1547.07 L1389.04 1547.04 Z" fill="#000000" fill-rule="nonzero" fill-opacity="1"></path><path clip-path="url(#clip730)" d="M1425.17 1537.87 Q1424.18 1537.3 1423 1537.04 Q1421.86 1536.76 1420.46 1536.76 Q1415.49 1536.76 1412.82 1540 Q1410.18 1543.22 1410.18 1549.27 L1410.18 1568.04 L1404.29 1568.04 L1404.29 1532.4 L1410.18 1532.4 L1410.18 1537.93 Q1412.02 1534.69 1414.98 1533.13 Q1417.94 1531.54 1422.18 1531.54 Q1422.78 1531.54 1423.51 1531.63 Q1424.24 1531.7 1425.14 1531.85 L1425.17 1537.87 Z" fill="#000000" fill-rule="nonzero" fill-opacity="1"></path><path clip-path="url(#clip730)" d="M1454.04 1533.45 L1454.04 1538.98 Q1451.55 1537.71 1448.88 1537.07 Q1446.21 1536.44 1443.34 1536.44 Q1438.98 1536.44 1436.78 1537.77 Q1434.62 1539.11 1434.62 1541.79 Q1434.62 1543.82 1436.18 1545 Q1437.74 1546.15 1442.45 1547.2 L1444.46 1547.64 Q1450.69 1548.98 1453.3 1551.43 Q1455.95 1553.85 1455.95 1558.21 Q1455.95 1563.17 1452 1566.07 Q1448.08 1568.97 1441.21 1568.97 Q1438.34 1568.97 1435.23 1568.39 Q1432.14 1567.85 1428.7 1566.74 L1428.7 1560.69 Q1431.95 1562.38 1435.1 1563.24 Q1438.25 1564.07 1441.34 1564.07 Q1445.47 1564.07 1447.7 1562.66 Q1449.93 1561.23 1449.93 1558.65 Q1449.93 1556.27 1448.31 1554.99 Q1446.72 1553.72 1441.27 1552.54 L1439.24 1552.07 Q1433.79 1550.92 1431.37 1548.56 Q1428.95 1546.18 1428.95 1542.04 Q1428.95 1537.01 1432.52 1534.27 Q1436.08 1531.54 1442.64 1531.54 Q1445.89 1531.54 1448.75 1532.01 Q1451.62 1532.49 1454.04 1533.45 Z" fill="#000000" fill-rule="nonzero" fill-opacity="1"></path><polyline clip-path="url(#clip732)" style="stroke:#000000; stroke-linecap:round; stroke-linejoin:round; stroke-width:2; stroke-opacity:0.1; fill:none" points="280.19,1387.09 2352.76,1387.09 "></polyline>
<polyline clip-path="url(#clip732)" style="stroke:#000000; stroke-linecap:round; stroke-linejoin:round; stroke-width:2; stroke-opacity:0.1; fill:none" points="280.19,1051.3 2352.76,1051.3 "></polyline>
<polyline clip-path="url(#clip732)" style="stroke:#000000; stroke-linecap:round; stroke-linejoin:round; stroke-width:2; stroke-opacity:0.1; fill:none" points="280.19,715.502 2352.76,715.502 "></polyline>
<polyline clip-path="url(#clip732)" style="stroke:#000000; stroke-linecap:round; stroke-linejoin:round; stroke-width:2; stroke-opacity:0.1; fill:none" points="280.19,379.705 2352.76,379.705 "></polyline>
<polyline clip-path="url(#clip730)" style="stroke:#000000; stroke-linecap:round; stroke-linejoin:round; stroke-width:4; stroke-opacity:1; fill:none" points="280.19,1423.18 280.19,123.472 "></polyline>
<polyline clip-path="url(#clip730)" style="stroke:#000000; stroke-linecap:round; stroke-linejoin:round; stroke-width:4; stroke-opacity:1; fill:none" points="280.19,1387.09 299.088,1387.09 "></polyline>
<polyline clip-path="url(#clip730)" style="stroke:#000000; stroke-linecap:round; stroke-linejoin:round; stroke-width:4; stroke-opacity:1; fill:none" points="280.19,1051.3 299.088,1051.3 "></polyline>
<polyline clip-path="url(#clip730)" style="stroke:#000000; stroke-linecap:round; stroke-linejoin:round; stroke-width:4; stroke-opacity:1; fill:none" points="280.19,715.502 299.088,715.502 "></polyline>
<polyline clip-path="url(#clip730)" style="stroke:#000000; stroke-linecap:round; stroke-linejoin:round; stroke-width:4; stroke-opacity:1; fill:none" points="280.19,379.705 299.088,379.705 "></polyline>
<path clip-path="url(#clip730)" d="M126.691 1372.89 Q123.08 1372.89 121.251 1376.46 Q119.445 1380 119.445 1387.13 Q119.445 1394.24 121.251 1397.8 Q123.08 1401.34 126.691 1401.34 Q130.325 1401.34 132.13 1397.8 Q133.959 1394.24 133.959 1387.13 Q133.959 1380 132.13 1376.46 Q130.325 1372.89 126.691 1372.89 M126.691 1369.19 Q132.501 1369.19 135.556 1373.8 Q138.635 1378.38 138.635 1387.13 Q138.635 1395.86 135.556 1400.46 Q132.501 1405.05 126.691 1405.05 Q120.88 1405.05 117.802 1400.46 Q114.746 1395.86 114.746 1387.13 Q114.746 1378.38 117.802 1373.8 Q120.88 1369.19 126.691 1369.19 Z" fill="#000000" fill-rule="nonzero" fill-opacity="1"></path><path clip-path="url(#clip730)" d="M146.853 1398.49 L151.737 1398.49 L151.737 1404.37 L146.853 1404.37 L146.853 1398.49 Z" fill="#000000" fill-rule="nonzero" fill-opacity="1"></path><path clip-path="url(#clip730)" d="M171.922 1372.89 Q168.311 1372.89 166.482 1376.46 Q164.677 1380 164.677 1387.13 Q164.677 1394.24 166.482 1397.8 Q168.311 1401.34 171.922 1401.34 Q175.556 1401.34 177.362 1397.8 Q179.19 1394.24 179.19 1387.13 Q179.19 1380 177.362 1376.46 Q175.556 1372.89 171.922 1372.89 M171.922 1369.19 Q177.732 1369.19 180.788 1373.8 Q183.866 1378.38 183.866 1387.13 Q183.866 1395.86 180.788 1400.46 Q177.732 1405.05 171.922 1405.05 Q166.112 1405.05 163.033 1400.46 Q159.978 1395.86 159.978 1387.13 Q159.978 1378.38 163.033 1373.8 Q166.112 1369.19 171.922 1369.19 Z" fill="#000000" fill-rule="nonzero" fill-opacity="1"></path><path clip-path="url(#clip730)" d="M202.084 1372.89 Q198.473 1372.89 196.644 1376.46 Q194.838 1380 194.838 1387.13 Q194.838 1394.24 196.644 1397.8 Q198.473 1401.34 202.084 1401.34 Q205.718 1401.34 207.524 1397.8 Q209.352 1394.24 209.352 1387.13 Q209.352 1380 207.524 1376.46 Q205.718 1372.89 202.084 1372.89 M202.084 1369.19 Q207.894 1369.19 210.949 1373.8 Q214.028 1378.38 214.028 1387.13 Q214.028 1395.86 210.949 1400.46 Q207.894 1405.05 202.084 1405.05 Q196.274 1405.05 193.195 1400.46 Q190.139 1395.86 190.139 1387.13 Q190.139 1378.38 193.195 1373.8 Q196.274 1369.19 202.084 1369.19 Z" fill="#000000" fill-rule="nonzero" fill-opacity="1"></path><path clip-path="url(#clip730)" d="M232.246 1372.89 Q228.635 1372.89 226.806 1376.46 Q225 1380 225 1387.13 Q225 1394.24 226.806 1397.8 Q228.635 1401.34 232.246 1401.34 Q235.88 1401.34 237.685 1397.8 Q239.514 1394.24 239.514 1387.13 Q239.514 1380 237.685 1376.46 Q235.88 1372.89 232.246 1372.89 M232.246 1369.19 Q238.056 1369.19 241.111 1373.8 Q244.19 1378.38 244.19 1387.13 Q244.19 1395.86 241.111 1400.46 Q238.056 1405.05 232.246 1405.05 Q226.435 1405.05 223.357 1400.46 Q220.301 1395.86 220.301 1387.13 Q220.301 1378.38 223.357 1373.8 Q226.435 1369.19 232.246 1369.19 Z" fill="#000000" fill-rule="nonzero" fill-opacity="1"></path><path clip-path="url(#clip730)" d="M128.288 1037.1 Q124.677 1037.1 122.848 1040.66 Q121.043 1044.2 121.043 1051.33 Q121.043 1058.44 122.848 1062 Q124.677 1065.55 128.288 1065.55 Q131.922 1065.55 133.728 1062 Q135.556 1058.44 135.556 1051.33 Q135.556 1044.2 133.728 1040.66 Q131.922 1037.1 128.288 1037.1 M128.288 1033.39 Q134.098 1033.39 137.154 1038 Q140.232 1042.58 140.232 1051.33 Q140.232 1060.06 137.154 1064.67 Q134.098 1069.25 128.288 1069.25 Q122.478 1069.25 119.399 1064.67 Q116.343 1060.06 116.343 1051.33 Q116.343 1042.58 119.399 1038 Q122.478 1033.39 128.288 1033.39 Z" fill="#000000" fill-rule="nonzero" fill-opacity="1"></path><path clip-path="url(#clip730)" d="M148.45 1062.7 L153.334 1062.7 L153.334 1068.58 L148.45 1068.58 L148.45 1062.7 Z" fill="#000000" fill-rule="nonzero" fill-opacity="1"></path><path clip-path="url(#clip730)" d="M173.519 1037.1 Q169.908 1037.1 168.079 1040.66 Q166.274 1044.2 166.274 1051.33 Q166.274 1058.44 168.079 1062 Q169.908 1065.55 173.519 1065.55 Q177.153 1065.55 178.959 1062 Q180.788 1058.44 180.788 1051.33 Q180.788 1044.2 178.959 1040.66 Q177.153 1037.1 173.519 1037.1 M173.519 1033.39 Q179.329 1033.39 182.385 1038 Q185.463 1042.58 185.463 1051.33 Q185.463 1060.06 182.385 1064.67 Q179.329 1069.25 173.519 1069.25 Q167.709 1069.25 164.63 1064.67 Q161.575 1060.06 161.575 1051.33 Q161.575 1042.58 164.63 1038 Q167.709 1033.39 173.519 1033.39 Z" fill="#000000" fill-rule="nonzero" fill-opacity="1"></path><path clip-path="url(#clip730)" d="M203.681 1037.1 Q200.07 1037.1 198.241 1040.66 Q196.436 1044.2 196.436 1051.33 Q196.436 1058.44 198.241 1062 Q200.07 1065.55 203.681 1065.55 Q207.315 1065.55 209.121 1062 Q210.949 1058.44 210.949 1051.33 Q210.949 1044.2 209.121 1040.66 Q207.315 1037.1 203.681 1037.1 M203.681 1033.39 Q209.491 1033.39 212.547 1038 Q215.625 1042.58 215.625 1051.33 Q215.625 1060.06 212.547 1064.67 Q209.491 1069.25 203.681 1069.25 Q197.871 1069.25 194.792 1064.67 Q191.737 1060.06 191.737 1051.33 Q191.737 1042.58 194.792 1038 Q197.871 1033.39 203.681 1033.39 Z" fill="#000000" fill-rule="nonzero" fill-opacity="1"></path><path clip-path="url(#clip730)" d="M227.871 1064.64 L244.19 1064.64 L244.19 1068.58 L222.246 1068.58 L222.246 1064.64 Q224.908 1061.89 229.491 1057.26 Q234.097 1052.61 235.278 1051.26 Q237.523 1048.74 238.403 1047 Q239.306 1045.25 239.306 1043.56 Q239.306 1040.8 237.361 1039.06 Q235.44 1037.33 232.338 1037.33 Q230.139 1037.33 227.685 1038.09 Q225.255 1038.86 222.477 1040.41 L222.477 1035.68 Q225.301 1034.55 227.755 1033.97 Q230.209 1033.39 232.246 1033.39 Q237.616 1033.39 240.81 1036.08 Q244.005 1038.76 244.005 1043.25 Q244.005 1045.38 243.195 1047.31 Q242.408 1049.2 240.301 1051.8 Q239.722 1052.47 236.621 1055.68 Q233.519 1058.88 227.871 1064.64 Z" fill="#000000" fill-rule="nonzero" fill-opacity="1"></path><path clip-path="url(#clip730)" d="M126.205 701.301 Q122.593 701.301 120.765 704.865 Q118.959 708.407 118.959 715.537 Q118.959 722.643 120.765 726.208 Q122.593 729.749 126.205 729.749 Q129.839 729.749 131.644 726.208 Q133.473 722.643 133.473 715.537 Q133.473 708.407 131.644 704.865 Q129.839 701.301 126.205 701.301 M126.205 697.597 Q132.015 697.597 135.07 702.203 Q138.149 706.787 138.149 715.537 Q138.149 724.263 135.07 728.87 Q132.015 733.453 126.205 733.453 Q120.394 733.453 117.316 728.87 Q114.26 724.263 114.26 715.537 Q114.26 706.787 117.316 702.203 Q120.394 697.597 126.205 697.597 Z" fill="#000000" fill-rule="nonzero" fill-opacity="1"></path><path clip-path="url(#clip730)" d="M146.366 726.902 L151.251 726.902 L151.251 732.782 L146.366 732.782 L146.366 726.902 Z" fill="#000000" fill-rule="nonzero" fill-opacity="1"></path><path clip-path="url(#clip730)" d="M171.436 701.301 Q167.825 701.301 165.996 704.865 Q164.19 708.407 164.19 715.537 Q164.19 722.643 165.996 726.208 Q167.825 729.749 171.436 729.749 Q175.07 729.749 176.876 726.208 Q178.704 722.643 178.704 715.537 Q178.704 708.407 176.876 704.865 Q175.07 701.301 171.436 701.301 M171.436 697.597 Q177.246 697.597 180.301 702.203 Q183.38 706.787 183.38 715.537 Q183.38 724.263 180.301 728.87 Q177.246 733.453 171.436 733.453 Q165.626 733.453 162.547 728.87 Q159.491 724.263 159.491 715.537 Q159.491 706.787 162.547 702.203 Q165.626 697.597 171.436 697.597 Z" fill="#000000" fill-rule="nonzero" fill-opacity="1"></path><path clip-path="url(#clip730)" d="M201.598 701.301 Q197.987 701.301 196.158 704.865 Q194.352 708.407 194.352 715.537 Q194.352 722.643 196.158 726.208 Q197.987 729.749 201.598 729.749 Q205.232 729.749 207.037 726.208 Q208.866 722.643 208.866 715.537 Q208.866 708.407 207.037 704.865 Q205.232 701.301 201.598 701.301 M201.598 697.597 Q207.408 697.597 210.463 702.203 Q213.542 706.787 213.542 715.537 Q213.542 724.263 210.463 728.87 Q207.408 733.453 201.598 733.453 Q195.787 733.453 192.709 728.87 Q189.653 724.263 189.653 715.537 Q189.653 706.787 192.709 702.203 Q195.787 697.597 201.598 697.597 Z" fill="#000000" fill-rule="nonzero" fill-opacity="1"></path><path clip-path="url(#clip730)" d="M234.607 702.296 L222.801 720.745 L234.607 720.745 L234.607 702.296 M233.38 698.222 L239.259 698.222 L239.259 720.745 L244.19 720.745 L244.19 724.634 L239.259 724.634 L239.259 732.782 L234.607 732.782 L234.607 724.634 L219.005 724.634 L219.005 720.12 L233.38 698.222 Z" fill="#000000" fill-rule="nonzero" fill-opacity="1"></path><path clip-path="url(#clip730)" d="M126.529 365.504 Q122.918 365.504 121.089 369.069 Q119.283 372.611 119.283 379.74 Q119.283 386.847 121.089 390.411 Q122.918 393.953 126.529 393.953 Q130.163 393.953 131.968 390.411 Q133.797 386.847 133.797 379.74 Q133.797 372.611 131.968 369.069 Q130.163 365.504 126.529 365.504 M126.529 361.8 Q132.339 361.8 135.394 366.407 Q138.473 370.99 138.473 379.74 Q138.473 388.467 135.394 393.073 Q132.339 397.657 126.529 397.657 Q120.718 397.657 117.64 393.073 Q114.584 388.467 114.584 379.74 Q114.584 370.99 117.64 366.407 Q120.718 361.8 126.529 361.8 Z" fill="#000000" fill-rule="nonzero" fill-opacity="1"></path><path clip-path="url(#clip730)" d="M146.691 391.106 L151.575 391.106 L151.575 396.985 L146.691 396.985 L146.691 391.106 Z" fill="#000000" fill-rule="nonzero" fill-opacity="1"></path><path clip-path="url(#clip730)" d="M171.76 365.504 Q168.149 365.504 166.32 369.069 Q164.515 372.611 164.515 379.74 Q164.515 386.847 166.32 390.411 Q168.149 393.953 171.76 393.953 Q175.394 393.953 177.2 390.411 Q179.028 386.847 179.028 379.74 Q179.028 372.611 177.2 369.069 Q175.394 365.504 171.76 365.504 M171.76 361.8 Q177.57 361.8 180.626 366.407 Q183.704 370.99 183.704 379.74 Q183.704 388.467 180.626 393.073 Q177.57 397.657 171.76 397.657 Q165.95 397.657 162.871 393.073 Q159.815 388.467 159.815 379.74 Q159.815 370.99 162.871 366.407 Q165.95 361.8 171.76 361.8 Z" fill="#000000" fill-rule="nonzero" fill-opacity="1"></path><path clip-path="url(#clip730)" d="M201.922 365.504 Q198.311 365.504 196.482 369.069 Q194.676 372.611 194.676 379.74 Q194.676 386.847 196.482 390.411 Q198.311 393.953 201.922 393.953 Q205.556 393.953 207.362 390.411 Q209.19 386.847 209.19 379.74 Q209.19 372.611 207.362 369.069 Q205.556 365.504 201.922 365.504 M201.922 361.8 Q207.732 361.8 210.787 366.407 Q213.866 370.99 213.866 379.74 Q213.866 388.467 210.787 393.073 Q207.732 397.657 201.922 397.657 Q196.112 397.657 193.033 393.073 Q189.977 388.467 189.977 379.74 Q189.977 370.99 193.033 366.407 Q196.112 361.8 201.922 361.8 Z" fill="#000000" fill-rule="nonzero" fill-opacity="1"></path><path clip-path="url(#clip730)" d="M232.662 377.842 Q229.514 377.842 227.662 379.995 Q225.834 382.148 225.834 385.898 Q225.834 389.624 227.662 391.8 Q229.514 393.953 232.662 393.953 Q235.81 393.953 237.639 391.8 Q239.491 389.624 239.491 385.898 Q239.491 382.148 237.639 379.995 Q235.81 377.842 232.662 377.842 M241.945 363.189 L241.945 367.449 Q240.185 366.615 238.38 366.175 Q236.597 365.736 234.838 365.736 Q230.209 365.736 227.755 368.861 Q225.324 371.986 224.977 378.305 Q226.343 376.291 228.403 375.226 Q230.463 374.138 232.94 374.138 Q238.148 374.138 241.158 377.31 Q244.19 380.458 244.19 385.898 Q244.19 391.222 241.042 394.439 Q237.894 397.657 232.662 397.657 Q226.667 397.657 223.496 393.073 Q220.324 388.467 220.324 379.74 Q220.324 371.546 224.213 366.685 Q228.102 361.8 234.653 361.8 Q236.412 361.8 238.195 362.148 Q240 362.495 241.945 363.189 Z" fill="#000000" fill-rule="nonzero" fill-opacity="1"></path><path clip-path="url(#clip730)" d="M21.7677 1188.72 L39.6235 1188.72 L39.6235 1180.64 Q39.6235 1176.15 37.3 1173.7 Q34.9765 1171.25 30.6797 1171.25 Q26.4147 1171.25 24.0912 1173.7 Q21.7677 1176.15 21.7677 1180.64 L21.7677 1188.72 M16.4842 1195.15 L16.4842 1180.64 Q16.4842 1172.65 20.1126 1168.57 Q23.7092 1164.47 30.6797 1164.47 Q37.7138 1164.47 41.3104 1168.57 Q44.907 1172.65 44.907 1180.64 L44.907 1188.72 L64.0042 1188.72 L64.0042 1195.15 L16.4842 1195.15 Z" fill="#000000" fill-rule="nonzero" fill-opacity="1"></path><path clip-path="url(#clip730)" d="M44.7161 1127.93 L47.5806 1127.93 L47.5806 1154.85 Q53.6281 1154.47 56.8109 1151.23 Q59.9619 1147.95 59.9619 1142.12 Q59.9619 1138.75 59.1344 1135.6 Q58.3069 1132.42 56.6518 1129.3 L62.1899 1129.3 Q63.5267 1132.45 64.227 1135.76 Q64.9272 1139.07 64.9272 1142.47 Q64.9272 1151 59.9619 1156 Q54.9967 1160.97 46.5303 1160.97 Q37.7774 1160.97 32.6531 1156.26 Q27.4968 1151.51 27.4968 1143.49 Q27.4968 1136.3 32.1438 1132.13 Q36.7589 1127.93 44.7161 1127.93 M42.9973 1133.78 Q38.1912 1133.85 35.3266 1136.49 Q32.4621 1139.1 32.4621 1143.43 Q32.4621 1148.33 35.2312 1151.29 Q38.0002 1154.22 43.0292 1154.66 L42.9973 1133.78 Z" fill="#000000" fill-rule="nonzero" fill-opacity="1"></path><path clip-path="url(#clip730)" d="M33.8307 1097.66 Q33.2578 1098.65 33.0032 1099.82 Q32.7167 1100.97 32.7167 1102.37 Q32.7167 1107.33 35.9632 1110.01 Q39.1779 1112.65 45.2253 1112.65 L64.0042 1112.65 L64.0042 1118.54 L28.3562 1118.54 L28.3562 1112.65 L33.8944 1112.65 Q30.6479 1110.8 29.0883 1107.84 Q27.4968 1104.88 27.4968 1100.65 Q27.4968 1100.05 27.5923 1099.31 Q27.656 1098.58 27.8151 1097.69 L33.8307 1097.66 Z" fill="#000000" fill-rule="nonzero" fill-opacity="1"></path><path clip-path="url(#clip730)" d="M29.7248 1067.29 L35.1993 1067.29 Q33.8307 1069.78 33.1623 1072.29 Q32.4621 1074.77 32.4621 1077.32 Q32.4621 1083.02 36.0905 1086.17 Q39.6872 1089.32 46.212 1089.32 Q52.7369 1089.32 56.3653 1086.17 Q59.9619 1083.02 59.9619 1077.32 Q59.9619 1074.77 59.2935 1072.29 Q58.5933 1069.78 57.2247 1067.29 L62.6355 1067.29 Q63.7814 1069.75 64.3543 1072.39 Q64.9272 1075 64.9272 1077.96 Q64.9272 1086.01 59.8664 1090.75 Q54.8057 1095.49 46.212 1095.49 Q37.491 1095.49 32.4939 1090.72 Q27.4968 1085.91 27.4968 1077.57 Q27.4968 1074.87 28.0697 1072.29 Q28.6108 1069.71 29.7248 1067.29 Z" fill="#000000" fill-rule="nonzero" fill-opacity="1"></path><path clip-path="url(#clip730)" d="M44.7161 1026.62 L47.5806 1026.62 L47.5806 1053.54 Q53.6281 1053.16 56.8109 1049.92 Q59.9619 1046.64 59.9619 1040.81 Q59.9619 1037.44 59.1344 1034.29 Q58.3069 1031.11 56.6518 1027.99 L62.1899 1027.99 Q63.5267 1031.14 64.227 1034.45 Q64.9272 1037.76 64.9272 1041.16 Q64.9272 1049.69 59.9619 1054.69 Q54.9967 1059.66 46.5303 1059.66 Q37.7774 1059.66 32.6531 1054.94 Q27.4968 1050.2 27.4968 1042.18 Q27.4968 1034.99 32.1438 1030.82 Q36.7589 1026.62 44.7161 1026.62 M42.9973 1032.47 Q38.1912 1032.54 35.3266 1035.18 Q32.4621 1037.79 32.4621 1042.12 Q32.4621 1047.02 35.2312 1049.98 Q38.0002 1052.91 43.0292 1053.35 L42.9973 1032.47 Z" fill="#000000" fill-rule="nonzero" fill-opacity="1"></path><path clip-path="url(#clip730)" d="M42.4881 987.373 L64.0042 987.373 L64.0042 993.229 L42.679 993.229 Q37.6183 993.229 35.1038 995.203 Q32.5894 997.176 32.5894 1001.12 Q32.5894 1005.87 35.6131 1008.6 Q38.6368 1011.34 43.8567 1011.34 L64.0042 1011.34 L64.0042 1017.23 L28.3562 1017.23 L28.3562 1011.34 L33.8944 1011.34 Q30.6797 1009.24 29.0883 1006.41 Q27.4968 1003.54 27.4968 999.818 Q27.4968 993.675 31.3163 990.524 Q35.1038 987.373 42.4881 987.373 Z" fill="#000000" fill-rule="nonzero" fill-opacity="1"></path><path clip-path="url(#clip730)" d="M18.2347 969.899 L28.3562 969.899 L28.3562 957.836 L32.9077 957.836 L32.9077 969.899 L52.2594 969.899 Q56.6199 969.899 57.8613 968.721 Q59.1026 967.512 59.1026 963.852 L59.1026 957.836 L64.0042 957.836 L64.0042 963.852 Q64.0042 970.631 61.4897 973.209 Q58.9434 975.787 52.2594 975.787 L32.9077 975.787 L32.9077 980.084 L28.3562 980.084 L28.3562 975.787 L18.2347 975.787 L18.2347 969.899 Z" fill="#000000" fill-rule="nonzero" fill-opacity="1"></path><path clip-path="url(#clip730)" d="M21.7677 922.729 L58.7206 922.729 L58.7206 914.963 Q58.7206 905.128 54.2646 900.576 Q49.8086 895.993 40.1964 895.993 Q30.6479 895.993 26.2237 900.576 Q21.7677 905.128 21.7677 914.963 L21.7677 922.729 M16.4842 929.158 L16.4842 915.95 Q16.4842 902.136 22.2451 895.675 Q27.9743 889.214 40.1964 889.214 Q52.4822 889.214 58.2432 895.707 Q64.0042 902.2 64.0042 915.95 L64.0042 929.158 L16.4842 929.158 Z" fill="#000000" fill-rule="nonzero" fill-opacity="1"></path><path clip-path="url(#clip730)" d="M44.7161 848.728 L47.5806 848.728 L47.5806 875.655 Q53.6281 875.273 56.8109 872.026 Q59.9619 868.748 59.9619 862.923 Q59.9619 859.549 59.1344 856.398 Q58.3069 853.216 56.6518 850.096 L62.1899 850.096 Q63.5267 853.247 64.227 856.558 Q64.9272 859.868 64.9272 863.273 Q64.9272 871.803 59.9619 876.801 Q54.9967 881.766 46.5303 881.766 Q37.7774 881.766 32.6531 877.055 Q27.4968 872.313 27.4968 864.292 Q27.4968 857.099 32.1438 852.929 Q36.7589 848.728 44.7161 848.728 M42.9973 854.584 Q38.1912 854.648 35.3266 857.29 Q32.4621 859.9 32.4621 864.228 Q32.4621 869.13 35.2312 872.09 Q38.0002 875.018 43.0292 875.464 L42.9973 854.584 Z" fill="#000000" fill-rule="nonzero" fill-opacity="1"></path><path clip-path="url(#clip730)" d="M28.3562 843.317 L28.3562 837.11 L58.275 825.97 L28.3562 814.83 L28.3562 808.624 L64.0042 821.992 L64.0042 829.949 L28.3562 843.317 Z" fill="#000000" fill-rule="nonzero" fill-opacity="1"></path><path clip-path="url(#clip730)" d="M28.3562 800.539 L28.3562 794.683 L64.0042 794.683 L64.0042 800.539 L28.3562 800.539 M14.479 800.539 L14.479 794.683 L21.895 794.683 L21.895 800.539 L14.479 800.539 Z" fill="#000000" fill-rule="nonzero" fill-opacity="1"></path><path clip-path="url(#clip730)" d="M46.0847 766.228 Q46.0847 773.326 47.7079 776.063 Q49.3312 778.8 53.2461 778.8 Q56.3653 778.8 58.2114 776.763 Q60.0256 774.695 60.0256 771.162 Q60.0256 766.292 56.5881 763.364 Q53.1188 760.404 47.3897 760.404 L46.0847 760.404 L46.0847 766.228 M43.6657 754.547 L64.0042 754.547 L64.0042 760.404 L58.5933 760.404 Q61.8398 762.409 63.3994 765.401 Q64.9272 768.393 64.9272 772.721 Q64.9272 778.196 61.8716 781.442 Q58.7843 784.657 53.6281 784.657 Q47.6125 784.657 44.5569 780.647 Q41.5014 776.604 41.5014 768.615 L41.5014 760.404 L40.9285 760.404 Q36.8862 760.404 34.6901 763.077 Q32.4621 765.719 32.4621 770.525 Q32.4621 773.581 33.1941 776.477 Q33.9262 779.373 35.3903 782.047 L29.9795 782.047 Q28.7381 778.832 28.1334 775.809 Q27.4968 772.785 27.4968 769.92 Q27.4968 762.186 31.5072 758.367 Q35.5176 754.547 43.6657 754.547 Z" fill="#000000" fill-rule="nonzero" fill-opacity="1"></path><path clip-path="url(#clip730)" d="M18.2347 736.691 L28.3562 736.691 L28.3562 724.628 L32.9077 724.628 L32.9077 736.691 L52.2594 736.691 Q56.6199 736.691 57.8613 735.514 Q59.1026 734.304 59.1026 730.644 L59.1026 724.628 L64.0042 724.628 L64.0042 730.644 Q64.0042 737.423 61.4897 740.002 Q58.9434 742.58 52.2594 742.58 L32.9077 742.58 L32.9077 746.876 L28.3562 746.876 L28.3562 742.58 L18.2347 742.58 L18.2347 736.691 Z" fill="#000000" fill-rule="nonzero" fill-opacity="1"></path><path clip-path="url(#clip730)" d="M28.3562 716.926 L28.3562 711.069 L64.0042 711.069 L64.0042 716.926 L28.3562 716.926 M14.479 716.926 L14.479 711.069 L21.895 711.069 L21.895 716.926 L14.479 716.926 Z" fill="#000000" fill-rule="nonzero" fill-opacity="1"></path><path clip-path="url(#clip730)" d="M32.4621 685.002 Q32.4621 689.712 36.1542 692.45 Q39.8145 695.187 46.212 695.187 Q52.6095 695.187 56.3017 692.482 Q59.9619 689.744 59.9619 685.002 Q59.9619 680.323 56.2698 677.586 Q52.5777 674.849 46.212 674.849 Q39.8781 674.849 36.186 677.586 Q32.4621 680.323 32.4621 685.002 M27.4968 685.002 Q27.4968 677.363 32.4621 673.002 Q37.4273 668.642 46.212 668.642 Q54.9649 668.642 59.9619 673.002 Q64.9272 677.363 64.9272 685.002 Q64.9272 692.672 59.9619 697.033 Q54.9649 701.362 46.212 701.362 Q37.4273 701.362 32.4621 697.033 Q27.4968 692.672 27.4968 685.002 Z" fill="#000000" fill-rule="nonzero" fill-opacity="1"></path><path clip-path="url(#clip730)" d="M42.4881 629.302 L64.0042 629.302 L64.0042 635.158 L42.679 635.158 Q37.6183 635.158 35.1038 637.132 Q32.5894 639.105 32.5894 643.052 Q32.5894 647.794 35.6131 650.532 Q38.6368 653.269 43.8567 653.269 L64.0042 653.269 L64.0042 659.157 L28.3562 659.157 L28.3562 653.269 L33.8944 653.269 Q30.6797 651.168 29.0883 648.335 Q27.4968 645.471 27.4968 641.747 Q27.4968 635.604 31.3163 632.453 Q35.1038 629.302 42.4881 629.302 Z" fill="#000000" fill-rule="nonzero" fill-opacity="1"></path><path clip-path="url(#clip730)" d="M14.479 578.854 L19.3487 578.854 L19.3487 584.455 Q19.3487 587.606 20.6219 588.848 Q21.895 590.057 25.2052 590.057 L28.3562 590.057 L28.3562 580.413 L32.9077 580.413 L32.9077 590.057 L64.0042 590.057 L64.0042 595.946 L32.9077 595.946 L32.9077 601.547 L28.3562 601.547 L28.3562 595.946 L25.8736 595.946 Q19.9216 595.946 17.2162 593.176 Q14.479 590.407 14.479 584.392 L14.479 578.854 Z" fill="#000000" fill-rule="nonzero" fill-opacity="1"></path><path clip-path="url(#clip730)" d="M33.8307 553.295 Q33.2578 554.282 33.0032 555.46 Q32.7167 556.606 32.7167 558.006 Q32.7167 562.971 35.9632 565.645 Q39.1779 568.287 45.2253 568.287 L64.0042 568.287 L64.0042 574.175 L28.3562 574.175 L28.3562 568.287 L33.8944 568.287 Q30.6479 566.441 29.0883 563.48 Q27.4968 560.52 27.4968 556.287 Q27.4968 555.682 27.5923 554.95 Q27.656 554.218 27.8151 553.327 L33.8307 553.295 Z" fill="#000000" fill-rule="nonzero" fill-opacity="1"></path><path clip-path="url(#clip730)" d="M32.4621 534.771 Q32.4621 539.482 36.1542 542.219 Q39.8145 544.956 46.212 544.956 Q52.6095 544.956 56.3017 542.251 Q59.9619 539.514 59.9619 534.771 Q59.9619 530.092 56.2698 527.355 Q52.5777 524.618 46.212 524.618 Q39.8781 524.618 36.186 527.355 Q32.4621 530.092 32.4621 534.771 M27.4968 534.771 Q27.4968 527.132 32.4621 522.772 Q37.4273 518.411 46.212 518.411 Q54.9649 518.411 59.9619 522.772 Q64.9272 527.132 64.9272 534.771 Q64.9272 542.442 59.9619 546.802 Q54.9649 551.131 46.212 551.131 Q37.4273 551.131 32.4621 546.802 Q27.4968 542.442 27.4968 534.771 Z" fill="#000000" fill-rule="nonzero" fill-opacity="1"></path><path clip-path="url(#clip730)" d="M35.1993 480.949 Q31.2526 478.753 29.3747 475.697 Q27.4968 472.642 27.4968 468.504 Q27.4968 462.934 31.4117 459.91 Q35.2948 456.887 42.4881 456.887 L64.0042 456.887 L64.0042 462.775 L42.679 462.775 Q37.5546 462.775 35.072 464.589 Q32.5894 466.403 32.5894 470.127 Q32.5894 474.679 35.6131 477.321 Q38.6368 479.962 43.8567 479.962 L64.0042 479.962 L64.0042 485.851 L42.679 485.851 Q37.5228 485.851 35.072 487.665 Q32.5894 489.479 32.5894 493.267 Q32.5894 497.755 35.6449 500.396 Q38.6686 503.038 43.8567 503.038 L64.0042 503.038 L64.0042 508.926 L28.3562 508.926 L28.3562 503.038 L33.8944 503.038 Q30.616 501.033 29.0564 498.232 Q27.4968 495.431 27.4968 491.58 Q27.4968 487.697 29.4702 484.991 Q31.4436 482.254 35.1993 480.949 Z" fill="#000000" fill-rule="nonzero" fill-opacity="1"></path><path clip-path="url(#clip730)" d="M18.0438 395.744 L24.314 395.744 Q22.5634 399.404 21.704 402.651 Q20.8447 405.897 20.8447 408.921 Q20.8447 414.173 22.8817 417.037 Q24.9187 419.87 28.6745 419.87 Q31.8255 419.87 33.4488 417.992 Q35.0402 416.083 36.0269 410.799 L36.8226 406.916 Q38.1912 399.723 41.6605 396.317 Q45.098 392.88 50.8908 392.88 Q57.7976 392.88 61.3624 397.526 Q64.9272 402.142 64.9272 411.085 Q64.9272 414.459 64.1633 418.279 Q63.3994 422.066 61.9035 426.14 L55.2831 426.14 Q57.4793 422.225 58.5933 418.47 Q59.7073 414.714 59.7073 411.085 Q59.7073 405.579 57.543 402.587 Q55.3786 399.595 51.3682 399.595 Q47.8671 399.595 45.8937 401.76 Q43.9204 403.892 42.9337 408.794 L42.1698 412.709 Q40.7375 419.902 37.682 423.117 Q34.6264 426.331 29.1837 426.331 Q22.8817 426.331 19.2532 421.907 Q15.6248 417.451 15.6248 409.653 Q15.6248 406.311 16.2295 402.842 Q16.8343 399.373 18.0438 395.744 Z" fill="#000000" fill-rule="nonzero" fill-opacity="1"></path><path clip-path="url(#clip730)" d="M18.0438 354.367 L24.314 354.367 Q22.5634 358.027 21.704 361.274 Q20.8447 364.52 20.8447 367.544 Q20.8447 372.796 22.8817 375.66 Q24.9187 378.493 28.6745 378.493 Q31.8255 378.493 33.4488 376.615 Q35.0402 374.705 36.0269 369.422 L36.8226 365.539 Q38.1912 358.346 41.6605 354.94 Q45.098 351.502 50.8908 351.502 Q57.7976 351.502 61.3624 356.149 Q64.9272 360.765 64.9272 369.708 Q64.9272 373.082 64.1633 376.902 Q63.3994 380.689 61.9035 384.763 L55.2831 384.763 Q57.4793 380.848 58.5933 377.093 Q59.7073 373.337 59.7073 369.708 Q59.7073 364.202 57.543 361.21 Q55.3786 358.218 51.3682 358.218 Q47.8671 358.218 45.8937 360.383 Q43.9204 362.515 42.9337 367.417 L42.1698 371.332 Q40.7375 378.525 37.682 381.74 Q34.6264 384.954 29.1837 384.954 Q22.8817 384.954 19.2532 380.53 Q15.6248 376.074 15.6248 368.276 Q15.6248 364.934 16.2295 361.465 Q16.8343 357.995 18.0438 354.367 Z" fill="#000000" fill-rule="nonzero" fill-opacity="1"></path><path clip-path="url(#clip730)" d="M735.006 12.096 L743.189 12.096 L743.189 72.576 L735.006 72.576 L735.006 12.096 Z" fill="#000000" fill-rule="nonzero" fill-opacity="1"></path><path clip-path="url(#clip730)" d="M794.473 35.9153 Q797.269 30.8922 801.157 28.5022 Q805.046 26.1121 810.312 26.1121 Q817.402 26.1121 821.25 31.0947 Q825.098 36.0368 825.098 45.1919 L825.098 72.576 L817.604 72.576 L817.604 45.4349 Q817.604 38.913 815.295 35.7533 Q812.986 32.5936 808.247 32.5936 Q802.454 32.5936 799.091 36.4419 Q795.729 40.2903 795.729 46.9338 L795.729 72.576 L788.235 72.576 L788.235 45.4349 Q788.235 38.8725 785.926 35.7533 Q783.617 32.5936 778.796 32.5936 Q773.085 32.5936 769.722 36.4824 Q766.36 40.3308 766.36 46.9338 L766.36 72.576 L758.866 72.576 L758.866 27.2059 L766.36 27.2059 L766.36 34.2544 Q768.912 30.082 772.477 28.0971 Q776.042 26.1121 780.943 26.1121 Q785.886 26.1121 789.329 28.6237 Q792.813 31.1352 794.473 35.9153 Z" fill="#000000" fill-rule="nonzero" fill-opacity="1"></path><path clip-path="url(#clip730)" d="M847.176 65.7705 L847.176 89.8329 L839.682 89.8329 L839.682 27.2059 L847.176 27.2059 L847.176 34.0924 Q849.525 30.0415 853.09 28.0971 Q856.695 26.1121 861.678 26.1121 Q869.942 26.1121 875.086 32.6746 Q880.272 39.2371 880.272 49.9314 Q880.272 60.6258 875.086 67.1883 Q869.942 73.7508 861.678 73.7508 Q856.695 73.7508 853.09 71.8063 Q849.525 69.8214 847.176 65.7705 M872.534 49.9314 Q872.534 41.7081 869.132 37.0496 Q865.769 32.3505 859.855 32.3505 Q853.941 32.3505 850.538 37.0496 Q847.176 41.7081 847.176 49.9314 Q847.176 58.1548 850.538 62.8538 Q853.941 67.5124 859.855 67.5124 Q865.769 67.5124 869.132 62.8538 Q872.534 58.1548 872.534 49.9314 Z" fill="#000000" fill-rule="nonzero" fill-opacity="1"></path><path clip-path="url(#clip730)" d="M891.857 54.671 L891.857 27.2059 L899.311 27.2059 L899.311 54.3874 Q899.311 60.8284 901.822 64.0691 Q904.334 67.2693 909.357 67.2693 Q915.393 67.2693 918.877 63.421 Q922.401 59.5726 922.401 52.9291 L922.401 27.2059 L929.855 27.2059 L929.855 72.576 L922.401 72.576 L922.401 65.6084 Q919.687 69.7404 916.082 71.7658 Q912.517 73.7508 907.777 73.7508 Q899.959 73.7508 895.908 68.8897 Q891.857 64.0286 891.857 54.671 M910.613 26.1121 L910.613 26.1121 Z" fill="#000000" fill-rule="nonzero" fill-opacity="1"></path><path clip-path="url(#clip730)" d="M945.208 9.54393 L952.661 9.54393 L952.661 72.576 L945.208 72.576 L945.208 9.54393 Z" fill="#000000" fill-rule="nonzero" fill-opacity="1"></path><path clip-path="url(#clip730)" d="M997.181 28.5427 L997.181 35.5912 Q994.021 33.9709 990.618 33.1607 Q987.215 32.3505 983.57 32.3505 Q978.02 32.3505 975.225 34.0519 Q972.47 35.7533 972.47 39.156 Q972.47 41.7486 974.455 43.2475 Q976.44 44.7058 982.435 46.0426 L984.987 46.6097 Q992.927 48.3111 996.249 51.4303 Q999.611 54.509 999.611 60.0587 Q999.611 66.3781 994.588 70.0644 Q989.605 73.7508 980.856 73.7508 Q977.21 73.7508 973.24 73.0216 Q969.31 72.3329 964.935 70.9151 L964.935 63.2184 Q969.067 65.3654 973.078 66.4591 Q977.088 67.5124 981.018 67.5124 Q986.284 67.5124 989.119 65.73 Q991.955 63.9071 991.955 60.6258 Q991.955 57.5877 989.889 55.9673 Q987.864 54.3469 980.937 52.8481 L978.344 52.2405 Q971.417 50.7821 968.338 47.7845 Q965.26 44.7463 965.26 39.4801 Q965.26 33.0797 969.797 29.5959 Q974.334 26.1121 982.678 26.1121 Q986.81 26.1121 990.456 26.7198 Q994.102 27.3274 997.181 28.5427 Z" fill="#000000" fill-rule="nonzero" fill-opacity="1"></path><path clip-path="url(#clip730)" d="M1050.29 48.0275 L1050.29 51.6733 L1016.02 51.6733 Q1016.5 59.3701 1020.64 63.421 Q1024.81 67.4314 1032.22 67.4314 Q1036.51 67.4314 1040.53 66.3781 Q1044.58 65.3249 1048.55 63.2184 L1048.55 70.267 Q1044.54 71.9684 1040.32 72.8596 Q1036.11 73.7508 1031.78 73.7508 Q1020.92 73.7508 1014.56 67.4314 Q1008.24 61.1119 1008.24 50.3365 Q1008.24 39.1965 1014.23 32.6746 Q1020.27 26.1121 1030.48 26.1121 Q1039.63 26.1121 1044.94 32.0264 Q1050.29 37.9003 1050.29 48.0275 M1042.83 45.84 Q1042.75 39.7232 1039.39 36.0774 Q1036.07 32.4315 1030.56 32.4315 Q1024.32 32.4315 1020.55 35.9558 Q1016.83 39.4801 1016.26 45.8805 L1042.83 45.84 Z" fill="#000000" fill-rule="nonzero" fill-opacity="1"></path><path clip-path="url(#clip730)" d="M1117.9 44.2197 Q1120.53 45.1109 1123 48.0275 Q1125.51 50.9442 1128.02 56.0483 L1136.33 72.576 L1127.54 72.576 L1119.8 57.061 Q1116.8 50.9847 1113.97 48.9997 Q1111.17 47.0148 1106.31 47.0148 L1097.4 47.0148 L1097.4 72.576 L1089.22 72.576 L1089.22 12.096 L1107.69 12.096 Q1118.06 12.096 1123.16 16.4305 Q1128.27 20.7649 1128.27 29.5149 Q1128.27 35.2267 1125.59 38.994 Q1122.96 42.7613 1117.9 44.2197 M1097.4 18.8205 L1097.4 40.2903 L1107.69 40.2903 Q1113.6 40.2903 1116.6 37.5762 Q1119.64 34.8216 1119.64 29.5149 Q1119.64 24.2082 1116.6 21.5346 Q1113.6 18.8205 1107.69 18.8205 L1097.4 18.8205 Z" fill="#000000" fill-rule="nonzero" fill-opacity="1"></path><path clip-path="url(#clip730)" d="M1181.62 48.0275 L1181.62 51.6733 L1147.35 51.6733 Q1147.83 59.3701 1151.97 63.421 Q1156.14 67.4314 1163.55 67.4314 Q1167.85 67.4314 1171.86 66.3781 Q1175.91 65.3249 1179.88 63.2184 L1179.88 70.267 Q1175.87 71.9684 1171.65 72.8596 Q1167.44 73.7508 1163.11 73.7508 Q1152.25 73.7508 1145.89 67.4314 Q1139.57 61.1119 1139.57 50.3365 Q1139.57 39.1965 1145.57 32.6746 Q1151.6 26.1121 1161.81 26.1121 Q1170.96 26.1121 1176.27 32.0264 Q1181.62 37.9003 1181.62 48.0275 M1174.16 45.84 Q1174.08 39.7232 1170.72 36.0774 Q1167.4 32.4315 1161.89 32.4315 Q1155.65 32.4315 1151.88 35.9558 Q1148.16 39.4801 1147.59 45.8805 L1174.16 45.84 Z" fill="#000000" fill-rule="nonzero" fill-opacity="1"></path><path clip-path="url(#clip730)" d="M1222.78 28.5427 L1222.78 35.5912 Q1219.62 33.9709 1216.21 33.1607 Q1212.81 32.3505 1209.16 32.3505 Q1203.61 32.3505 1200.82 34.0519 Q1198.07 35.7533 1198.07 39.156 Q1198.07 41.7486 1200.05 43.2475 Q1202.03 44.7058 1208.03 46.0426 L1210.58 46.6097 Q1218.52 48.3111 1221.84 51.4303 Q1225.21 54.509 1225.21 60.0587 Q1225.21 66.3781 1220.18 70.0644 Q1215.2 73.7508 1206.45 73.7508 Q1202.8 73.7508 1198.83 73.0216 Q1194.91 72.3329 1190.53 70.9151 L1190.53 63.2184 Q1194.66 65.3654 1198.67 66.4591 Q1202.68 67.5124 1206.61 67.5124 Q1211.88 67.5124 1214.71 65.73 Q1217.55 63.9071 1217.55 60.6258 Q1217.55 57.5877 1215.48 55.9673 Q1213.46 54.3469 1206.53 52.8481 L1203.94 52.2405 Q1197.01 50.7821 1193.93 47.7845 Q1190.85 44.7463 1190.85 39.4801 Q1190.85 33.0797 1195.39 29.5959 Q1199.93 26.1121 1208.27 26.1121 Q1212.41 26.1121 1216.05 26.7198 Q1219.7 27.3274 1222.78 28.5427 Z" fill="#000000" fill-rule="nonzero" fill-opacity="1"></path><path clip-path="url(#clip730)" d="M1244.29 65.7705 L1244.29 89.8329 L1236.79 89.8329 L1236.79 27.2059 L1244.29 27.2059 L1244.29 34.0924 Q1246.64 30.0415 1250.2 28.0971 Q1253.81 26.1121 1258.79 26.1121 Q1267.05 26.1121 1272.2 32.6746 Q1277.38 39.2371 1277.38 49.9314 Q1277.38 60.6258 1272.2 67.1883 Q1267.05 73.7508 1258.79 73.7508 Q1253.81 73.7508 1250.2 71.8063 Q1246.64 69.8214 1244.29 65.7705 M1269.64 49.9314 Q1269.64 41.7081 1266.24 37.0496 Q1262.88 32.3505 1256.97 32.3505 Q1251.05 32.3505 1247.65 37.0496 Q1244.29 41.7081 1244.29 49.9314 Q1244.29 58.1548 1247.65 62.8538 Q1251.05 67.5124 1256.97 67.5124 Q1262.88 67.5124 1266.24 62.8538 Q1269.64 58.1548 1269.64 49.9314 Z" fill="#000000" fill-rule="nonzero" fill-opacity="1"></path><path clip-path="url(#clip730)" d="M1307.32 32.4315 Q1301.32 32.4315 1297.84 37.1306 Q1294.36 41.7891 1294.36 49.9314 Q1294.36 58.0738 1297.8 62.7728 Q1301.28 67.4314 1307.32 67.4314 Q1313.27 67.4314 1316.76 62.7323 Q1320.24 58.0333 1320.24 49.9314 Q1320.24 41.8701 1316.76 37.1711 Q1313.27 32.4315 1307.32 32.4315 M1307.32 26.1121 Q1317.04 26.1121 1322.59 32.4315 Q1328.14 38.7509 1328.14 49.9314 Q1328.14 61.0714 1322.59 67.4314 Q1317.04 73.7508 1307.32 73.7508 Q1297.56 73.7508 1292.01 67.4314 Q1286.5 61.0714 1286.5 49.9314 Q1286.5 38.7509 1292.01 32.4315 Q1297.56 26.1121 1307.32 26.1121 Z" fill="#000000" fill-rule="nonzero" fill-opacity="1"></path><path clip-path="url(#clip730)" d="M1378.21 45.1919 L1378.21 72.576 L1370.76 72.576 L1370.76 45.4349 Q1370.76 38.994 1368.24 35.7938 Q1365.73 32.5936 1360.71 32.5936 Q1354.67 32.5936 1351.19 36.4419 Q1347.71 40.2903 1347.71 46.9338 L1347.71 72.576 L1340.21 72.576 L1340.21 27.2059 L1347.71 27.2059 L1347.71 34.2544 Q1350.38 30.163 1353.98 28.1376 Q1357.63 26.1121 1362.37 26.1121 Q1370.19 26.1121 1374.2 30.9732 Q1378.21 35.7938 1378.21 45.1919 Z" fill="#000000" fill-rule="nonzero" fill-opacity="1"></path><path clip-path="url(#clip730)" d="M1422 28.5427 L1422 35.5912 Q1418.84 33.9709 1415.44 33.1607 Q1412.03 32.3505 1408.39 32.3505 Q1402.84 32.3505 1400.04 34.0519 Q1397.29 35.7533 1397.29 39.156 Q1397.29 41.7486 1399.27 43.2475 Q1401.26 44.7058 1407.25 46.0426 L1409.81 46.6097 Q1417.75 48.3111 1421.07 51.4303 Q1424.43 54.509 1424.43 60.0587 Q1424.43 66.3781 1419.41 70.0644 Q1414.42 73.7508 1405.67 73.7508 Q1402.03 73.7508 1398.06 73.0216 Q1394.13 72.3329 1389.75 70.9151 L1389.75 63.2184 Q1393.89 65.3654 1397.9 66.4591 Q1401.91 67.5124 1405.84 67.5124 Q1411.1 67.5124 1413.94 65.73 Q1416.77 63.9071 1416.77 60.6258 Q1416.77 57.5877 1414.71 55.9673 Q1412.68 54.3469 1405.75 52.8481 L1403.16 52.2405 Q1396.24 50.7821 1393.16 47.7845 Q1390.08 44.7463 1390.08 39.4801 Q1390.08 33.0797 1394.61 29.5959 Q1399.15 26.1121 1407.5 26.1121 Q1411.63 26.1121 1415.27 26.7198 Q1418.92 27.3274 1422 28.5427 Z" fill="#000000" fill-rule="nonzero" fill-opacity="1"></path><path clip-path="url(#clip730)" d="M1475.11 48.0275 L1475.11 51.6733 L1440.84 51.6733 Q1441.32 59.3701 1445.45 63.421 Q1449.63 67.4314 1457.04 67.4314 Q1461.33 67.4314 1465.34 66.3781 Q1469.39 65.3249 1473.36 63.2184 L1473.36 70.267 Q1469.35 71.9684 1465.14 72.8596 Q1460.93 73.7508 1456.59 73.7508 Q1445.74 73.7508 1439.38 67.4314 Q1433.06 61.1119 1433.06 50.3365 Q1433.06 39.1965 1439.05 32.6746 Q1445.09 26.1121 1455.3 26.1121 Q1464.45 26.1121 1469.76 32.0264 Q1475.11 37.9003 1475.11 48.0275 M1467.65 45.84 Q1467.57 39.7232 1464.21 36.0774 Q1460.89 32.4315 1455.38 32.4315 Q1449.14 32.4315 1445.37 35.9558 Q1441.65 39.4801 1441.08 45.8805 L1467.65 45.84 Z" fill="#000000" fill-rule="nonzero" fill-opacity="1"></path><path clip-path="url(#clip730)" d="M1514.04 12.096 L1548.79 12.096 L1548.79 18.9825 L1522.22 18.9825 L1522.22 36.8065 L1546.2 36.8065 L1546.2 43.6931 L1522.22 43.6931 L1522.22 72.576 L1514.04 72.576 L1514.04 12.096 Z" fill="#000000" fill-rule="nonzero" fill-opacity="1"></path><path clip-path="url(#clip730)" d="M1556.12 54.671 L1556.12 27.2059 L1563.58 27.2059 L1563.58 54.3874 Q1563.58 60.8284 1566.09 64.0691 Q1568.6 67.2693 1573.62 67.2693 Q1579.66 67.2693 1583.14 63.421 Q1586.67 59.5726 1586.67 52.9291 L1586.67 27.2059 L1594.12 27.2059 L1594.12 72.576 L1586.67 72.576 L1586.67 65.6084 Q1583.95 69.7404 1580.35 71.7658 Q1576.78 73.7508 1572.04 73.7508 Q1564.23 73.7508 1560.18 68.8897 Q1556.12 64.0286 1556.12 54.671 M1574.88 26.1121 L1574.88 26.1121 Z" fill="#000000" fill-rule="nonzero" fill-opacity="1"></path><path clip-path="url(#clip730)" d="M1647.19 45.1919 L1647.19 72.576 L1639.74 72.576 L1639.74 45.4349 Q1639.74 38.994 1637.22 35.7938 Q1634.71 32.5936 1629.69 32.5936 Q1623.65 32.5936 1620.17 36.4419 Q1616.69 40.2903 1616.69 46.9338 L1616.69 72.576 L1609.19 72.576 L1609.19 27.2059 L1616.69 27.2059 L1616.69 34.2544 Q1619.36 30.163 1622.96 28.1376 Q1626.61 26.1121 1631.35 26.1121 Q1639.17 26.1121 1643.18 30.9732 Q1647.19 35.7938 1647.19 45.1919 Z" fill="#000000" fill-rule="nonzero" fill-opacity="1"></path><path clip-path="url(#clip730)" d="M1694.71 28.9478 L1694.71 35.9153 Q1691.55 34.1734 1688.35 33.3227 Q1685.19 32.4315 1681.95 32.4315 Q1674.69 32.4315 1670.68 37.0496 Q1666.67 41.6271 1666.67 49.9314 Q1666.67 58.2358 1670.68 62.8538 Q1674.69 67.4314 1681.95 67.4314 Q1685.19 67.4314 1688.35 66.5807 Q1691.55 65.6895 1694.71 63.9476 L1694.71 70.8341 Q1691.59 72.2924 1688.22 73.0216 Q1684.9 73.7508 1681.14 73.7508 Q1670.89 73.7508 1664.85 67.3098 Q1658.81 60.8689 1658.81 49.9314 Q1658.81 38.832 1664.89 32.472 Q1671.01 26.1121 1681.62 26.1121 Q1685.06 26.1121 1688.35 26.8413 Q1691.63 27.5299 1694.71 28.9478 Z" fill="#000000" fill-rule="nonzero" fill-opacity="1"></path><path clip-path="url(#clip730)" d="M1715.04 14.324 L1715.04 27.2059 L1730.39 27.2059 L1730.39 32.9987 L1715.04 32.9987 L1715.04 57.6282 Q1715.04 63.1779 1716.54 64.7578 Q1718.08 66.3376 1722.74 66.3376 L1730.39 66.3376 L1730.39 72.576 L1722.74 72.576 Q1714.11 72.576 1710.83 69.3758 Q1707.55 66.1351 1707.55 57.6282 L1707.55 32.9987 L1702.08 32.9987 L1702.08 27.2059 L1707.55 27.2059 L1707.55 14.324 L1715.04 14.324 Z" fill="#000000" fill-rule="nonzero" fill-opacity="1"></path><path clip-path="url(#clip730)" d="M1740.2 27.2059 L1747.65 27.2059 L1747.65 72.576 L1740.2 72.576 L1740.2 27.2059 M1740.2 9.54393 L1747.65 9.54393 L1747.65 18.9825 L1740.2 18.9825 L1740.2 9.54393 Z" fill="#000000" fill-rule="nonzero" fill-opacity="1"></path><path clip-path="url(#clip730)" d="M1780.83 32.4315 Q1774.83 32.4315 1771.35 37.1306 Q1767.87 41.7891 1767.87 49.9314 Q1767.87 58.0738 1771.31 62.7728 Q1774.79 67.4314 1780.83 67.4314 Q1786.78 67.4314 1790.27 62.7323 Q1793.75 58.0333 1793.75 49.9314 Q1793.75 41.8701 1790.27 37.1711 Q1786.78 32.4315 1780.83 32.4315 M1780.83 26.1121 Q1790.55 26.1121 1796.1 32.4315 Q1801.65 38.7509 1801.65 49.9314 Q1801.65 61.0714 1796.1 67.4314 Q1790.55 73.7508 1780.83 73.7508 Q1771.07 73.7508 1765.52 67.4314 Q1760.01 61.0714 1760.01 49.9314 Q1760.01 38.7509 1765.52 32.4315 Q1771.07 26.1121 1780.83 26.1121 Z" fill="#000000" fill-rule="nonzero" fill-opacity="1"></path><path clip-path="url(#clip730)" d="M1851.72 45.1919 L1851.72 72.576 L1844.27 72.576 L1844.27 45.4349 Q1844.27 38.994 1841.75 35.7938 Q1839.24 32.5936 1834.22 32.5936 Q1828.18 32.5936 1824.7 36.4419 Q1821.22 40.2903 1821.22 46.9338 L1821.22 72.576 L1813.72 72.576 L1813.72 27.2059 L1821.22 27.2059 L1821.22 34.2544 Q1823.89 30.163 1827.49 28.1376 Q1831.14 26.1121 1835.88 26.1121 Q1843.7 26.1121 1847.71 30.9732 Q1851.72 35.7938 1851.72 45.1919 Z" fill="#000000" fill-rule="nonzero" fill-opacity="1"></path><path clip-path="url(#clip730)" d="M1895.51 28.5427 L1895.51 35.5912 Q1892.35 33.9709 1888.95 33.1607 Q1885.54 32.3505 1881.9 32.3505 Q1876.35 32.3505 1873.55 34.0519 Q1870.8 35.7533 1870.8 39.156 Q1870.8 41.7486 1872.78 43.2475 Q1874.77 44.7058 1880.76 46.0426 L1883.32 46.6097 Q1891.26 48.3111 1894.58 51.4303 Q1897.94 54.509 1897.94 60.0587 Q1897.94 66.3781 1892.92 70.0644 Q1887.93 73.7508 1879.18 73.7508 Q1875.54 73.7508 1871.57 73.0216 Q1867.64 72.3329 1863.26 70.9151 L1863.26 63.2184 Q1867.4 65.3654 1871.41 66.4591 Q1875.42 67.5124 1879.35 67.5124 Q1884.61 67.5124 1887.45 65.73 Q1890.28 63.9071 1890.28 60.6258 Q1890.28 57.5877 1888.22 55.9673 Q1886.19 54.3469 1879.27 52.8481 L1876.67 52.2405 Q1869.75 50.7821 1866.67 47.7845 Q1863.59 44.7463 1863.59 39.4801 Q1863.59 33.0797 1868.13 29.5959 Q1872.66 26.1121 1881.01 26.1121 Q1885.14 26.1121 1888.78 26.7198 Q1892.43 27.3274 1895.51 28.5427 Z" fill="#000000" fill-rule="nonzero" fill-opacity="1"></path><polyline clip-path="url(#clip732)" style="stroke:#009af9; stroke-linecap:round; stroke-linejoin:round; stroke-width:4; stroke-opacity:1; fill:none" points="338.848,1286.12 378.751,1266.71 418.654,1270.59 458.557,1280.41 498.46,1291.08 538.363,1301.18 578.266,1310.36 618.169,1318.6 658.072,1325.97 697.975,1332.56 737.878,1338.43 777.781,1343.67 817.684,1348.35 857.588,1352.52 897.491,1356.24 937.394,1359.56 977.297,1362.52 1017.2,1365.16 1057.1,1367.52 1097.01,1369.62 1136.91,1371.49 1176.81,1373.16 1216.72,1374.66 1256.62,1375.98 1296.52,1377.17 1336.42,1378.23 1376.33,1379.17 1416.23,1380.01 1456.13,1380.76 1496.04,1381.43 1535.94,1382.02 1575.84,1382.56 1615.75,1383.03 1655.65,1383.45 1695.55,1383.83 1735.46,1384.17 1775.36,1384.47 1815.26,1384.73 1855.16,1384.97 1895.07,1385.19 1934.97,1385.38 1974.87,1385.55 2014.78,1385.7 2054.68,1385.83 2094.58,1385.96 2134.49,1386.06 2174.39,1386.16 2214.29,1386.25 2254.2,1386.33 2294.1,1386.4 "></polyline>
<polyline clip-path="url(#clip732)" style="stroke:#e26f46; stroke-linecap:round; stroke-linejoin:round; stroke-width:4; stroke-opacity:1; fill:none" points="338.848,1255.85 378.751,1204.35 418.654,1191.21 458.557,1195.89 498.46,1208.27 538.363,1223.41 578.266,1238.98 618.169,1253.89 658.072,1267.71 697.975,1280.3 737.878,1291.66 777.781,1301.86 817.684,1311 857.588,1319.16 897.491,1326.46 937.394,1332.97 977.297,1338.78 1017.2,1343.96 1057.1,1348.59 1097.01,1352.72 1136.91,1356.4 1176.81,1359.68 1216.72,1362.61 1256.62,1365.22 1296.52,1367.55 1336.42,1369.63 1376.33,1371.48 1416.23,1373.14 1456.13,1374.61 1496.04,1375.92 1535.94,1377.1 1575.84,1378.14 1615.75,1379.08 1655.65,1379.91 1695.55,1380.65 1735.46,1381.31 1775.36,1381.9 1815.26,1382.43 1855.16,1382.9 1895.07,1383.32 1934.97,1383.7 1974.87,1384.03 2014.78,1384.33 2054.68,1384.6 2094.58,1384.84 2134.49,1385.05 2174.39,1385.25 2214.29,1385.42 2254.2,1385.57 2294.1,1385.71 "></polyline>
<polyline clip-path="url(#clip732)" style="stroke:#3da44d; stroke-linecap:round; stroke-linejoin:round; stroke-width:4; stroke-opacity:1; fill:none" points="338.848,1199.7 378.751,1088.67 418.654,1028.93 458.557,1003.15 498.46,999.425 538.363,1009.59 578.266,1028.11 618.169,1051.25 658.072,1076.52 697.975,1102.32 737.878,1127.61 777.781,1151.76 817.684,1174.43 857.588,1195.43 897.491,1214.72 937.394,1232.31 977.297,1248.27 1017.2,1262.7 1057.1,1275.71 1097.01,1287.4 1136.91,1297.9 1176.81,1307.32 1216.72,1315.75 1256.62,1323.29 1296.52,1330.04 1336.42,1336.06 1376.33,1341.45 1416.23,1346.26 1456.13,1350.55 1496.04,1354.39 1535.94,1357.81 1575.84,1360.87 1615.75,1363.59 1655.65,1366.03 1695.55,1368.2 1735.46,1370.14 1775.36,1371.87 1815.26,1373.42 1855.16,1374.8 1895.07,1376.03 1934.97,1377.13 1974.87,1378.12 2014.78,1379 2054.68,1379.78 2094.58,1380.49 2134.49,1381.12 2174.39,1381.68 2214.29,1382.18 2254.2,1382.64 2294.1,1383.04 "></polyline>
<polyline clip-path="url(#clip732)" style="stroke:#c271d2; stroke-linecap:round; stroke-linejoin:round; stroke-width:4; stroke-opacity:1; fill:none" points="338.848,1060.39 378.751,801.355 418.654,599.47 458.557,445.659 498.46,332.118 538.363,252.146 578.266,200 618.169,170.767 658.072,160.256 697.975,164.898 737.878,181.662 777.781,207.986 817.684,241.706 857.588,281.006 897.491,324.366 937.394,370.523 977.297,418.431 1017.2,467.231 1057.1,516.224 1097.01,564.845 1136.91,612.647 1176.81,659.276 1216.72,704.464 1256.62,748.008 1296.52,789.766 1336.42,829.64 1376.33,867.574 1416.23,903.542 1456.13,937.545 1496.04,969.607 1535.94,999.764 1575.84,1028.07 1615.75,1054.59 1655.65,1079.38 1695.55,1102.52 1735.46,1124.1 1775.36,1144.18 1815.26,1162.85 1855.16,1180.18 1895.07,1196.26 1934.97,1211.16 1974.87,1224.95 2014.78,1237.71 2054.68,1249.5 2094.58,1260.39 2134.49,1270.44 2174.39,1279.7 2214.29,1288.25 2254.2,1296.12 2294.1,1303.36 "></polyline>
<path clip-path="url(#clip730)" d="M1908.71 425.996 L2283.67 425.996 L2283.67 166.796 L1908.71 166.796  Z" fill="#ffffff" fill-rule="evenodd" fill-opacity="1"></path>
<polyline clip-path="url(#clip730)" style="stroke:#000000; stroke-linecap:round; stroke-linejoin:round; stroke-width:4; stroke-opacity:1; fill:none" points="1908.71,425.996 2283.67,425.996 2283.67,166.796 1908.71,166.796 1908.71,425.996 "></polyline>
<polyline clip-path="url(#clip730)" style="stroke:#009af9; stroke-linecap:round; stroke-linejoin:round; stroke-width:4; stroke-opacity:1; fill:none" points="1931.73,218.636 2069.91,218.636 "></polyline>
<path clip-path="url(#clip730)" d="M2095.02 214.62 Q2096.43 212.258 2099.93 210.175 Q2101.29 209.365 2105.5 209.365 Q2110.23 209.365 2113.17 213.115 Q2116.13 216.865 2116.13 222.976 Q2116.13 229.087 2113.17 232.837 Q2110.23 236.587 2105.5 236.587 Q2102.66 236.587 2100.6 235.476 Q2098.56 234.342 2097.22 232.027 L2097.22 245.777 L2092.93 245.777 L2092.93 223.207 Q2092.93 217.86 2095.02 214.62 M2111.71 222.976 Q2111.71 218.277 2109.76 215.615 Q2107.84 212.93 2104.46 212.93 Q2101.08 212.93 2099.14 215.615 Q2097.22 218.277 2097.22 222.976 Q2097.22 227.675 2099.14 230.36 Q2101.08 233.022 2104.46 233.022 Q2107.84 233.022 2109.76 230.36 Q2111.71 227.675 2111.71 222.976 Z" fill="#000000" fill-rule="nonzero" fill-opacity="1"></path><path clip-path="url(#clip730)" d="M2138.81 214.388 L2168.49 214.388 L2168.49 218.277 L2138.81 218.277 L2138.81 214.388 M2138.81 223.832 L2168.49 223.832 L2168.49 227.768 L2138.81 227.768 L2138.81 223.832 Z" fill="#000000" fill-rule="nonzero" fill-opacity="1"></path><path clip-path="url(#clip730)" d="M2203.65 204.434 Q2200.04 204.434 2198.21 207.999 Q2196.41 211.541 2196.41 218.67 Q2196.41 225.777 2198.21 229.342 Q2200.04 232.883 2203.65 232.883 Q2207.29 232.883 2209.09 229.342 Q2210.92 225.777 2210.92 218.67 Q2210.92 211.541 2209.09 207.999 Q2207.29 204.434 2203.65 204.434 M2203.65 200.731 Q2209.46 200.731 2212.52 205.337 Q2215.6 209.92 2215.6 218.67 Q2215.6 227.397 2212.52 232.004 Q2209.46 236.587 2203.65 236.587 Q2197.84 236.587 2194.76 232.004 Q2191.71 227.397 2191.71 218.67 Q2191.71 209.92 2194.76 205.337 Q2197.84 200.731 2203.65 200.731 Z" fill="#000000" fill-rule="nonzero" fill-opacity="1"></path><path clip-path="url(#clip730)" d="M2223.81 230.036 L2228.7 230.036 L2228.7 235.916 L2223.81 235.916 L2223.81 230.036 Z" fill="#000000" fill-rule="nonzero" fill-opacity="1"></path><path clip-path="url(#clip730)" d="M2253.05 217.282 Q2256.41 217.999 2258.28 220.268 Q2260.18 222.536 2260.18 225.869 Q2260.18 230.985 2256.66 233.786 Q2253.14 236.587 2246.66 236.587 Q2244.48 236.587 2242.17 236.147 Q2239.88 235.731 2237.42 234.874 L2237.42 230.36 Q2239.37 231.494 2241.68 232.073 Q2244 232.652 2246.52 232.652 Q2250.92 232.652 2253.21 230.916 Q2255.53 229.18 2255.53 225.869 Q2255.53 222.814 2253.37 221.101 Q2251.24 219.365 2247.42 219.365 L2243.4 219.365 L2243.4 215.522 L2247.61 215.522 Q2251.06 215.522 2252.89 214.157 Q2254.72 212.768 2254.72 210.175 Q2254.72 207.513 2252.82 206.101 Q2250.94 204.666 2247.42 204.666 Q2245.5 204.666 2243.3 205.083 Q2241.1 205.499 2238.47 206.379 L2238.47 202.212 Q2241.13 201.471 2243.44 201.101 Q2245.78 200.731 2247.84 200.731 Q2253.17 200.731 2256.27 203.161 Q2259.37 205.569 2259.37 209.689 Q2259.37 212.559 2257.73 214.55 Q2256.08 216.518 2253.05 217.282 Z" fill="#000000" fill-rule="nonzero" fill-opacity="1"></path><polyline clip-path="url(#clip730)" style="stroke:#e26f46; stroke-linecap:round; stroke-linejoin:round; stroke-width:4; stroke-opacity:1; fill:none" points="1931.73,270.476 2069.91,270.476 "></polyline>
<path clip-path="url(#clip730)" d="M2095.02 266.46 Q2096.43 264.098 2099.93 262.015 Q2101.29 261.205 2105.5 261.205 Q2110.23 261.205 2113.17 264.955 Q2116.13 268.705 2116.13 274.816 Q2116.13 280.927 2113.17 284.677 Q2110.23 288.427 2105.5 288.427 Q2102.66 288.427 2100.6 287.316 Q2098.56 286.182 2097.22 283.867 L2097.22 297.617 L2092.93 297.617 L2092.93 275.047 Q2092.93 269.7 2095.02 266.46 M2111.71 274.816 Q2111.71 270.117 2109.76 267.455 Q2107.84 264.77 2104.46 264.77 Q2101.08 264.77 2099.14 267.455 Q2097.22 270.117 2097.22 274.816 Q2097.22 279.515 2099.14 282.2 Q2101.08 284.862 2104.46 284.862 Q2107.84 284.862 2109.76 282.2 Q2111.71 279.515 2111.71 274.816 Z" fill="#000000" fill-rule="nonzero" fill-opacity="1"></path><path clip-path="url(#clip730)" d="M2138.81 266.228 L2168.49 266.228 L2168.49 270.117 L2138.81 270.117 L2138.81 266.228 M2138.81 275.672 L2168.49 275.672 L2168.49 279.608 L2138.81 279.608 L2138.81 275.672 Z" fill="#000000" fill-rule="nonzero" fill-opacity="1"></path><path clip-path="url(#clip730)" d="M2203.65 256.274 Q2200.04 256.274 2198.21 259.839 Q2196.41 263.381 2196.41 270.51 Q2196.41 277.617 2198.21 281.182 Q2200.04 284.723 2203.65 284.723 Q2207.29 284.723 2209.09 281.182 Q2210.92 277.617 2210.92 270.51 Q2210.92 263.381 2209.09 259.839 Q2207.29 256.274 2203.65 256.274 M2203.65 252.571 Q2209.46 252.571 2212.52 257.177 Q2215.6 261.76 2215.6 270.51 Q2215.6 279.237 2212.52 283.844 Q2209.46 288.427 2203.65 288.427 Q2197.84 288.427 2194.76 283.844 Q2191.71 279.237 2191.71 270.51 Q2191.71 261.76 2194.76 257.177 Q2197.84 252.571 2203.65 252.571 Z" fill="#000000" fill-rule="nonzero" fill-opacity="1"></path><path clip-path="url(#clip730)" d="M2223.81 281.876 L2228.7 281.876 L2228.7 287.756 L2223.81 287.756 L2223.81 281.876 Z" fill="#000000" fill-rule="nonzero" fill-opacity="1"></path><path clip-path="url(#clip730)" d="M2238.93 253.196 L2257.29 253.196 L2257.29 257.131 L2243.21 257.131 L2243.21 265.603 Q2244.23 265.256 2245.25 265.094 Q2246.27 264.909 2247.29 264.909 Q2253.07 264.909 2256.45 268.08 Q2259.83 271.251 2259.83 276.668 Q2259.83 282.246 2256.36 285.348 Q2252.89 288.427 2246.57 288.427 Q2244.39 288.427 2242.12 288.057 Q2239.88 287.686 2237.47 286.946 L2237.47 282.246 Q2239.55 283.381 2241.78 283.936 Q2244 284.492 2246.48 284.492 Q2250.48 284.492 2252.82 282.385 Q2255.16 280.279 2255.16 276.668 Q2255.16 273.057 2252.82 270.95 Q2250.48 268.844 2246.48 268.844 Q2244.6 268.844 2242.73 269.26 Q2240.87 269.677 2238.93 270.557 L2238.93 253.196 Z" fill="#000000" fill-rule="nonzero" fill-opacity="1"></path><polyline clip-path="url(#clip730)" style="stroke:#3da44d; stroke-linecap:round; stroke-linejoin:round; stroke-width:4; stroke-opacity:1; fill:none" points="1931.73,322.316 2069.91,322.316 "></polyline>
<path clip-path="url(#clip730)" d="M2095.02 318.3 Q2096.43 315.938 2099.93 313.855 Q2101.29 313.045 2105.5 313.045 Q2110.23 313.045 2113.17 316.795 Q2116.13 320.545 2116.13 326.656 Q2116.13 332.767 2113.17 336.517 Q2110.23 340.267 2105.5 340.267 Q2102.66 340.267 2100.6 339.156 Q2098.56 338.022 2097.22 335.707 L2097.22 349.457 L2092.93 349.457 L2092.93 326.887 Q2092.93 321.54 2095.02 318.3 M2111.71 326.656 Q2111.71 321.957 2109.76 319.295 Q2107.84 316.61 2104.46 316.61 Q2101.08 316.61 2099.14 319.295 Q2097.22 321.957 2097.22 326.656 Q2097.22 331.355 2099.14 334.04 Q2101.08 336.702 2104.46 336.702 Q2107.84 336.702 2109.76 334.04 Q2111.71 331.355 2111.71 326.656 Z" fill="#000000" fill-rule="nonzero" fill-opacity="1"></path><path clip-path="url(#clip730)" d="M2138.81 318.068 L2168.49 318.068 L2168.49 321.957 L2138.81 321.957 L2138.81 318.068 M2138.81 327.512 L2168.49 327.512 L2168.49 331.448 L2138.81 331.448 L2138.81 327.512 Z" fill="#000000" fill-rule="nonzero" fill-opacity="1"></path><path clip-path="url(#clip730)" d="M2203.65 308.114 Q2200.04 308.114 2198.21 311.679 Q2196.41 315.221 2196.41 322.35 Q2196.41 329.457 2198.21 333.022 Q2200.04 336.563 2203.65 336.563 Q2207.29 336.563 2209.09 333.022 Q2210.92 329.457 2210.92 322.35 Q2210.92 315.221 2209.09 311.679 Q2207.29 308.114 2203.65 308.114 M2203.65 304.411 Q2209.46 304.411 2212.52 309.017 Q2215.6 313.6 2215.6 322.35 Q2215.6 331.077 2212.52 335.684 Q2209.46 340.267 2203.65 340.267 Q2197.84 340.267 2194.76 335.684 Q2191.71 331.077 2191.71 322.35 Q2191.71 313.6 2194.76 309.017 Q2197.84 304.411 2203.65 304.411 Z" fill="#000000" fill-rule="nonzero" fill-opacity="1"></path><path clip-path="url(#clip730)" d="M2223.81 333.716 L2228.7 333.716 L2228.7 339.596 L2223.81 339.596 L2223.81 333.716 Z" fill="#000000" fill-rule="nonzero" fill-opacity="1"></path><path clip-path="url(#clip730)" d="M2237.7 305.036 L2259.92 305.036 L2259.92 307.026 L2247.38 339.596 L2242.49 339.596 L2254.3 308.971 L2237.7 308.971 L2237.7 305.036 Z" fill="#000000" fill-rule="nonzero" fill-opacity="1"></path><polyline clip-path="url(#clip730)" style="stroke:#c271d2; stroke-linecap:round; stroke-linejoin:round; stroke-width:4; stroke-opacity:1; fill:none" points="1931.73,374.156 2069.91,374.156 "></polyline>
<path clip-path="url(#clip730)" d="M2095.02 370.14 Q2096.43 367.778 2099.93 365.695 Q2101.29 364.885 2105.5 364.885 Q2110.23 364.885 2113.17 368.635 Q2116.13 372.385 2116.13 378.496 Q2116.13 384.607 2113.17 388.357 Q2110.23 392.107 2105.5 392.107 Q2102.66 392.107 2100.6 390.996 Q2098.56 389.862 2097.22 387.547 L2097.22 401.297 L2092.93 401.297 L2092.93 378.727 Q2092.93 373.38 2095.02 370.14 M2111.71 378.496 Q2111.71 373.797 2109.76 371.135 Q2107.84 368.45 2104.46 368.45 Q2101.08 368.45 2099.14 371.135 Q2097.22 373.797 2097.22 378.496 Q2097.22 383.195 2099.14 385.88 Q2101.08 388.542 2104.46 388.542 Q2107.84 388.542 2109.76 385.88 Q2111.71 383.195 2111.71 378.496 Z" fill="#000000" fill-rule="nonzero" fill-opacity="1"></path><path clip-path="url(#clip730)" d="M2138.81 369.908 L2168.49 369.908 L2168.49 373.797 L2138.81 373.797 L2138.81 369.908 M2138.81 379.352 L2168.49 379.352 L2168.49 383.288 L2138.81 383.288 L2138.81 379.352 Z" fill="#000000" fill-rule="nonzero" fill-opacity="1"></path><path clip-path="url(#clip730)" d="M2203.65 359.954 Q2200.04 359.954 2198.21 363.519 Q2196.41 367.061 2196.41 374.19 Q2196.41 381.297 2198.21 384.862 Q2200.04 388.403 2203.65 388.403 Q2207.29 388.403 2209.09 384.862 Q2210.92 381.297 2210.92 374.19 Q2210.92 367.061 2209.09 363.519 Q2207.29 359.954 2203.65 359.954 M2203.65 356.251 Q2209.46 356.251 2212.52 360.857 Q2215.6 365.44 2215.6 374.19 Q2215.6 382.917 2212.52 387.524 Q2209.46 392.107 2203.65 392.107 Q2197.84 392.107 2194.76 387.524 Q2191.71 382.917 2191.71 374.19 Q2191.71 365.44 2194.76 360.857 Q2197.84 356.251 2203.65 356.251 Z" fill="#000000" fill-rule="nonzero" fill-opacity="1"></path><path clip-path="url(#clip730)" d="M2223.81 385.556 L2228.7 385.556 L2228.7 391.436 L2223.81 391.436 L2223.81 385.556 Z" fill="#000000" fill-rule="nonzero" fill-opacity="1"></path><path clip-path="url(#clip730)" d="M2239.02 390.718 L2239.02 386.459 Q2240.78 387.292 2242.59 387.732 Q2244.39 388.172 2246.13 388.172 Q2250.76 388.172 2253.19 385.07 Q2255.64 381.945 2255.99 375.602 Q2254.65 377.593 2252.59 378.658 Q2250.53 379.723 2248.03 379.723 Q2242.84 379.723 2239.81 376.598 Q2236.8 373.45 2236.8 368.01 Q2236.8 362.686 2239.95 359.468 Q2243.1 356.251 2248.33 356.251 Q2254.32 356.251 2257.47 360.857 Q2260.64 365.44 2260.64 374.19 Q2260.64 382.362 2256.75 387.246 Q2252.89 392.107 2246.34 392.107 Q2244.58 392.107 2242.77 391.76 Q2240.97 391.413 2239.02 390.718 M2248.33 376.065 Q2251.48 376.065 2253.3 373.913 Q2255.16 371.76 2255.16 368.01 Q2255.16 364.283 2253.3 362.13 Q2251.48 359.954 2248.33 359.954 Q2245.18 359.954 2243.33 362.13 Q2241.5 364.283 2241.5 368.01 Q2241.5 371.76 2243.33 373.913 Q2245.18 376.065 2248.33 376.065 Z" fill="#000000" fill-rule="nonzero" fill-opacity="1"></path></svg>