<svg xmlns="http://www.w3.org/2000/svg" xmlns:xlink="http://www.w3.org/1999/xlink" width="600" height="400" viewBox="0 0 2400 1600">
<defs>
  <clipPath id="clip690">
    <rect x="0" y="0" width="2400" height="1600"></rect>
  </clipPath>
</defs>
<path clip-path="url(#clip690)" d="M0 1600 L2400 1600 L2400 0 L0 0  Z" fill="#ffffff" fill-rule="evenodd" fill-opacity="1"></path>
<defs>
  <clipPath id="clip691">
    <rect x="480" y="0" width="1681" height="1600"></rect>
  </clipPath>
</defs>
<path clip-path="url(#clip690)" d="M184.191 1486.45 L2352.76 1486.45 L2352.76 123.472 L184.191 123.472  Z" fill="#ffffff" fill-rule="evenodd" fill-opacity="1"></path>
<defs>
  <clipPath id="clip692">
    <rect x="184" y="123" width="2170" height="1364"></rect>
  </clipPath>
</defs>
<polyline clip-path="url(#clip692)" style="stroke:#000000; stroke-linecap:round; stroke-linejoin:round; stroke-width:2; stroke-opacity:0.1; fill:none" points="238.723,1486.45 238.723,123.472 "></polyline>
<polyline clip-path="url(#clip692)" style="stroke:#000000; stroke-linecap:round; stroke-linejoin:round; stroke-width:2; stroke-opacity:0.1; fill:none" points="922.942,1486.45 922.942,123.472 "></polyline>
<polyline clip-path="url(#clip692)" style="stroke:#000000; stroke-linecap:round; stroke-linejoin:round; stroke-width:2; stroke-opacity:0.1; fill:none" points="1607.16,1486.45 1607.16,123.472 "></polyline>
<polyline clip-path="url(#clip692)" style="stroke:#000000; stroke-linecap:round; stroke-linejoin:round; stroke-width:2; stroke-opacity:0.1; fill:none" points="2291.38,1486.45 2291.38,123.472 "></polyline>
<polyline clip-path="url(#clip690)" style="stroke:#000000; stroke-linecap:round; stroke-linejoin:round; stroke-width:4; stroke-opacity:1; fill:none" points="184.191,1486.45 2352.76,1486.45 "></polyline>
<polyline clip-path="url(#clip690)" style="stroke:#000000; stroke-linecap:round; stroke-linejoin:round; stroke-width:4; stroke-opacity:1; fill:none" points="238.723,1486.45 238.723,1467.55 "></polyline>
<polyline clip-path="url(#clip690)" style="stroke:#000000; stroke-linecap:round; stroke-linejoin:round; stroke-width:4; stroke-opacity:1; fill:none" points="922.942,1486.45 922.942,1467.55 "></polyline>
<polyline clip-path="url(#clip690)" style="stroke:#000000; stroke-linecap:round; stroke-linejoin:round; stroke-width:4; stroke-opacity:1; fill:none" points="1607.16,1486.45 1607.16,1467.55 "></polyline>
<polyline clip-path="url(#clip690)" style="stroke:#000000; stroke-linecap:round; stroke-linejoin:round; stroke-width:4; stroke-opacity:1; fill:none" points="2291.38,1486.45 2291.38,1467.55 "></polyline>
<path clip-path="url(#clip690)" d="M238.723 1517.37 Q235.112 1517.37 233.283 1520.93 Q231.478 1524.47 231.478 1531.6 Q231.478 1538.71 233.283 1542.27 Q235.112 1545.82 238.723 1545.82 Q242.357 1545.82 244.163 1542.27 Q245.991 1538.71 245.991 1531.6 Q245.991 1524.47 244.163 1520.93 Q242.357 1517.37 238.723 1517.37 M238.723 1513.66 Q244.533 1513.66 247.589 1518.27 Q250.667 1522.85 250.667 1531.6 Q250.667 1540.33 247.589 1544.94 Q244.533 1549.52 238.723 1549.52 Q232.913 1549.52 229.834 1544.94 Q226.779 1540.33 226.779 1531.6 Q226.779 1522.85 229.834 1518.27 Q232.913 1513.66 238.723 1513.66 Z" fill="#000000" fill-rule="nonzero" fill-opacity="1"></path><path clip-path="url(#clip690)" d="M882.549 1544.91 L890.188 1544.91 L890.188 1518.55 L881.878 1520.21 L881.878 1515.95 L890.142 1514.29 L894.818 1514.29 L894.818 1544.91 L902.456 1544.91 L902.456 1548.85 L882.549 1548.85 L882.549 1544.91 Z" fill="#000000" fill-rule="nonzero" fill-opacity="1"></path><path clip-path="url(#clip690)" d="M921.901 1517.37 Q918.29 1517.37 916.461 1520.93 Q914.655 1524.47 914.655 1531.6 Q914.655 1538.71 916.461 1542.27 Q918.29 1545.82 921.901 1545.82 Q925.535 1545.82 927.341 1542.27 Q929.169 1538.71 929.169 1531.6 Q929.169 1524.47 927.341 1520.93 Q925.535 1517.37 921.901 1517.37 M921.901 1513.66 Q927.711 1513.66 930.766 1518.27 Q933.845 1522.85 933.845 1531.6 Q933.845 1540.33 930.766 1544.94 Q927.711 1549.52 921.901 1549.52 Q916.091 1549.52 913.012 1544.94 Q909.956 1540.33 909.956 1531.6 Q909.956 1522.85 913.012 1518.27 Q916.091 1513.66 921.901 1513.66 Z" fill="#000000" fill-rule="nonzero" fill-opacity="1"></path><path clip-path="url(#clip690)" d="M952.063 1517.37 Q948.452 1517.37 946.623 1520.93 Q944.817 1524.47 944.817 1531.6 Q944.817 1538.71 946.623 1542.27 Q948.452 1545.82 952.063 1545.82 Q955.697 1545.82 957.502 1542.27 Q959.331 1538.71 959.331 1531.6 Q959.331 1524.47 957.502 1520.93 Q955.697 1517.37 952.063 1517.37 M952.063 1513.66 Q957.873 1513.66 960.928 1518.27 Q964.007 1522.85 964.007 1531.6 Q964.007 1540.33 960.928 1544.94 Q957.873 1549.52 952.063 1549.52 Q946.253 1549.52 943.174 1544.94 Q940.118 1540.33 940.118 1531.6 Q940.118 1522.85 943.174 1518.27 Q946.253 1513.66 952.063 1513.66 Z" fill="#000000" fill-rule="nonzero" fill-opacity="1"></path><path clip-path="url(#clip690)" d="M1570.85 1544.91 L1587.17 1544.91 L1587.17 1548.85 L1565.23 1548.85 L1565.23 1544.91 Q1567.89 1542.16 1572.47 1537.53 Q1577.08 1532.88 1578.26 1531.53 Q1580.51 1529.01 1581.39 1527.27 Q1582.29 1525.51 1582.29 1523.82 Q1582.29 1521.07 1580.34 1519.33 Q1578.42 1517.6 1575.32 1517.6 Q1573.12 1517.6 1570.67 1518.36 Q1568.24 1519.13 1565.46 1520.68 L1565.46 1515.95 Q1568.28 1514.82 1570.74 1514.24 Q1573.19 1513.66 1575.23 1513.66 Q1580.6 1513.66 1583.79 1516.35 Q1586.99 1519.03 1586.99 1523.52 Q1586.99 1525.65 1586.18 1527.57 Q1585.39 1529.47 1583.28 1532.07 Q1582.71 1532.74 1579.6 1535.95 Q1576.5 1539.15 1570.85 1544.91 Z" fill="#000000" fill-rule="nonzero" fill-opacity="1"></path><path clip-path="url(#clip690)" d="M1606.99 1517.37 Q1603.38 1517.37 1601.55 1520.93 Q1599.74 1524.47 1599.74 1531.6 Q1599.74 1538.71 1601.55 1542.27 Q1603.38 1545.82 1606.99 1545.82 Q1610.62 1545.82 1612.43 1542.27 Q1614.26 1538.71 1614.26 1531.6 Q1614.26 1524.47 1612.43 1520.93 Q1610.62 1517.37 1606.99 1517.37 M1606.99 1513.66 Q1612.8 1513.66 1615.85 1518.27 Q1618.93 1522.85 1618.93 1531.6 Q1618.93 1540.33 1615.85 1544.94 Q1612.8 1549.52 1606.99 1549.52 Q1601.18 1549.52 1598.1 1544.94 Q1595.04 1540.33 1595.04 1531.6 Q1595.04 1522.85 1598.1 1518.27 Q1601.18 1513.66 1606.99 1513.66 Z" fill="#000000" fill-rule="nonzero" fill-opacity="1"></path><path clip-path="url(#clip690)" d="M1637.15 1517.37 Q1633.54 1517.37 1631.71 1520.93 Q1629.9 1524.47 1629.9 1531.6 Q1629.9 1538.71 1631.71 1542.27 Q1633.54 1545.82 1637.15 1545.82 Q1640.78 1545.82 1642.59 1542.27 Q1644.42 1538.71 1644.42 1531.6 Q1644.42 1524.47 1642.59 1520.93 Q1640.78 1517.37 1637.15 1517.37 M1637.15 1513.66 Q1642.96 1513.66 1646.02 1518.27 Q1649.09 1522.85 1649.09 1531.6 Q1649.09 1540.33 1646.02 1544.94 Q1642.96 1549.52 1637.15 1549.52 Q1631.34 1549.52 1628.26 1544.94 Q1625.21 1540.33 1625.21 1531.6 Q1625.21 1522.85 1628.26 1518.27 Q1631.34 1513.66 1637.15 1513.66 Z" fill="#000000" fill-rule="nonzero" fill-opacity="1"></path><path clip-path="url(#clip690)" d="M2265.14 1530.21 Q2268.5 1530.93 2270.37 1533.2 Q2272.27 1535.47 2272.27 1538.8 Q2272.27 1543.92 2268.75 1546.72 Q2265.24 1549.52 2258.75 1549.52 Q2256.58 1549.52 2254.26 1549.08 Q2251.97 1548.66 2249.52 1547.81 L2249.52 1543.29 Q2251.46 1544.43 2253.78 1545.01 Q2256.09 1545.58 2258.62 1545.58 Q2263.01 1545.58 2265.31 1543.85 Q2267.62 1542.11 2267.62 1538.8 Q2267.62 1535.75 2265.47 1534.03 Q2263.34 1532.3 2259.52 1532.3 L2255.49 1532.3 L2255.49 1528.45 L2259.7 1528.45 Q2263.15 1528.45 2264.98 1527.09 Q2266.81 1525.7 2266.81 1523.11 Q2266.81 1520.45 2264.91 1519.03 Q2263.04 1517.6 2259.52 1517.6 Q2257.6 1517.6 2255.4 1518.01 Q2253.2 1518.43 2250.56 1519.31 L2250.56 1515.14 Q2253.22 1514.4 2255.54 1514.03 Q2257.87 1513.66 2259.93 1513.66 Q2265.26 1513.66 2268.36 1516.09 Q2271.46 1518.5 2271.46 1522.62 Q2271.46 1525.49 2269.82 1527.48 Q2268.18 1529.45 2265.14 1530.21 Z" fill="#000000" fill-rule="nonzero" fill-opacity="1"></path><path clip-path="url(#clip690)" d="M2291.14 1517.37 Q2287.53 1517.37 2285.7 1520.93 Q2283.89 1524.47 2283.89 1531.6 Q2283.89 1538.71 2285.7 1542.27 Q2287.53 1545.82 2291.14 1545.82 Q2294.77 1545.82 2296.58 1542.27 Q2298.41 1538.71 2298.41 1531.6 Q2298.41 1524.47 2296.58 1520.93 Q2294.77 1517.37 2291.14 1517.37 M2291.14 1513.66 Q2296.95 1513.66 2300 1518.27 Q2303.08 1522.85 2303.08 1531.6 Q2303.08 1540.33 2300 1544.94 Q2296.95 1549.52 2291.14 1549.52 Q2285.33 1549.52 2282.25 1544.94 Q2279.19 1540.33 2279.19 1531.6 Q2279.19 1522.85 2282.25 1518.27 Q2285.33 1513.66 2291.14 1513.66 Z" fill="#000000" fill-rule="nonzero" fill-opacity="1"></path><path clip-path="url(#clip690)" d="M2321.3 1517.37 Q2317.69 1517.37 2315.86 1520.93 Q2314.05 1524.47 2314.05 1531.6 Q2314.05 1538.71 2315.86 1542.27 Q2317.69 1545.82 2321.3 1545.82 Q2324.93 1545.82 2326.74 1542.27 Q2328.57 1538.71 2328.57 1531.6 Q2328.57 1524.47 2326.74 1520.93 Q2324.93 1517.37 2321.3 1517.37 M2321.3 1513.66 Q2327.11 1513.66 2330.17 1518.27 Q2333.24 1522.85 2333.24 1531.6 Q2333.24 1540.33 2330.17 1544.94 Q2327.11 1549.52 2321.3 1549.52 Q2315.49 1549.52 2312.41 1544.94 Q2309.36 1540.33 2309.36 1531.6 Q2309.36 1522.85 2312.41 1518.27 Q2315.49 1513.66 2321.3 1513.66 Z" fill="#000000" fill-rule="nonzero" fill-opacity="1"></path><polyline clip-path="url(#clip692)" style="stroke:#000000; stroke-linecap:round; stroke-linejoin:round; stroke-width:2; stroke-opacity:0.1; fill:none" points="184.191,1447.9 2352.76,1447.9 "></polyline>
<polyline clip-path="url(#clip692)" style="stroke:#000000; stroke-linecap:round; stroke-linejoin:round; stroke-width:2; stroke-opacity:0.1; fill:none" points="184.191,1121.32 2352.76,1121.32 "></polyline>
<polyline clip-path="url(#clip692)" style="stroke:#000000; stroke-linecap:round; stroke-linejoin:round; stroke-width:2; stroke-opacity:0.1; fill:none" points="184.191,794.726 2352.76,794.726 "></polyline>
<polyline clip-path="url(#clip692)" style="stroke:#000000; stroke-linecap:round; stroke-linejoin:round; stroke-width:2; stroke-opacity:0.1; fill:none" points="184.191,468.137 2352.76,468.137 "></polyline>
<polyline clip-path="url(#clip692)" style="stroke:#000000; stroke-linecap:round; stroke-linejoin:round; stroke-width:2; stroke-opacity:0.1; fill:none" points="184.191,141.547 2352.76,141.547 "></polyline>
<polyline clip-path="url(#clip690)" style="stroke:#000000; stroke-linecap:round; stroke-linejoin:round; stroke-width:4; stroke-opacity:1; fill:none" points="184.191,1486.45 184.191,123.472 "></polyline>
<polyline clip-path="url(#clip690)" style="stroke:#000000; stroke-linecap:round; stroke-linejoin:round; stroke-width:4; stroke-opacity:1; fill:none" points="184.191,1447.9 203.088,1447.9 "></polyline>
<polyline clip-path="url(#clip690)" style="stroke:#000000; stroke-linecap:round; stroke-linejoin:round; stroke-width:4; stroke-opacity:1; fill:none" points="184.191,1121.32 203.088,1121.32 "></polyline>
<polyline clip-path="url(#clip690)" style="stroke:#000000; stroke-linecap:round; stroke-linejoin:round; stroke-width:4; stroke-opacity:1; fill:none" points="184.191,794.726 203.088,794.726 "></polyline>
<polyline clip-path="url(#clip690)" style="stroke:#000000; stroke-linecap:round; stroke-linejoin:round; stroke-width:4; stroke-opacity:1; fill:none" points="184.191,468.137 203.088,468.137 "></polyline>
<polyline clip-path="url(#clip690)" style="stroke:#000000; stroke-linecap:round; stroke-linejoin:round; stroke-width:4; stroke-opacity:1; fill:none" points="184.191,141.547 203.088,141.547 "></polyline>
<path clip-path="url(#clip690)" d="M91.0151 1433.7 Q87.404 1433.7 85.5753 1437.27 Q83.7697 1440.81 83.7697 1447.94 Q83.7697 1455.05 85.5753 1458.61 Q87.404 1462.15 91.0151 1462.15 Q94.6493 1462.15 96.4548 1458.61 Q98.2835 1455.05 98.2835 1447.94 Q98.2835 1440.81 96.4548 1437.27 Q94.6493 1433.7 91.0151 1433.7 M91.0151 1430 Q96.8252 1430 99.8808 1434.61 Q102.959 1439.19 102.959 1447.94 Q102.959 1456.67 99.8808 1461.27 Q96.8252 1465.86 91.0151 1465.86 Q85.2049 1465.86 82.1262 1461.27 Q79.0707 1456.67 79.0707 1447.94 Q79.0707 1439.19 82.1262 1434.61 Q85.2049 1430 91.0151 1430 Z" fill="#000000" fill-rule="nonzero" fill-opacity="1"></path><path clip-path="url(#clip690)" d="M111.177 1459.31 L116.061 1459.31 L116.061 1465.18 L111.177 1465.18 L111.177 1459.31 Z" fill="#000000" fill-rule="nonzero" fill-opacity="1"></path><path clip-path="url(#clip690)" d="M136.246 1433.7 Q132.635 1433.7 130.807 1437.27 Q129.001 1440.81 129.001 1447.94 Q129.001 1455.05 130.807 1458.61 Q132.635 1462.15 136.246 1462.15 Q139.881 1462.15 141.686 1458.61 Q143.515 1455.05 143.515 1447.94 Q143.515 1440.81 141.686 1437.27 Q139.881 1433.7 136.246 1433.7 M136.246 1430 Q142.056 1430 145.112 1434.61 Q148.191 1439.19 148.191 1447.94 Q148.191 1456.67 145.112 1461.27 Q142.056 1465.86 136.246 1465.86 Q130.436 1465.86 127.357 1461.27 Q124.302 1456.67 124.302 1447.94 Q124.302 1439.19 127.357 1434.61 Q130.436 1430 136.246 1430 Z" fill="#000000" fill-rule="nonzero" fill-opacity="1"></path><path clip-path="url(#clip690)" d="M86.0382 1134.66 L102.358 1134.66 L102.358 1138.6 L80.4133 1138.6 L80.4133 1134.66 Q83.0753 1131.91 87.6586 1127.28 Q92.2651 1122.62 93.4456 1121.28 Q95.691 1118.76 96.5706 1117.02 Q97.4734 1115.26 97.4734 1113.57 Q97.4734 1110.82 95.5289 1109.08 Q93.6076 1107.35 90.5058 1107.35 Q88.3067 1107.35 85.8531 1108.11 Q83.4225 1108.87 80.6447 1110.42 L80.6447 1105.7 Q83.4688 1104.57 85.9225 1103.99 Q88.3762 1103.41 90.4132 1103.41 Q95.7836 1103.41 98.978 1106.1 Q102.172 1108.78 102.172 1113.27 Q102.172 1115.4 101.362 1117.32 Q100.575 1119.22 98.4687 1121.81 Q97.89 1122.48 94.7882 1125.7 Q91.6864 1128.9 86.0382 1134.66 Z" fill="#000000" fill-rule="nonzero" fill-opacity="1"></path><path clip-path="url(#clip690)" d="M112.172 1132.72 L117.057 1132.72 L117.057 1138.6 L112.172 1138.6 L112.172 1132.72 Z" fill="#000000" fill-rule="nonzero" fill-opacity="1"></path><path clip-path="url(#clip690)" d="M127.288 1104.04 L145.644 1104.04 L145.644 1107.97 L131.57 1107.97 L131.57 1116.44 Q132.589 1116.1 133.607 1115.93 Q134.626 1115.75 135.644 1115.75 Q141.431 1115.75 144.811 1118.92 Q148.191 1122.09 148.191 1127.51 Q148.191 1133.09 144.718 1136.19 Q141.246 1139.27 134.927 1139.27 Q132.751 1139.27 130.482 1138.9 Q128.237 1138.53 125.83 1137.79 L125.83 1133.09 Q127.913 1134.22 130.135 1134.78 Q132.357 1135.33 134.834 1135.33 Q138.839 1135.33 141.177 1133.22 Q143.515 1131.12 143.515 1127.51 Q143.515 1123.9 141.177 1121.79 Q138.839 1119.68 134.834 1119.68 Q132.959 1119.68 131.084 1120.1 Q129.232 1120.52 127.288 1121.4 L127.288 1104.04 Z" fill="#000000" fill-rule="nonzero" fill-opacity="1"></path><path clip-path="url(#clip690)" d="M81.0614 777.446 L99.4178 777.446 L99.4178 781.381 L85.3438 781.381 L85.3438 789.853 Q86.3623 789.506 87.3808 789.344 Q88.3993 789.159 89.4178 789.159 Q95.2049 789.159 98.5845 792.33 Q101.964 795.501 101.964 800.918 Q101.964 806.497 98.4919 809.599 Q95.0197 812.677 88.7003 812.677 Q86.5243 812.677 84.2558 812.307 Q82.0105 811.937 79.6031 811.196 L79.6031 806.497 Q81.6864 807.631 83.9086 808.187 Q86.1308 808.742 88.6077 808.742 Q92.6123 808.742 94.9502 806.636 Q97.2882 804.529 97.2882 800.918 Q97.2882 797.307 94.9502 795.201 Q92.6123 793.094 88.6077 793.094 Q86.7327 793.094 84.8577 793.511 Q83.0058 793.927 81.0614 794.807 L81.0614 777.446 Z" fill="#000000" fill-rule="nonzero" fill-opacity="1"></path><path clip-path="url(#clip690)" d="M111.177 806.126 L116.061 806.126 L116.061 812.006 L111.177 812.006 L111.177 806.126 Z" fill="#000000" fill-rule="nonzero" fill-opacity="1"></path><path clip-path="url(#clip690)" d="M136.246 780.525 Q132.635 780.525 130.807 784.089 Q129.001 787.631 129.001 794.761 Q129.001 801.867 130.807 805.432 Q132.635 808.974 136.246 808.974 Q139.881 808.974 141.686 805.432 Q143.515 801.867 143.515 794.761 Q143.515 787.631 141.686 784.089 Q139.881 780.525 136.246 780.525 M136.246 776.821 Q142.056 776.821 145.112 781.427 Q148.191 786.011 148.191 794.761 Q148.191 803.488 145.112 808.094 Q142.056 812.677 136.246 812.677 Q130.436 812.677 127.357 808.094 Q124.302 803.488 124.302 794.761 Q124.302 786.011 127.357 781.427 Q130.436 776.821 136.246 776.821 Z" fill="#000000" fill-rule="nonzero" fill-opacity="1"></path><path clip-path="url(#clip690)" d="M80.8299 450.857 L103.052 450.857 L103.052 452.847 L90.5058 485.417 L85.6216 485.417 L97.4271 454.792 L80.8299 454.792 L80.8299 450.857 Z" fill="#000000" fill-rule="nonzero" fill-opacity="1"></path><path clip-path="url(#clip690)" d="M112.172 479.537 L117.057 479.537 L117.057 485.417 L112.172 485.417 L112.172 479.537 Z" fill="#000000" fill-rule="nonzero" fill-opacity="1"></path><path clip-path="url(#clip690)" d="M127.288 450.857 L145.644 450.857 L145.644 454.792 L131.57 454.792 L131.57 463.264 Q132.589 462.917 133.607 462.755 Q134.626 462.57 135.644 462.57 Q141.431 462.57 144.811 465.741 Q148.191 468.912 148.191 474.329 Q148.191 479.907 144.718 483.009 Q141.246 486.088 134.927 486.088 Q132.751 486.088 130.482 485.718 Q128.237 485.347 125.83 484.606 L125.83 479.907 Q127.913 481.042 130.135 481.597 Q132.357 482.153 134.834 482.153 Q138.839 482.153 141.177 480.046 Q143.515 477.94 143.515 474.329 Q143.515 470.718 141.177 468.611 Q138.839 466.505 134.834 466.505 Q132.959 466.505 131.084 466.921 Q129.232 467.338 127.288 468.218 L127.288 450.857 Z" fill="#000000" fill-rule="nonzero" fill-opacity="1"></path><path clip-path="url(#clip690)" d="M51.6634 154.892 L59.3023 154.892 L59.3023 128.527 L50.9921 130.193 L50.9921 125.934 L59.256 124.267 L63.9319 124.267 L63.9319 154.892 L71.5707 154.892 L71.5707 158.827 L51.6634 158.827 L51.6634 154.892 Z" fill="#000000" fill-rule="nonzero" fill-opacity="1"></path><path clip-path="url(#clip690)" d="M91.0151 127.346 Q87.404 127.346 85.5753 130.911 Q83.7697 134.452 83.7697 141.582 Q83.7697 148.689 85.5753 152.253 Q87.404 155.795 91.0151 155.795 Q94.6493 155.795 96.4548 152.253 Q98.2835 148.689 98.2835 141.582 Q98.2835 134.452 96.4548 130.911 Q94.6493 127.346 91.0151 127.346 M91.0151 123.642 Q96.8252 123.642 99.8808 128.249 Q102.959 132.832 102.959 141.582 Q102.959 150.309 99.8808 154.915 Q96.8252 159.499 91.0151 159.499 Q85.2049 159.499 82.1262 154.915 Q79.0707 150.309 79.0707 141.582 Q79.0707 132.832 82.1262 128.249 Q85.2049 123.642 91.0151 123.642 Z" fill="#000000" fill-rule="nonzero" fill-opacity="1"></path><path clip-path="url(#clip690)" d="M111.177 152.948 L116.061 152.948 L116.061 158.827 L111.177 158.827 L111.177 152.948 Z" fill="#000000" fill-rule="nonzero" fill-opacity="1"></path><path clip-path="url(#clip690)" d="M136.246 127.346 Q132.635 127.346 130.807 130.911 Q129.001 134.452 129.001 141.582 Q129.001 148.689 130.807 152.253 Q132.635 155.795 136.246 155.795 Q139.881 155.795 141.686 152.253 Q143.515 148.689 143.515 141.582 Q143.515 134.452 141.686 130.911 Q139.881 127.346 136.246 127.346 M136.246 123.642 Q142.056 123.642 145.112 128.249 Q148.191 132.832 148.191 141.582 Q148.191 150.309 145.112 154.915 Q142.056 159.499 136.246 159.499 Q130.436 159.499 127.357 154.915 Q124.302 150.309 124.302 141.582 Q124.302 132.832 127.357 128.249 Q130.436 123.642 136.246 123.642 Z" fill="#000000" fill-rule="nonzero" fill-opacity="1"></path><path clip-path="url(#clip690)" d="M1106.88 12.096 L1115.07 12.096 L1115.07 68.3631 Q1115.07 79.3005 1110.89 84.2426 Q1106.76 89.1847 1097.57 89.1847 L1094.45 89.1847 L1094.45 82.2982 L1097 82.2982 Q1102.43 82.2982 1104.65 79.26 Q1106.88 76.2218 1106.88 68.3631 L1106.88 12.096 Z" fill="#000000" fill-rule="nonzero" fill-opacity="1"></path><path clip-path="url(#clip690)" d="M1151.65 49.7694 Q1142.61 49.7694 1139.13 51.8354 Q1135.64 53.9013 1135.64 58.8839 Q1135.64 62.8538 1138.24 65.2034 Q1140.87 67.5124 1145.37 67.5124 Q1151.56 67.5124 1155.29 63.1374 Q1159.06 58.7219 1159.06 51.4303 L1159.06 49.7694 L1151.65 49.7694 M1166.51 46.6907 L1166.51 72.576 L1159.06 72.576 L1159.06 65.6895 Q1156.51 69.8214 1152.7 71.8063 Q1148.89 73.7508 1143.38 73.7508 Q1136.41 73.7508 1132.28 69.8619 Q1128.19 65.9325 1128.19 59.3701 Q1128.19 51.7138 1133.29 47.825 Q1138.44 43.9361 1148.61 43.9361 L1159.06 43.9361 L1159.06 43.2069 Q1159.06 38.0623 1155.66 35.2672 Q1152.29 32.4315 1146.18 32.4315 Q1142.29 32.4315 1138.6 33.3632 Q1134.91 34.295 1131.51 36.1584 L1131.51 29.2718 Q1135.6 27.692 1139.45 26.9223 Q1143.3 26.1121 1146.95 26.1121 Q1156.79 26.1121 1161.65 31.2163 Q1166.51 36.3204 1166.51 46.6907 Z" fill="#000000" fill-rule="nonzero" fill-opacity="1"></path><path clip-path="url(#clip690)" d="M1214.52 28.9478 L1214.52 35.9153 Q1211.36 34.1734 1208.16 33.3227 Q1205 32.4315 1201.75 32.4315 Q1194.5 32.4315 1190.49 37.0496 Q1186.48 41.6271 1186.48 49.9314 Q1186.48 58.2358 1190.49 62.8538 Q1194.5 67.4314 1201.75 67.4314 Q1205 67.4314 1208.16 66.5807 Q1211.36 65.6895 1214.52 63.9476 L1214.52 70.8341 Q1211.4 72.2924 1208.03 73.0216 Q1204.71 73.7508 1200.94 73.7508 Q1190.7 73.7508 1184.66 67.3098 Q1178.62 60.8689 1178.62 49.9314 Q1178.62 38.832 1184.7 32.472 Q1190.82 26.1121 1201.43 26.1121 Q1204.87 26.1121 1208.16 26.8413 Q1211.44 27.5299 1214.52 28.9478 Z" fill="#000000" fill-rule="nonzero" fill-opacity="1"></path><path clip-path="url(#clip690)" d="M1245.06 32.4315 Q1239.06 32.4315 1235.58 37.1306 Q1232.1 41.7891 1232.1 49.9314 Q1232.1 58.0738 1235.54 62.7728 Q1239.02 67.4314 1245.06 67.4314 Q1251.01 67.4314 1254.5 62.7323 Q1257.98 58.0333 1257.98 49.9314 Q1257.98 41.8701 1254.5 37.1711 Q1251.01 32.4315 1245.06 32.4315 M1245.06 26.1121 Q1254.78 26.1121 1260.33 32.4315 Q1265.88 38.7509 1265.88 49.9314 Q1265.88 61.0714 1260.33 67.4314 Q1254.78 73.7508 1245.06 73.7508 Q1235.3 73.7508 1229.75 67.4314 Q1224.24 61.0714 1224.24 49.9314 Q1224.24 38.7509 1229.75 32.4315 Q1235.3 26.1121 1245.06 26.1121 Z" fill="#000000" fill-rule="nonzero" fill-opacity="1"></path><path clip-path="url(#clip690)" d="M1310.81 49.9314 Q1310.81 41.7081 1307.4 37.0496 Q1304.04 32.3505 1298.13 32.3505 Q1292.21 32.3505 1288.81 37.0496 Q1285.45 41.7081 1285.45 49.9314 Q1285.45 58.1548 1288.81 62.8538 Q1292.21 67.5124 1298.13 67.5124 Q1304.04 67.5124 1307.4 62.8538 Q1310.81 58.1548 1310.81 49.9314 M1285.45 34.0924 Q1287.8 30.0415 1291.36 28.0971 Q1294.97 26.1121 1299.95 26.1121 Q1308.21 26.1121 1313.36 32.6746 Q1318.54 39.2371 1318.54 49.9314 Q1318.54 60.6258 1313.36 67.1883 Q1308.21 73.7508 1299.95 73.7508 Q1294.97 73.7508 1291.36 71.8063 Q1287.8 69.8214 1285.45 65.7705 L1285.45 72.576 L1277.95 72.576 L1277.95 9.54393 L1285.45 9.54393 L1285.45 34.0924 Z" fill="#000000" fill-rule="nonzero" fill-opacity="1"></path><path clip-path="url(#clip690)" d="M1330.9 27.2059 L1338.35 27.2059 L1338.35 72.576 L1330.9 72.576 L1330.9 27.2059 M1330.9 9.54393 L1338.35 9.54393 L1338.35 18.9825 L1330.9 18.9825 L1330.9 9.54393 Z" fill="#000000" fill-rule="nonzero" fill-opacity="1"></path><path clip-path="url(#clip690)" d="M1374.57 49.7694 Q1365.53 49.7694 1362.05 51.8354 Q1358.57 53.9013 1358.57 58.8839 Q1358.57 62.8538 1361.16 65.2034 Q1363.79 67.5124 1368.29 67.5124 Q1374.49 67.5124 1378.21 63.1374 Q1381.98 58.7219 1381.98 51.4303 L1381.98 49.7694 L1374.57 49.7694 M1389.43 46.6907 L1389.43 72.576 L1381.98 72.576 L1381.98 65.6895 Q1379.43 69.8214 1375.62 71.8063 Q1371.81 73.7508 1366.3 73.7508 Q1359.34 73.7508 1355.2 69.8619 Q1351.11 65.9325 1351.11 59.3701 Q1351.11 51.7138 1356.22 47.825 Q1361.36 43.9361 1371.53 43.9361 L1381.98 43.9361 L1381.98 43.2069 Q1381.98 38.0623 1378.58 35.2672 Q1375.21 32.4315 1369.1 32.4315 Q1365.21 32.4315 1361.52 33.3632 Q1357.84 34.295 1354.43 36.1584 L1354.43 29.2718 Q1358.52 27.692 1362.37 26.9223 Q1366.22 26.1121 1369.87 26.1121 Q1379.71 26.1121 1384.57 31.2163 Q1389.43 36.3204 1389.43 46.6907 Z" fill="#000000" fill-rule="nonzero" fill-opacity="1"></path><path clip-path="url(#clip690)" d="M1442.5 45.1919 L1442.5 72.576 L1435.05 72.576 L1435.05 45.4349 Q1435.05 38.994 1432.53 35.7938 Q1430.02 32.5936 1425 32.5936 Q1418.96 32.5936 1415.48 36.4419 Q1412 40.2903 1412 46.9338 L1412 72.576 L1404.5 72.576 L1404.5 27.2059 L1412 27.2059 L1412 34.2544 Q1414.67 30.163 1418.28 28.1376 Q1421.92 26.1121 1426.66 26.1121 Q1434.48 26.1121 1438.49 30.9732 Q1442.5 35.7938 1442.5 45.1919 Z" fill="#000000" fill-rule="nonzero" fill-opacity="1"></path><polyline clip-path="url(#clip692)" style="stroke:#009af9; stroke-linecap:round; stroke-linejoin:round; stroke-width:4; stroke-opacity:1; fill:none" points="245.565,1345.33 252.407,1348.2 259.25,1351 266.092,1353.71 272.934,1356.34 279.776,1358.89 286.618,1361.37 293.461,1363.78 300.303,1366.11 307.145,1368.38 313.987,1370.58 320.829,1372.72 327.672,1374.79 334.514,1376.81 341.356,1378.76 348.198,1380.66 355.04,1382.5 361.882,1384.29 368.725,1386.03 375.567,1387.71 382.409,1389.35 389.251,1390.94 396.093,1392.49 402.936,1393.99 409.778,1395.44 416.62,1396.86 423.462,1398.23 430.304,1399.56 437.147,1400.86 443.989,1402.12 450.831,1403.34 457.673,1404.53 464.515,1405.69 471.358,1406.81 478.2,1407.9 485.042,1408.96 491.884,1409.99 498.726,1410.99 505.569,1411.96 512.411,1412.91 519.253,1413.83 526.095,1414.73 532.937,1415.6 539.78,1416.44 546.622,1417.27 553.464,1418.07 560.306,1418.85 567.148,1419.61 573.991,1420.35 580.833,1421.06 587.675,1421.76 594.517,1422.44 601.359,1423.1 608.201,1423.75 615.044,1424.38 621.886,1424.99 628.728,1425.58 635.57,1426.16 642.412,1426.72 649.255,1427.27 656.097,1427.8 662.939,1428.33 669.781,1428.83 676.623,1429.33 683.466,1429.81 690.308,1430.27 697.15,1430.73 703.992,1431.17 710.834,1431.61 717.677,1432.03 724.519,1432.44 731.361,1432.84 738.203,1433.23 745.045,1433.61 751.888,1433.98 758.73,1434.34 765.572,1434.69 772.414,1435.03 779.256,1435.36 786.099,1435.69 792.941,1436 799.783,1436.31 806.625,1436.61 813.467,1436.9 820.31,1437.19 827.152,1437.47 833.994,1437.74 840.836,1438 847.678,1438.26 854.521,1438.51 861.363,1438.75 868.205,1438.99 875.047,1439.22 881.889,1439.45 888.731,1439.67 895.574,1439.88 902.416,1440.09 909.258,1440.29 916.1,1440.49 922.942,1440.69 929.785,1440.87 936.627,1441.06 943.469,1441.24 950.311,1441.41 957.153,1441.58 963.996,1441.75 970.838,1441.91 977.68,1442.06 984.522,1442.22 991.364,1442.37 998.207,1442.51 1005.05,1442.65 1011.89,1442.79 1018.73,1442.92 1025.58,1443.05 1032.42,1443.18 1039.26,1443.31 1046.1,1443.43 1052.94,1443.54 1059.79,1443.66 1066.63,1443.77 1073.47,1443.88 1080.31,1443.99 1087.16,1444.09 1094,1444.19 1100.84,1444.29 1107.68,1444.38 1114.52,1444.48 1121.37,1444.57 1128.21,1444.65 1135.05,1444.74 1141.89,1444.82 1148.73,1444.91 1155.58,1444.99 1162.42,1445.06 1169.26,1445.14 1176.1,1445.21 1182.95,1445.28 1189.79,1445.35 1196.63,1445.42 1203.47,1445.49 1210.31,1445.55 1217.16,1445.61 1224,1445.67 1230.84,1445.73 1237.68,1445.79 1244.53,1445.85 1251.37,1445.9 1258.21,1445.95 1265.05,1446.01 1271.89,1446.06 1278.74,1446.11 1285.58,1446.15 1292.42,1446.2 1299.26,1446.25 1306.11,1446.29 1312.95,1446.33 1319.79,1446.38 1326.63,1446.42 1333.47,1446.46 1340.32,1446.5 1347.16,1446.53 1354,1446.57 1360.84,1446.61 1367.69,1446.64 1374.53,1446.67 1381.37,1446.71 1388.21,1446.74 1395.05,1446.77 1401.9,1446.8 1408.74,1446.83 1415.58,1446.86 1422.42,1446.89 1429.26,1446.91 1436.11,1446.94 1442.95,1446.97 1449.79,1446.99 1456.63,1447.02 1463.48,1447.04 1470.32,1447.06 1477.16,1447.09 1484,1447.11 1490.84,1447.13 1497.69,1447.15 1504.53,1447.17 1511.37,1447.19 1518.21,1447.21 1525.06,1447.23 1531.9,1447.25 1538.74,1447.26 1545.58,1447.28 1552.42,1447.3 1559.27,1447.31 1566.11,1447.33 1572.95,1447.35 1579.79,1447.36 1586.64,1447.38 1593.48,1447.39 1600.32,1447.4 1607.16,1447.42 1614,1447.43 1620.85,1447.44 1627.69,1447.46 1634.53,1447.47 1641.37,1447.48 1648.22,1447.49 1655.06,1447.5 1661.9,1447.51 1668.74,1447.52 1675.58,1447.53 1682.43,1447.54 1689.27,1447.55 1696.11,1447.56 1702.95,1447.57 1709.79,1447.58 1716.64,1447.59 1723.48,1447.6 1730.32,1447.61 1737.16,1447.61 1744.01,1447.62 1750.85,1447.63 1757.69,1447.64 1764.53,1447.64 1771.37,1447.65 1778.22,1447.66 1785.06,1447.66 1791.9,1447.67 1798.74,1447.68 1805.59,1447.68 1812.43,1447.69 1819.27,1447.7 1826.11,1447.7 1832.95,1447.71 1839.8,1447.71 1846.64,1447.72 1853.48,1447.72 1860.32,1447.73 1867.17,1447.73 1874.01,1447.74 1880.85,1447.74 1887.69,1447.75 1894.53,1447.75 1901.38,1447.75 1908.22,1447.76 1915.06,1447.76 1921.9,1447.77 1928.75,1447.77 1935.59,1447.77 1942.43,1447.78 1949.27,1447.78 1956.11,1447.78 1962.96,1447.79 1969.8,1447.79 1976.64,1447.79 1983.48,1447.8 1990.32,1447.8 1997.17,1447.8 2004.01,1447.8 2010.85,1447.81 2017.69,1447.81 2024.54,1447.81 2031.38,1447.82 2038.22,1447.82 2045.06,1447.82 2051.9,1447.82 2058.75,1447.82 2065.59,1447.83 2072.43,1447.83 2079.27,1447.83 2086.12,1447.83 2092.96,1447.83 2099.8,1447.84 2106.64,1447.84 2113.48,1447.84 2120.33,1447.84 2127.17,1447.84 2134.01,1447.85 2140.85,1447.85 2147.7,1447.85 2154.54,1447.85 2161.38,1447.85 2168.22,1447.85 2175.06,1447.85 2181.91,1447.86 2188.75,1447.86 2195.59,1447.86 2202.43,1447.86 2209.28,1447.86 2216.12,1447.86 2222.96,1447.86 2229.8,1447.86 2236.64,1447.87 2243.49,1447.87 2250.33,1447.87 2257.17,1447.87 2264.01,1447.87 2270.85,1447.87 2277.7,1447.87 2284.54,1447.87 2291.38,1447.87 "></polyline>
<polyline clip-path="url(#clip692)" style="stroke:#e26f46; stroke-linecap:round; stroke-linejoin:round; stroke-width:4; stroke-opacity:1; fill:none" points="245.565,1423.56 252.407,1398.26 259.25,1371.94 266.092,1344.54 272.934,1315.96 279.776,1286.15 286.618,1255.01 293.461,1222.46 300.303,1188.41 307.145,1152.76 313.987,1115.41 320.829,1076.25 327.672,1035.16 334.514,992.026 341.356,946.713 348.198,899.085 355.04,848.996 361.882,796.29 368.725,740.802 375.567,682.354 382.409,620.755 389.251,555.799 396.093,487.262 402.936,414.902 409.778,338.451 416.62,366.796 423.462,394.413 430.304,421.319 437.147,447.532 443.989,473.071 450.831,497.952 457.673,522.191 464.515,545.805 471.358,568.809 478.2,591.218 485.042,613.047 491.884,634.312 498.726,655.025 505.569,675.201 512.411,694.855 519.253,713.999 526.095,732.647 532.937,750.812 539.78,768.505 546.622,785.741 553.464,802.53 560.306,818.886 567.148,834.818 573.991,850.339 580.833,865.46 587.675,880.191 594.517,894.543 601.359,908.526 608.201,922.15 615.044,935.425 621.886,948.36 628.728,960.964 635.57,973.246 642.412,985.216 649.255,996.881 656.097,1008.25 662.939,1019.33 669.781,1030.13 676.623,1040.65 683.466,1050.91 690.308,1060.91 697.15,1070.66 703.992,1080.17 710.834,1089.43 717.677,1098.46 724.519,1107.27 731.361,1115.85 738.203,1124.22 745.045,1132.38 751.888,1140.34 758.73,1148.1 765.572,1155.66 772.414,1163.04 779.256,1170.23 786.099,1177.24 792.941,1184.08 799.783,1190.75 806.625,1197.25 813.467,1203.6 820.31,1209.78 827.152,1215.81 833.994,1221.69 840.836,1227.43 847.678,1233.02 854.521,1238.47 861.363,1243.79 868.205,1248.98 875.047,1254.04 881.889,1258.97 888.731,1263.78 895.574,1268.47 902.416,1273.04 909.258,1277.5 916.1,1281.85 922.942,1286.09 929.785,1290.23 936.627,1294.26 943.469,1298.19 950.311,1302.03 957.153,1305.77 963.996,1309.41 970.838,1312.97 977.68,1316.43 984.522,1319.81 991.364,1323.11 998.207,1326.32 1005.05,1329.45 1011.89,1332.51 1018.73,1335.48 1025.58,1338.39 1032.42,1341.22 1039.26,1343.97 1046.1,1346.66 1052.94,1349.28 1059.79,1351.84 1066.63,1354.33 1073.47,1356.76 1080.31,1359.13 1087.16,1361.43 1094,1363.68 1100.84,1365.87 1107.68,1368.01 1114.52,1370.09 1121.37,1372.12 1128.21,1374.1 1135.05,1376.02 1141.89,1377.9 1148.73,1379.73 1155.58,1381.52 1162.42,1383.25 1169.26,1384.95 1176.1,1386.6 1182.95,1388.21 1189.79,1389.77 1196.63,1391.3 1203.47,1392.79 1210.31,1394.24 1217.16,1395.65 1224,1397.02 1230.84,1398.36 1237.68,1399.67 1244.53,1400.94 1251.37,1402.18 1258.21,1403.39 1265.05,1404.56 1271.89,1405.71 1278.74,1406.82 1285.58,1407.91 1292.42,1408.97 1299.26,1410 1306.11,1411 1312.95,1411.98 1319.79,1412.93 1326.63,1413.86 1333.47,1414.77 1340.32,1415.65 1347.16,1416.5 1354,1417.34 1360.84,1418.15 1367.69,1418.94 1374.53,1419.71 1381.37,1420.46 1388.21,1421.19 1395.05,1421.91 1401.9,1422.6 1408.74,1423.27 1415.58,1423.93 1422.42,1424.57 1429.26,1425.19 1436.11,1425.8 1442.95,1426.39 1449.79,1426.97 1456.63,1427.52 1463.48,1428.07 1470.32,1428.6 1477.16,1429.12 1484,1429.62 1490.84,1430.11 1497.69,1430.59 1504.53,1431.05 1511.37,1431.5 1518.21,1431.94 1525.06,1432.37 1531.9,1432.79 1538.74,1433.19 1545.58,1433.59 1552.42,1433.97 1559.27,1434.34 1566.11,1434.71 1572.95,1435.06 1579.79,1435.41 1586.64,1435.74 1593.48,1436.07 1600.32,1436.39 1607.16,1436.7 1614,1437 1620.85,1437.29 1627.69,1437.58 1634.53,1437.86 1641.37,1438.13 1648.22,1438.39 1655.06,1438.64 1661.9,1438.89 1668.74,1439.14 1675.58,1439.37 1682.43,1439.6 1689.27,1439.83 1696.11,1440.04 1702.95,1440.26 1709.79,1440.46 1716.64,1440.66 1723.48,1440.86 1730.32,1441.05 1737.16,1441.23 1744.01,1441.41 1750.85,1441.59 1757.69,1441.76 1764.53,1441.92 1771.37,1442.09 1778.22,1442.24 1785.06,1442.39 1791.9,1442.54 1798.74,1442.69 1805.59,1442.83 1812.43,1442.97 1819.27,1443.1 1826.11,1443.23 1832.95,1443.36 1839.8,1443.48 1846.64,1443.6 1853.48,1443.71 1860.32,1443.83 1867.17,1443.94 1874.01,1444.04 1880.85,1444.15 1887.69,1444.25 1894.53,1444.35 1901.38,1444.44 1908.22,1444.54 1915.06,1444.63 1921.9,1444.72 1928.75,1444.8 1935.59,1444.89 1942.43,1444.97 1949.27,1445.05 1956.11,1445.13 1962.96,1445.2 1969.8,1445.27 1976.64,1445.35 1983.48,1445.41 1990.32,1445.48 1997.17,1445.55 2004.01,1445.61 2010.85,1445.67 2017.69,1445.73 2024.54,1445.79 2031.38,1445.85 2038.22,1445.9 2045.06,1445.96 2051.9,1446.01 2058.75,1446.06 2065.59,1446.11 2072.43,1446.16 2079.27,1446.21 2086.12,1446.25 2092.96,1446.3 2099.8,1446.34 2106.64,1446.38 2113.48,1446.43 2120.33,1446.47 2127.17,1446.5 2134.01,1446.54 2140.85,1446.58 2147.7,1446.61 2154.54,1446.65 2161.38,1446.68 2168.22,1446.72 2175.06,1446.75 2181.91,1446.78 2188.75,1446.81 2195.59,1446.84 2202.43,1446.87 2209.28,1446.9 2216.12,1446.92 2222.96,1446.95 2229.8,1446.98 2236.64,1447 2243.49,1447.03 2250.33,1447.05 2257.17,1447.07 2264.01,1447.1 2270.85,1447.12 2277.7,1447.14 2284.54,1447.16 2291.38,1447.18 "></polyline>
<polyline clip-path="url(#clip692)" style="stroke:#3da44d; stroke-linecap:round; stroke-linejoin:round; stroke-width:4; stroke-opacity:1; fill:none" points="245.565,1442.36 252.407,1436.59 259.25,1430.56 266.092,1424.27 272.934,1417.7 279.776,1410.82 286.618,1403.62 293.461,1396.08 300.303,1388.17 307.145,1379.88 313.987,1371.18 320.829,1362.04 327.672,1352.44 334.514,1342.34 341.356,1331.72 348.198,1320.55 355.04,1308.78 361.882,1296.4 368.725,1283.35 375.567,1269.6 382.409,1255.1 389.251,1239.81 396.093,1223.68 402.936,1206.67 409.778,1188.71 416.62,1169.75 423.462,1149.73 430.304,1128.59 437.147,1106.26 443.989,1082.67 450.831,1057.74 457.673,1031.39 464.515,1003.54 471.358,974.1 478.2,942.969 485.042,910.05 491.884,875.235 498.726,838.41 505.569,799.456 512.411,758.243 519.253,714.637 526.095,668.492 532.937,619.655 539.78,567.961 546.622,513.233 553.464,455.281 560.306,393.903 567.148,328.874 573.991,259.954 580.833,186.875 587.675,218.527 594.517,249.386 601.359,279.47 608.201,308.801 615.044,337.395 621.886,365.27 628.728,392.446 635.57,418.937 642.412,444.762 649.255,469.935 656.097,494.474 662.939,518.394 669.781,541.71 676.623,564.437 683.466,586.589 690.308,608.181 697.15,629.228 703.992,649.743 710.834,669.739 717.677,689.23 724.519,708.229 731.361,726.748 738.203,744.799 745.045,762.396 751.888,779.549 758.73,796.27 765.572,812.571 772.414,828.462 779.256,843.954 786.099,859.057 792.941,873.782 799.783,888.138 806.625,902.135 813.467,915.783 820.31,929.09 827.152,942.065 833.994,954.717 840.836,967.054 847.678,979.085 854.521,990.817 861.363,1002.26 868.205,1013.42 875.047,1024.3 881.889,1034.91 888.731,1045.26 895.574,1055.35 902.416,1065.19 909.258,1074.8 916.1,1084.16 922.942,1093.29 929.785,1102.2 936.627,1110.89 943.469,1119.37 950.311,1127.63 957.153,1135.7 963.996,1143.56 970.838,1151.23 977.68,1158.71 984.522,1166.01 991.364,1173.13 998.207,1180.07 1005.05,1186.85 1011.89,1193.45 1018.73,1199.9 1025.58,1206.18 1032.42,1212.31 1039.26,1218.29 1046.1,1224.12 1052.94,1229.81 1059.79,1235.35 1066.63,1240.76 1073.47,1246.04 1080.31,1251.19 1087.16,1256.2 1094,1261.1 1100.84,1265.87 1107.68,1270.53 1114.52,1275.07 1121.37,1279.49 1128.21,1283.81 1135.05,1288.02 1141.89,1292.12 1148.73,1296.13 1155.58,1300.03 1162.42,1303.83 1169.26,1307.55 1176.1,1311.16 1182.95,1314.69 1189.79,1318.13 1196.63,1321.48 1203.47,1324.75 1210.31,1327.94 1217.16,1331.04 1224,1334.07 1230.84,1337.02 1237.68,1339.9 1244.53,1342.71 1251.37,1345.44 1258.21,1348.11 1265.05,1350.71 1271.89,1353.24 1278.74,1355.71 1285.58,1358.11 1292.42,1360.45 1299.26,1362.74 1306.11,1364.97 1312.95,1367.14 1319.79,1369.25 1326.63,1371.31 1333.47,1373.32 1340.32,1375.27 1347.16,1377.18 1354,1379.04 1360.84,1380.85 1367.69,1382.61 1374.53,1384.33 1381.37,1386 1388.21,1387.63 1395.05,1389.22 1401.9,1390.77 1408.74,1392.28 1415.58,1393.75 1422.42,1395.18 1429.26,1396.57 1436.11,1397.93 1442.95,1399.25 1449.79,1400.54 1456.63,1401.79 1463.48,1403.02 1470.32,1404.21 1477.16,1405.37 1484,1406.49 1490.84,1407.59 1497.69,1408.67 1504.53,1409.71 1511.37,1410.72 1518.21,1411.71 1525.06,1412.68 1531.9,1413.61 1538.74,1414.53 1545.58,1415.42 1552.42,1416.28 1559.27,1417.13 1566.11,1417.95 1572.95,1418.75 1579.79,1419.52 1586.64,1420.28 1593.48,1421.02 1600.32,1421.74 1607.16,1422.44 1614,1423.12 1620.85,1423.78 1627.69,1424.43 1634.53,1425.06 1641.37,1425.67 1648.22,1426.26 1655.06,1426.84 1661.9,1427.41 1668.74,1427.96 1675.58,1428.49 1682.43,1429.01 1689.27,1429.52 1696.11,1430.01 1702.95,1430.49 1709.79,1430.96 1716.64,1431.42 1723.48,1431.86 1730.32,1432.29 1737.16,1432.71 1744.01,1433.12 1750.85,1433.52 1757.69,1433.9 1764.53,1434.28 1771.37,1434.65 1778.22,1435 1785.06,1435.35 1791.9,1435.69 1798.74,1436.02 1805.59,1436.34 1812.43,1436.65 1819.27,1436.95 1826.11,1437.25 1832.95,1437.53 1839.8,1437.81 1846.64,1438.08 1853.48,1438.35 1860.32,1438.61 1867.17,1438.86 1874.01,1439.1 1880.85,1439.34 1887.69,1439.57 1894.53,1439.79 1901.38,1440.01 1908.22,1440.23 1915.06,1440.43 1921.9,1440.63 1928.75,1440.83 1935.59,1441.02 1942.43,1441.21 1949.27,1441.39 1956.11,1441.56 1962.96,1441.74 1969.8,1441.9 1976.64,1442.06 1983.48,1442.22 1990.32,1442.38 1997.17,1442.52 2004.01,1442.67 2010.85,1442.81 2017.69,1442.95 2024.54,1443.08 2031.38,1443.21 2038.22,1443.34 2045.06,1443.46 2051.9,1443.58 2058.75,1443.7 2065.59,1443.81 2072.43,1443.92 2079.27,1444.03 2086.12,1444.14 2092.96,1444.24 2099.8,1444.34 2106.64,1444.43 2113.48,1444.53 2120.33,1444.62 2127.17,1444.71 2134.01,1444.79 2140.85,1444.88 2147.7,1444.96 2154.54,1445.04 2161.38,1445.12 2168.22,1445.19 2175.06,1445.27 2181.91,1445.34 2188.75,1445.41 2195.59,1445.47 2202.43,1445.54 2209.28,1445.6 2216.12,1445.67 2222.96,1445.73 2229.8,1445.79 2236.64,1445.84 2243.49,1445.9 2250.33,1445.95 2257.17,1446.01 2264.01,1446.06 2270.85,1446.11 2277.7,1446.16 2284.54,1446.2 2291.38,1446.25 "></polyline>
<polyline clip-path="url(#clip692)" style="stroke:#c271d2; stroke-linecap:round; stroke-linejoin:round; stroke-width:4; stroke-opacity:1; fill:none" points="245.565,1446.68 252.407,1445.41 259.25,1444.07 266.092,1442.67 272.934,1441.21 279.776,1439.67 286.618,1438.05 293.461,1436.36 300.303,1434.57 307.145,1432.7 313.987,1430.72 320.829,1428.65 327.672,1426.46 334.514,1424.15 341.356,1421.72 348.198,1419.15 355.04,1416.45 361.882,1413.59 368.725,1410.57 375.567,1407.39 382.409,1404.03 389.251,1400.48 396.093,1396.72 402.936,1392.76 409.778,1388.56 416.62,1384.13 423.462,1379.44 430.304,1374.49 437.147,1369.25 443.989,1363.7 450.831,1357.84 457.673,1351.64 464.515,1345.07 471.358,1338.13 478.2,1330.78 485.042,1323.01 491.884,1314.78 498.726,1306.08 505.569,1296.86 512.411,1287.11 519.253,1276.79 526.095,1265.87 532.937,1254.31 539.78,1242.07 546.622,1229.11 553.464,1215.4 560.306,1200.88 567.148,1185.51 573.991,1169.24 580.833,1152.02 587.675,1133.78 594.517,1114.47 601.359,1094.03 608.201,1072.39 615.044,1049.47 621.886,1025.2 628.728,999.505 635.57,972.296 642.412,943.484 649.255,912.974 656.097,880.664 662.939,846.448 669.781,810.212 676.623,771.837 683.466,731.193 690.308,688.147 697.15,642.552 703.992,594.255 710.834,543.092 717.677,488.886 724.519,431.448 731.361,370.573 738.203,306.039 745.045,237.605 751.888,165.005 758.73,197.126 765.572,228.445 772.414,258.983 779.256,288.757 786.099,317.788 792.941,346.092 799.783,373.688 806.625,400.592 813.467,426.822 820.31,452.394 827.152,477.323 833.994,501.626 840.836,525.317 847.678,548.412 854.521,570.926 861.363,592.873 868.205,614.267 875.047,635.123 881.889,655.454 888.731,675.272 895.574,694.592 902.416,713.426 909.258,731.786 916.1,749.685 922.942,767.134 929.785,784.146 936.627,800.731 943.469,816.9 950.311,832.665 957.153,848.035 963.996,863.021 970.838,877.634 977.68,891.881 984.522,905.774 991.364,919.321 998.207,932.532 1005.05,945.414 1011.89,957.976 1018.73,970.227 1025.58,982.174 1032.42,993.826 1039.26,1005.19 1046.1,1016.27 1052.94,1027.08 1059.79,1037.62 1066.63,1047.9 1073.47,1057.93 1080.31,1067.71 1087.16,1077.25 1094,1086.56 1100.84,1095.64 1107.68,1104.49 1114.52,1113.13 1121.37,1121.55 1128.21,1129.76 1135.05,1137.78 1141.89,1145.6 1148.73,1153.22 1155.58,1160.66 1162.42,1167.91 1169.26,1174.99 1176.1,1181.89 1182.95,1188.62 1189.79,1195.19 1196.63,1201.59 1203.47,1207.84 1210.31,1213.94 1217.16,1219.88 1224,1225.68 1230.84,1231.33 1237.68,1236.84 1244.53,1242.22 1251.37,1247.47 1258.21,1252.58 1265.05,1257.57 1271.89,1262.43 1278.74,1267.18 1285.58,1271.81 1292.42,1276.32 1299.26,1280.72 1306.11,1285.01 1312.95,1289.19 1319.79,1293.27 1326.63,1297.25 1333.47,1301.13 1340.32,1304.91 1347.16,1308.6 1354,1312.19 1360.84,1315.7 1367.69,1319.11 1374.53,1322.44 1381.37,1325.69 1388.21,1328.86 1395.05,1331.94 1401.9,1334.95 1408.74,1337.89 1415.58,1340.75 1422.42,1343.53 1429.26,1346.25 1436.11,1348.9 1442.95,1351.48 1449.79,1353.99 1456.63,1356.44 1463.48,1358.83 1470.32,1361.16 1477.16,1363.43 1484,1365.64 1490.84,1367.79 1497.69,1369.89 1504.53,1371.94 1511.37,1373.93 1518.21,1375.87 1525.06,1377.77 1531.9,1379.61 1538.74,1381.41 1545.58,1383.16 1552.42,1384.86 1559.27,1386.52 1566.11,1388.14 1572.95,1389.72 1579.79,1391.26 1586.64,1392.75 1593.48,1394.21 1600.32,1395.63 1607.16,1397.01 1614,1398.36 1620.85,1399.67 1627.69,1400.95 1634.53,1402.19 1641.37,1403.41 1648.22,1404.59 1655.06,1405.74 1661.9,1406.86 1668.74,1407.95 1675.58,1409.01 1682.43,1410.05 1689.27,1411.05 1696.11,1412.03 1702.95,1412.99 1709.79,1413.92 1716.64,1414.83 1723.48,1415.71 1730.32,1416.57 1737.16,1417.4 1744.01,1418.22 1750.85,1419.01 1757.69,1419.78 1764.53,1420.53 1771.37,1421.26 1778.22,1421.98 1785.06,1422.67 1791.9,1423.35 1798.74,1424 1805.59,1424.64 1812.43,1425.27 1819.27,1425.87 1826.11,1426.46 1832.95,1427.04 1839.8,1427.6 1846.64,1428.14 1853.48,1428.67 1860.32,1429.19 1867.17,1429.69 1874.01,1430.18 1880.85,1430.66 1887.69,1431.12 1894.53,1431.57 1901.38,1432.01 1908.22,1432.44 1915.06,1432.85 1921.9,1433.26 1928.75,1433.65 1935.59,1434.03 1942.43,1434.41 1949.27,1434.77 1956.11,1435.12 1962.96,1435.47 1969.8,1435.8 1976.64,1436.13 1983.48,1436.45 1990.32,1436.75 1997.17,1437.05 2004.01,1437.35 2010.85,1437.63 2017.69,1437.91 2024.54,1438.18 2031.38,1438.44 2038.22,1438.69 2045.06,1438.94 2051.9,1439.18 2058.75,1439.42 2065.59,1439.65 2072.43,1439.87 2079.27,1440.09 2086.12,1440.3 2092.96,1440.5 2099.8,1440.7 2106.64,1440.9 2113.48,1441.09 2120.33,1441.27 2127.17,1441.45 2134.01,1441.62 2140.85,1441.79 2147.7,1441.96 2154.54,1442.12 2161.38,1442.28 2168.22,1442.43 2175.06,1442.58 2181.91,1442.72 2188.75,1442.86 2195.59,1443 2202.43,1443.13 2209.28,1443.26 2216.12,1443.38 2222.96,1443.51 2229.8,1443.62 2236.64,1443.74 2243.49,1443.85 2250.33,1443.96 2257.17,1444.07 2264.01,1444.17 2270.85,1444.27 2277.7,1444.37 2284.54,1444.47 2291.38,1444.56 "></polyline>
<polyline clip-path="url(#clip692)" style="stroke:#ac8d18; stroke-linecap:round; stroke-linejoin:round; stroke-width:4; stroke-opacity:1; fill:none" points="245.565,1447.65 252.407,1447.38 259.25,1447.1 266.092,1446.81 272.934,1446.5 279.776,1446.18 286.618,1445.84 293.461,1445.47 300.303,1445.09 307.145,1444.69 313.987,1444.27 320.829,1443.82 327.672,1443.35 334.514,1442.85 341.356,1442.32 348.198,1441.76 355.04,1441.17 361.882,1440.55 368.725,1439.88 375.567,1439.18 382.409,1438.44 389.251,1437.65 396.093,1436.82 402.936,1435.94 409.778,1435 416.62,1434.01 423.462,1432.96 430.304,1431.84 437.147,1430.66 443.989,1429.4 450.831,1428.08 457.673,1426.67 464.515,1425.17 471.358,1423.59 478.2,1421.91 485.042,1420.13 491.884,1418.24 498.726,1416.23 505.569,1414.11 512.411,1411.86 519.253,1409.47 526.095,1406.94 532.937,1404.25 539.78,1401.41 546.622,1398.39 553.464,1395.19 560.306,1391.8 567.148,1388.2 573.991,1384.39 580.833,1380.36 587.675,1376.07 594.517,1371.54 601.359,1366.73 608.201,1361.63 615.044,1356.23 621.886,1350.5 628.728,1344.44 635.57,1338.01 642.412,1331.2 649.255,1323.99 656.097,1316.34 662.939,1308.24 669.781,1299.66 676.623,1290.57 683.466,1280.94 690.308,1270.74 697.15,1259.94 703.992,1248.49 710.834,1236.37 717.677,1223.52 724.519,1209.92 731.361,1195.51 738.203,1180.25 745.045,1164.08 751.888,1146.96 758.73,1128.83 765.572,1109.62 772.414,1089.28 779.256,1067.73 786.099,1044.91 792.941,1020.73 799.783,995.131 806.625,968.013 813.467,939.29 820.31,908.867 827.152,876.644 833.994,842.513 840.836,806.36 847.678,768.067 854.521,727.504 861.363,684.536 868.205,639.019 875.047,590.799 881.889,539.711 888.731,485.579 895.574,428.213 902.416,367.409 909.258,302.946 916.1,234.58 922.942,162.047 929.785,194.234 936.627,225.619 943.469,256.22 950.311,286.057 957.153,315.148 963.996,343.513 970.838,371.168 977.68,398.13 984.522,424.416 991.364,450.043 998.207,475.027 1005.05,499.383 1011.89,523.127 1018.73,546.273 1025.58,568.838 1032.42,590.834 1039.26,612.277 1046.1,633.179 1052.94,653.556 1059.79,673.42 1066.63,692.784 1073.47,711.662 1080.31,730.064 1087.16,748.005 1094,765.495 1100.84,782.546 1107.68,799.17 1114.52,815.378 1121.37,831.18 1128.21,846.587 1135.05,861.609 1141.89,876.256 1148.73,890.538 1155.58,904.464 1162.42,918.044 1169.26,931.286 1176.1,944.199 1182.95,956.792 1189.79,969.073 1196.63,981.049 1203.47,992.729 1210.31,1004.12 1217.16,1015.23 1224,1026.07 1230.84,1036.63 1237.68,1046.94 1244.53,1056.99 1251.37,1066.8 1258.21,1076.36 1265.05,1085.69 1271.89,1094.79 1278.74,1103.66 1285.58,1112.32 1292.42,1120.77 1299.26,1129 1306.11,1137.04 1312.95,1144.87 1319.79,1152.52 1326.63,1159.97 1333.47,1167.24 1340.32,1174.34 1347.16,1181.26 1354,1188.01 1360.84,1194.59 1367.69,1201.01 1374.53,1207.27 1381.37,1213.38 1388.21,1219.34 1395.05,1225.15 1401.9,1230.82 1408.74,1236.34 1415.58,1241.74 1422.42,1246.99 1429.26,1252.12 1436.11,1257.12 1442.95,1262 1449.79,1266.75 1456.63,1271.39 1463.48,1275.92 1470.32,1280.33 1477.16,1284.63 1484,1288.82 1490.84,1292.91 1497.69,1296.9 1504.53,1300.79 1511.37,1304.58 1518.21,1308.27 1525.06,1311.88 1531.9,1315.39 1538.74,1318.82 1545.58,1322.15 1552.42,1325.41 1559.27,1328.58 1566.11,1331.68 1572.95,1334.69 1579.79,1337.63 1586.64,1340.5 1593.48,1343.29 1600.32,1346.02 1607.16,1348.67 1614,1351.26 1620.85,1353.78 1627.69,1356.23 1634.53,1358.63 1641.37,1360.96 1648.22,1363.23 1655.06,1365.45 1661.9,1367.61 1668.74,1369.71 1675.58,1371.77 1682.43,1373.76 1689.27,1375.71 1696.11,1377.61 1702.95,1379.46 1709.79,1381.26 1716.64,1383.01 1723.48,1384.72 1730.32,1386.39 1737.16,1388.01 1744.01,1389.59 1750.85,1391.13 1757.69,1392.63 1764.53,1394.09 1771.37,1395.51 1778.22,1396.9 1785.06,1398.25 1791.9,1399.56 1798.74,1400.84 1805.59,1402.09 1812.43,1403.31 1819.27,1404.49 1826.11,1405.64 1832.95,1406.77 1839.8,1407.86 1846.64,1408.92 1853.48,1409.96 1860.32,1410.97 1867.17,1411.95 1874.01,1412.91 1880.85,1413.84 1887.69,1414.75 1894.53,1415.64 1901.38,1416.5 1908.22,1417.33 1915.06,1418.15 1921.9,1418.95 1928.75,1419.72 1935.59,1420.47 1942.43,1421.21 1949.27,1421.92 1956.11,1422.61 1962.96,1423.29 1969.8,1423.95 1976.64,1424.59 1983.48,1425.22 1990.32,1425.82 1997.17,1426.42 2004.01,1426.99 2010.85,1427.55 2017.69,1428.1 2024.54,1428.63 2031.38,1429.15 2038.22,1429.65 2045.06,1430.14 2051.9,1430.62 2058.75,1431.08 2065.59,1431.53 2072.43,1431.97 2079.27,1432.4 2086.12,1432.82 2092.96,1433.22 2099.8,1433.62 2106.64,1434 2113.48,1434.38 2120.33,1434.74 2127.17,1435.1 2134.01,1435.44 2140.85,1435.78 2147.7,1436.1 2154.54,1436.42 2161.38,1436.73 2168.22,1437.03 2175.06,1437.32 2181.91,1437.61 2188.75,1437.89 2195.59,1438.16 2202.43,1438.42 2209.28,1438.67 2216.12,1438.92 2222.96,1439.17 2229.8,1439.4 2236.64,1439.63 2243.49,1439.85 2250.33,1440.07 2257.17,1440.28 2264.01,1440.49 2270.85,1440.69 2277.7,1440.88 2284.54,1441.07 2291.38,1441.26 "></polyline>
<path clip-path="url(#clip690)" d="M1889.1 479.945 L2280.47 479.945 L2280.47 168.905 L1889.1 168.905  Z" fill="#ffffff" fill-rule="evenodd" fill-opacity="1"></path>
<polyline clip-path="url(#clip690)" style="stroke:#000000; stroke-linecap:round; stroke-linejoin:round; stroke-width:4; stroke-opacity:1; fill:none" points="1889.1,479.945 2280.47,479.945 2280.47,168.905 1889.1,168.905 1889.1,479.945 "></polyline>
<polyline clip-path="url(#clip690)" style="stroke:#009af9; stroke-linecap:round; stroke-linejoin:round; stroke-width:4; stroke-opacity:1; fill:none" points="1913.2,220.745 2057.77,220.745 "></polyline>
<path clip-path="url(#clip690)" d="M2089.27 204.738 L2089.27 212.099 L2098.04 212.099 L2098.04 215.409 L2089.27 215.409 L2089.27 229.483 Q2089.27 232.654 2090.13 233.557 Q2091.01 234.46 2093.67 234.46 L2098.04 234.46 L2098.04 238.025 L2093.67 238.025 Q2088.74 238.025 2086.86 236.196 Q2084.99 234.344 2084.99 229.483 L2084.99 215.409 L2081.86 215.409 L2081.86 212.099 L2084.99 212.099 L2084.99 204.738 L2089.27 204.738 Z" fill="#000000" fill-rule="nonzero" fill-opacity="1"></path><path clip-path="url(#clip690)" d="M2119.27 216.497 L2148.95 216.497 L2148.95 220.386 L2119.27 220.386 L2119.27 216.497 M2119.27 225.941 L2148.95 225.941 L2148.95 229.877 L2119.27 229.877 L2119.27 225.941 Z" fill="#000000" fill-rule="nonzero" fill-opacity="1"></path><path clip-path="url(#clip690)" d="M2174.92 234.089 L2182.56 234.089 L2182.56 207.724 L2174.25 209.391 L2174.25 205.131 L2182.51 203.465 L2187.19 203.465 L2187.19 234.089 L2194.82 234.089 L2194.82 238.025 L2174.92 238.025 L2174.92 234.089 Z" fill="#000000" fill-rule="nonzero" fill-opacity="1"></path><polyline clip-path="url(#clip690)" style="stroke:#e26f46; stroke-linecap:round; stroke-linejoin:round; stroke-width:4; stroke-opacity:1; fill:none" points="1913.2,272.585 2057.77,272.585 "></polyline>
<path clip-path="url(#clip690)" d="M2089.27 256.578 L2089.27 263.939 L2098.04 263.939 L2098.04 267.249 L2089.27 267.249 L2089.27 281.323 Q2089.27 284.494 2090.13 285.397 Q2091.01 286.3 2093.67 286.3 L2098.04 286.3 L2098.04 289.865 L2093.67 289.865 Q2088.74 289.865 2086.86 288.036 Q2084.99 286.184 2084.99 281.323 L2084.99 267.249 L2081.86 267.249 L2081.86 263.939 L2084.99 263.939 L2084.99 256.578 L2089.27 256.578 Z" fill="#000000" fill-rule="nonzero" fill-opacity="1"></path><path clip-path="url(#clip690)" d="M2119.27 268.337 L2148.95 268.337 L2148.95 272.226 L2119.27 272.226 L2119.27 268.337 M2119.27 277.781 L2148.95 277.781 L2148.95 281.717 L2119.27 281.717 L2119.27 277.781 Z" fill="#000000" fill-rule="nonzero" fill-opacity="1"></path><path clip-path="url(#clip690)" d="M2178.13 285.929 L2194.45 285.929 L2194.45 289.865 L2172.51 289.865 L2172.51 285.929 Q2175.17 283.175 2179.76 278.545 Q2184.36 273.893 2185.54 272.55 Q2187.79 270.027 2188.67 268.291 Q2189.57 266.531 2189.57 264.842 Q2189.57 262.087 2187.63 260.351 Q2185.7 258.615 2182.6 258.615 Q2180.4 258.615 2177.95 259.379 Q2175.52 260.143 2172.74 261.694 L2172.74 256.971 Q2175.57 255.837 2178.02 255.258 Q2180.47 254.68 2182.51 254.68 Q2187.88 254.68 2191.07 257.365 Q2194.27 260.05 2194.27 264.541 Q2194.27 266.67 2193.46 268.592 Q2192.67 270.49 2190.57 273.082 Q2189.99 273.754 2186.88 276.971 Q2183.78 280.166 2178.13 285.929 Z" fill="#000000" fill-rule="nonzero" fill-opacity="1"></path><path clip-path="url(#clip690)" d="M2204.32 255.305 L2222.67 255.305 L2222.67 259.24 L2208.6 259.24 L2208.6 267.712 Q2209.62 267.365 2210.63 267.203 Q2211.65 267.018 2212.67 267.018 Q2218.46 267.018 2221.84 270.189 Q2225.22 273.36 2225.22 278.777 Q2225.22 284.355 2221.75 287.457 Q2218.27 290.536 2211.95 290.536 Q2209.78 290.536 2207.51 290.166 Q2205.26 289.795 2202.86 289.054 L2202.86 284.355 Q2204.94 285.49 2207.16 286.045 Q2209.38 286.601 2211.86 286.601 Q2215.87 286.601 2218.2 284.494 Q2220.54 282.388 2220.54 278.777 Q2220.54 275.166 2218.2 273.059 Q2215.87 270.953 2211.86 270.953 Q2209.99 270.953 2208.11 271.369 Q2206.26 271.786 2204.32 272.666 L2204.32 255.305 Z" fill="#000000" fill-rule="nonzero" fill-opacity="1"></path><polyline clip-path="url(#clip690)" style="stroke:#3da44d; stroke-linecap:round; stroke-linejoin:round; stroke-width:4; stroke-opacity:1; fill:none" points="1913.2,324.425 2057.77,324.425 "></polyline>
<path clip-path="url(#clip690)" d="M2089.27 308.418 L2089.27 315.779 L2098.04 315.779 L2098.04 319.089 L2089.27 319.089 L2089.27 333.163 Q2089.27 336.334 2090.13 337.237 Q2091.01 338.14 2093.67 338.14 L2098.04 338.14 L2098.04 341.705 L2093.67 341.705 Q2088.74 341.705 2086.86 339.876 Q2084.99 338.024 2084.99 333.163 L2084.99 319.089 L2081.86 319.089 L2081.86 315.779 L2084.99 315.779 L2084.99 308.418 L2089.27 308.418 Z" fill="#000000" fill-rule="nonzero" fill-opacity="1"></path><path clip-path="url(#clip690)" d="M2119.27 320.177 L2148.95 320.177 L2148.95 324.066 L2119.27 324.066 L2119.27 320.177 M2119.27 329.621 L2148.95 329.621 L2148.95 333.557 L2119.27 333.557 L2119.27 329.621 Z" fill="#000000" fill-rule="nonzero" fill-opacity="1"></path><path clip-path="url(#clip690)" d="M2174.15 307.145 L2192.51 307.145 L2192.51 311.08 L2178.44 311.08 L2178.44 319.552 Q2179.45 319.205 2180.47 319.043 Q2181.49 318.858 2182.51 318.858 Q2188.3 318.858 2191.68 322.029 Q2195.06 325.2 2195.06 330.617 Q2195.06 336.195 2191.58 339.297 Q2188.11 342.376 2181.79 342.376 Q2179.62 342.376 2177.35 342.006 Q2175.1 341.635 2172.7 340.894 L2172.7 336.195 Q2174.78 337.33 2177 337.885 Q2179.22 338.441 2181.7 338.441 Q2185.7 338.441 2188.04 336.334 Q2190.38 334.228 2190.38 330.617 Q2190.38 327.006 2188.04 324.899 Q2185.7 322.793 2181.7 322.793 Q2179.82 322.793 2177.95 323.209 Q2176.1 323.626 2174.15 324.506 L2174.15 307.145 Z" fill="#000000" fill-rule="nonzero" fill-opacity="1"></path><path clip-path="url(#clip690)" d="M2214.27 310.223 Q2210.66 310.223 2208.83 313.788 Q2207.02 317.33 2207.02 324.459 Q2207.02 331.566 2208.83 335.131 Q2210.66 338.672 2214.27 338.672 Q2217.9 338.672 2219.71 335.131 Q2221.54 331.566 2221.54 324.459 Q2221.54 317.33 2219.71 313.788 Q2217.9 310.223 2214.27 310.223 M2214.27 306.52 Q2220.08 306.52 2223.13 311.126 Q2226.21 315.709 2226.21 324.459 Q2226.21 333.186 2223.13 337.793 Q2220.08 342.376 2214.27 342.376 Q2208.46 342.376 2205.38 337.793 Q2202.32 333.186 2202.32 324.459 Q2202.32 315.709 2205.38 311.126 Q2208.46 306.52 2214.27 306.52 Z" fill="#000000" fill-rule="nonzero" fill-opacity="1"></path><polyline clip-path="url(#clip690)" style="stroke:#c271d2; stroke-linecap:round; stroke-linejoin:round; stroke-width:4; stroke-opacity:1; fill:none" points="1913.2,376.265 2057.77,376.265 "></polyline>
<path clip-path="url(#clip690)" d="M2089.27 360.258 L2089.27 367.619 L2098.04 367.619 L2098.04 370.929 L2089.27 370.929 L2089.27 385.003 Q2089.27 388.174 2090.13 389.077 Q2091.01 389.98 2093.67 389.98 L2098.04 389.98 L2098.04 393.545 L2093.67 393.545 Q2088.74 393.545 2086.86 391.716 Q2084.99 389.864 2084.99 385.003 L2084.99 370.929 L2081.86 370.929 L2081.86 367.619 L2084.99 367.619 L2084.99 360.258 L2089.27 360.258 Z" fill="#000000" fill-rule="nonzero" fill-opacity="1"></path><path clip-path="url(#clip690)" d="M2119.27 372.017 L2148.95 372.017 L2148.95 375.906 L2119.27 375.906 L2119.27 372.017 M2119.27 381.461 L2148.95 381.461 L2148.95 385.397 L2119.27 385.397 L2119.27 381.461 Z" fill="#000000" fill-rule="nonzero" fill-opacity="1"></path><path clip-path="url(#clip690)" d="M2172.93 358.985 L2195.15 358.985 L2195.15 360.975 L2182.6 393.545 L2177.72 393.545 L2189.52 362.92 L2172.93 362.92 L2172.93 358.985 Z" fill="#000000" fill-rule="nonzero" fill-opacity="1"></path><path clip-path="url(#clip690)" d="M2204.32 358.985 L2222.67 358.985 L2222.67 362.92 L2208.6 362.92 L2208.6 371.392 Q2209.62 371.045 2210.63 370.883 Q2211.65 370.698 2212.67 370.698 Q2218.46 370.698 2221.84 373.869 Q2225.22 377.04 2225.22 382.457 Q2225.22 388.035 2221.75 391.137 Q2218.27 394.216 2211.95 394.216 Q2209.78 394.216 2207.51 393.846 Q2205.26 393.475 2202.86 392.734 L2202.86 388.035 Q2204.94 389.17 2207.16 389.725 Q2209.38 390.281 2211.86 390.281 Q2215.87 390.281 2218.2 388.174 Q2220.54 386.068 2220.54 382.457 Q2220.54 378.846 2218.2 376.739 Q2215.87 374.633 2211.86 374.633 Q2209.99 374.633 2208.11 375.049 Q2206.26 375.466 2204.32 376.346 L2204.32 358.985 Z" fill="#000000" fill-rule="nonzero" fill-opacity="1"></path><polyline clip-path="url(#clip690)" style="stroke:#ac8d18; stroke-linecap:round; stroke-linejoin:round; stroke-width:4; stroke-opacity:1; fill:none" points="1913.2,428.105 2057.77,428.105 "></polyline>
<path clip-path="url(#clip690)" d="M2089.27 412.098 L2089.27 419.459 L2098.04 419.459 L2098.04 422.769 L2089.27 422.769 L2089.27 436.843 Q2089.27 440.014 2090.13 440.917 Q2091.01 441.82 2093.67 441.82 L2098.04 441.82 L2098.04 445.385 L2093.67 445.385 Q2088.74 445.385 2086.86 443.556 Q2084.99 441.704 2084.99 436.843 L2084.99 422.769 L2081.86 422.769 L2081.86 419.459 L2084.99 419.459 L2084.99 412.098 L2089.27 412.098 Z" fill="#000000" fill-rule="nonzero" fill-opacity="1"></path><path clip-path="url(#clip690)" d="M2119.27 423.857 L2148.95 423.857 L2148.95 427.746 L2119.27 427.746 L2119.27 423.857 M2119.27 433.301 L2148.95 433.301 L2148.95 437.237 L2119.27 437.237 L2119.27 433.301 Z" fill="#000000" fill-rule="nonzero" fill-opacity="1"></path><path clip-path="url(#clip690)" d="M2174.92 441.449 L2182.56 441.449 L2182.56 415.084 L2174.25 416.751 L2174.25 412.491 L2182.51 410.825 L2187.19 410.825 L2187.19 441.449 L2194.82 441.449 L2194.82 445.385 L2174.92 445.385 L2174.92 441.449 Z" fill="#000000" fill-rule="nonzero" fill-opacity="1"></path><path clip-path="url(#clip690)" d="M2214.27 413.903 Q2210.66 413.903 2208.83 417.468 Q2207.02 421.01 2207.02 428.139 Q2207.02 435.246 2208.83 438.811 Q2210.66 442.352 2214.27 442.352 Q2217.9 442.352 2219.71 438.811 Q2221.54 435.246 2221.54 428.139 Q2221.54 421.01 2219.71 417.468 Q2217.9 413.903 2214.27 413.903 M2214.27 410.2 Q2220.08 410.2 2223.13 414.806 Q2226.21 419.389 2226.21 428.139 Q2226.21 436.866 2223.13 441.473 Q2220.08 446.056 2214.27 446.056 Q2208.46 446.056 2205.38 441.473 Q2202.32 436.866 2202.32 428.139 Q2202.32 419.389 2205.38 414.806 Q2208.46 410.2 2214.27 410.2 Z" fill="#000000" fill-rule="nonzero" fill-opacity="1"></path><path clip-path="url(#clip690)" d="M2244.43 413.903 Q2240.82 413.903 2238.99 417.468 Q2237.19 421.01 2237.19 428.139 Q2237.19 435.246 2238.99 438.811 Q2240.82 442.352 2244.43 442.352 Q2248.07 442.352 2249.87 438.811 Q2251.7 435.246 2251.7 428.139 Q2251.7 421.01 2249.87 417.468 Q2248.07 413.903 2244.43 413.903 M2244.43 410.2 Q2250.24 410.2 2253.3 414.806 Q2256.38 419.389 2256.38 428.139 Q2256.38 436.866 2253.3 441.473 Q2250.24 446.056 2244.43 446.056 Q2238.62 446.056 2235.54 441.473 Q2232.49 436.866 2232.49 428.139 Q2232.49 419.389 2235.54 414.806 Q2238.62 410.2 2244.43 410.2 Z" fill="#000000" fill-rule="nonzero" fill-opacity="1"></path></svg>